<?xml version="1.0" standalone="no"?>
<!DOCTYPE svg PUBLIC "-//W3C//DTD SVG 20010904//EN"
 "http://www.w3.org/TR/2001/REC-SVG-20010904/DTD/svg10.dtd">
<svg version="1.0" xmlns="http://www.w3.org/2000/svg"
 width="512.000000pt" height="512.000000pt" viewBox="0 0 512.000000 512.000000"
 preserveAspectRatio="xMidYMid meet">

<g transform="translate(0.000000,512.000000) scale(0.100000,-0.100000)"
fill="#ffc107" stroke="none">
<path d="M3790 5114 c-14 -1 -91 -8 -172 -15 -82 -6 -148 -14 -148 -18 0 -9
1609 -1616 1613 -1611 16 18 30 297 34 656 5 404 4 424 -16 505 -33 130 -73
201 -171 299 -65 66 -102 94 -160 122 -132 64 -172 68 -587 67 -202 -1 -379
-3 -393 -5z"/>
<path d="M2985 4989 c-314 -84 -665 -226 -938 -380 -132 -75 -416 -265 -527
-354 -683 -546 -1167 -1283 -1386 -2110 l-34 -130 958 -957 957 -958 130 34
c819 217 1561 702 2101 1374 339 424 606 954 744 1482 l30 115 -958 958 c-526
526 -959 957 -962 956 -3 0 -54 -14 -115 -30z m118 -1330 c12 -6 57 -45 99
-87 l77 -76 85 82 c91 87 112 97 183 89 86 -9 142 -100 119 -192 -4 -14 -43
-64 -88 -111 l-82 -85 76 -77 c88 -90 98 -106 98 -164 0 -60 -30 -105 -86
-129 -77 -35 -113 -22 -214 77 l-86 83 -134 -134 -134 -134 81 -84 c87 -89
102 -121 88 -194 -9 -47 -63 -100 -111 -109 -62 -12 -109 11 -195 94 l-80 76
-131 -132 -132 -131 76 -80 c83 -86 106 -133 94 -195 -9 -48 -62 -102 -109
-111 -73 -14 -105 1 -194 88 l-84 81 -134 -134 -134 -134 83 -86 c99 -101 112
-137 77 -214 -24 -56 -69 -86 -129 -86 -58 0 -74 10 -164 98 l-78 77 -72 -71
c-94 -92 -114 -104 -166 -104 -80 0 -141 50 -149 124 -8 70 2 91 89 182 l82
85 -76 77 c-88 90 -98 106 -98 164 0 60 30 105 86 129 77 35 113 22 214 -77
l86 -83 134 134 134 134 -81 84 c-87 89 -102 121 -88 194 9 47 63 100 111 109
62 12 109 -11 195 -94 l80 -76 131 132 132 131 -76 80 c-83 86 -106 133 -94
195 9 48 62 102 109 111 73 14 105 -1 194 -88 l84 -81 134 134 134 134 -83 86
c-69 71 -85 92 -91 127 -9 56 21 125 67 153 37 22 106 27 141 9z"/>
<path d="M20 1533 c-7 -67 -15 -298 -17 -535 -6 -471 -2 -508 65 -648 28 -58
56 -95 122 -160 98 -98 169 -138 299 -171 81 -20 101 -21 505 -16 359 4 638
18 656 34 5 4 -1601 1613 -1611 1613 -3 0 -11 -53 -19 -117z"/>
</g>
</svg>
