<?xml version="1.0" standalone="no"?>
<!DOCTYPE svg PUBLIC "-//W3C//DTD SVG 20010904//EN"
 "http://www.w3.org/TR/2001/REC-SVG-20010904/DTD/svg10.dtd">
<svg version="1.0" xmlns="http://www.w3.org/2000/svg"
 width="512.000000pt" height="512.000000pt" viewBox="0 0 512.000000 512.000000"
 preserveAspectRatio="xMidYMid meet">

<g transform="translate(0.000000,512.000000) scale(0.100000,-0.100000)"
fill="#ffc107" stroke="none">
<path d="M2330 5109 c-183 -17 -387 -59 -575 -119 l-99 -32 39 -20 c207 -104
466 -255 683 -400 l133 -89 64 56 c79 69 186 189 211 235 15 29 19 64 22 201
l4 166 -78 6 c-97 9 -293 7 -404 -4z"/>
<path d="M3070 4963 c-1 -188 -27 -307 -89 -397 -17 -25 -82 -97 -143 -161
-94 -98 -109 -118 -97 -129 8 -7 48 -40 89 -73 41 -34 109 -90 151 -126 l75
-65 160 94 c185 111 425 230 539 269 77 26 301 82 420 106 l60 11 -40 35
c-120 106 -315 233 -492 322 -179 89 -340 148 -533 196 -36 9 -73 18 -82 21
-16 5 -18 -5 -18 -103z"/>
<path d="M1250 4757 c-371 -227 -665 -521 -884 -885 -66 -110 -139 -252 -133
-259 3 -2 58 14 123 36 176 59 353 102 704 170 394 77 485 97 583 127 177 55
370 148 556 268 l104 68 -109 70 c-209 136 -390 240 -599 343 -115 58 -221
107 -235 110 -18 3 -48 -9 -110 -48z"/>
<path d="M4435 4263 c-206 -27 -506 -95 -637 -145 -105 -40 -279 -129 -431
-220 l-118 -71 49 -51 c84 -88 185 -208 246 -292 l58 -81 73 23 c156 50 271
68 430 68 171 1 211 -8 360 -79 158 -75 368 -243 540 -432 79 -86 96 -100 91
-77 -3 16 -10 61 -16 99 -60 391 -264 836 -537 1173 -41 50 -76 91 -76 91 -1
-1 -15 -4 -32 -6z"/>
<path d="M2375 4025 c-226 -153 -474 -271 -710 -340 -49 -14 -240 -55 -424
-90 -584 -113 -807 -174 -1028 -280 -124 -59 -110 -40 -147 -190 -44 -179 -71
-473 -61 -660 20 -389 100 -705 260 -1030 64 -130 180 -325 194 -325 4 0 15
30 25 68 29 110 103 287 187 451 356 689 1141 1508 2094 2185 l69 49 -44 40
c-62 55 -264 217 -270 217 -3 -1 -68 -43 -145 -95z"/>
<path d="M2934 3617 c-573 -404 -1102 -876 -1495 -1332 -429 -498 -693 -982
-759 -1388 l-10 -62 68 -68 c363 -369 847 -628 1351 -721 121 -23 118 -24 147
42 154 341 291 812 524 1802 107 454 157 644 210 790 86 243 168 380 307 517
l94 93 -47 62 c-84 111 -279 328 -294 328 -4 0 -47 -28 -96 -63z"/>
<path d="M3960 3231 c-107 -19 -189 -39 -203 -51 -4 -3 28 -77 72 -163 180
-358 316 -755 416 -1218 59 -271 112 -626 130 -869 3 -47 8 -101 11 -121 l5
-37 58 62 c384 413 616 952 665 1546 l6 76 -107 129 c-152 183 -361 394 -476
481 -216 163 -355 203 -577 165z"/>
<path d="M3449 3013 c-133 -124 -233 -346 -332 -738 -25 -99 -87 -353 -137
-565 -201 -851 -347 -1357 -476 -1649 -13 -29 -24 -56 -24 -59 0 -9 318 8 426
23 421 59 789 206 1142 454 l94 66 -7 140 c-34 698 -192 1424 -437 2005 -51
122 -179 370 -190 370 -5 0 -31 -21 -59 -47z"/>
</g>
</svg>
