<?xml version="1.0" standalone="no"?>
<!DOCTYPE svg PUBLIC "-//W3C//DTD SVG 20010904//EN"
 "http://www.w3.org/TR/2001/REC-SVG-20010904/DTD/svg10.dtd">
<svg version="1.0" xmlns="http://www.w3.org/2000/svg"
 width="512.000000pt" height="512.000000pt" viewBox="0 0 512.000000 512.000000"
 preserveAspectRatio="xMidYMid meet">

<g transform="translate(0.000000,512.000000) scale(0.100000,-0.100000)"
fill="#ffc107" stroke="none">
<path d="M1314 5105 c-401 -62 -678 -318 -892 -825 -59 -139 -130 -341 -160
-450 -24 -88 -26 -111 -26 -300 0 -191 3 -222 42 -468 23 -145 42 -294 43
-330 1 -51 -27 -197 -120 -622 -67 -305 -121 -562 -121 -570 0 -29 348 -225
565 -318 88 -38 317 -124 321 -120 1 2 -33 61 -76 133 -43 71 -75 134 -71 140
4 5 35 45 69 87 34 42 62 79 62 81 0 3 -25 -3 -55 -12 -40 -13 -60 -26 -77
-51 -53 -77 -139 -101 -213 -58 -43 25 -85 93 -85 138 0 36 40 110 71 133 39
28 111 34 158 12 38 -17 41 -17 135 11 64 19 95 33 91 41 -2 7 -30 46 -61 88
-46 61 -61 75 -84 75 -32 0 -85 34 -113 71 -52 70 -20 184 63 227 49 26 114
25 155 -2 19 -13 32 -11 113 12 51 14 92 29 92 32 0 4 -27 42 -60 84 -49 61
-66 76 -88 76 -56 0 -112 52 -132 121 -31 108 89 221 201 188 70 -21 126 -110
113 -178 -4 -21 9 -45 76 -131 45 -58 83 -106 84 -107 1 -2 61 13 132 33 156
44 149 36 222 251 55 163 125 337 204 505 l50 107 -25 43 c-87 147 -238 239
-394 238 -37 0 -148 -21 -188 -35 -11 -4 14 15 56 43 144 97 204 191 203 322
-1 99 -34 189 -111 299 -11 14 23 -4 87 -49 280 -194 523 -340 736 -442 102
-48 131 -58 176 -58 l54 0 18 71 c24 93 92 228 153 304 104 128 277 240 433
280 36 9 66 18 68 20 6 5 -39 87 -81 150 -64 94 -219 241 -340 322 -235 156
-562 286 -902 357 -222 47 -407 57 -571 31z"/>
<path d="M3255 4080 c-222 -33 -420 -180 -506 -374 -27 -61 -69 -228 -69 -275
0 -58 -8 -62 -75 -39 -302 102 -598 -264 -814 -1007 l-32 -110 -240 -295
c-132 -162 -301 -370 -375 -462 l-135 -166 66 -106 c298 -483 689 -874 1178
-1179 l107 -67 451 366 c248 202 471 378 495 391 25 14 158 62 297 108 297 97
380 130 504 195 129 67 224 142 360 284 328 342 478 572 550 846 28 109 35
283 14 385 -67 326 -276 642 -665 1003 -402 374 -791 550 -1111 502z m-855
-2081 c75 -42 103 -146 59 -219 l-21 -34 23 -129 c16 -88 28 -131 39 -136 8
-5 68 -18 133 -31 l118 -23 39 22 c121 68 262 -35 236 -174 -9 -46 -62 -100
-114 -115 -58 -18 -115 0 -164 51 -34 35 -47 41 -128 58 -69 14 -90 16 -90 6
0 -7 7 -50 16 -95 14 -74 19 -85 59 -123 69 -66 74 -155 12 -221 -68 -71 -161
-72 -232 -2 -40 40 -49 44 -135 60 -51 9 -95 14 -98 11 -3 -3 2 -48 11 -100
16 -89 20 -97 56 -130 111 -100 44 -275 -105 -275 -60 0 -107 27 -138 79 -27
47 -26 123 4 163 l23 31 -24 136 -24 136 -133 24 -134 24 -39 -23 c-111 -62
-239 10 -239 135 0 67 29 112 92 143 68 34 118 24 177 -34 41 -42 49 -45 138
-60 52 -9 96 -14 98 -12 3 2 -3 46 -11 97 -16 89 -19 96 -59 135 -109 104 -40
276 110 276 46 0 86 -21 122 -63 25 -30 38 -36 116 -51 49 -10 91 -15 94 -12
3 3 -2 45 -11 92 -16 80 -21 91 -61 130 -29 28 -46 54 -50 78 -26 138 114 243
235 175z"/>
<path d="M2087 1238 c13 -73 25 -133 26 -134 7 -7 258 -46 264 -41 5 6 -28
195 -43 248 -3 11 -37 21 -123 37 -66 12 -126 22 -133 22 -12 0 -11 -23 9
-132z"/>
<path d="M1131 2064 c-62 -18 -116 -36 -119 -38 -2 -3 31 -52 74 -110 61 -83
81 -103 91 -94 20 16 153 184 153 193 0 14 -62 85 -73 84 -7 -1 -63 -16 -126
-35z"/>
</g>
</svg>
