<?xml version="1.0" standalone="no"?>
<!DOCTYPE svg PUBLIC "-//W3C//DTD SVG 20010904//EN"
 "http://www.w3.org/TR/2001/REC-SVG-20010904/DTD/svg10.dtd">
<svg version="1.0" xmlns="http://www.w3.org/2000/svg"
 width="512.000000pt" height="512.000000pt" viewBox="0 0 512.000000 512.000000"
 preserveAspectRatio="xMidYMid meet">

<g transform="translate(0.000000,512.000000) scale(0.100000,-0.100000)"
fill="#ffc107" stroke="none">
<path d="M1704 5070 c-37 -15 -54 -50 -54 -112 l0 -58 73 0 c149 0 240 -78
272 -232 5 -28 6 -28 90 -28 l85 0 0 28 c0 16 14 56 30 89 24 47 43 70 86 99
l56 39 151 3 c91 3 166 0 187 -7 87 -26 163 -112 178 -202 l8 -44 85 -3 86 -3
7 50 c9 66 57 137 120 176 43 26 61 30 133 34 l83 3 0 62 c0 54 -3 66 -26 87
l-26 24 -801 2 c-441 1 -812 -2 -823 -7z"/>
<path d="M1523 4720 c-12 -5 -26 -18 -32 -29 -8 -14 -11 -440 -11 -1393 l0
-1373 170 170 170 170 0 1205 c-1 1276 1 1223 -47 1248 -25 14 -217 15 -250 2z"/>
<path d="M2373 4706 l-28 -24 -3 -946 c-1 -520 1 -946 5 -946 5 0 84 75 176
168 l167 167 0 773 0 774 -29 29 c-29 29 -31 29 -145 29 -107 0 -117 -2 -143
-24z"/>
<path d="M3239 4701 l-29 -29 0 -514 0 -513 175 175 176 175 -3 343 -3 344
-28 24 c-26 22 -36 24 -143 24 -114 0 -116 0 -145 -29z"/>
<path d="M4462 4287 l-352 -352 155 -155 155 -155 350 351 c374 374 369 368
336 432 -8 15 -61 73 -119 130 -91 89 -108 102 -138 102 -31 0 -61 -27 -387
-353z"/>
<path d="M550 4104 c-36 -7 -107 -34 -159 -60 -169 -83 -297 -234 -359 -422
-20 -63 -25 -98 -26 -189 -1 -61 3 -115 7 -119 4 -5 187 171 405 389 316 316
394 399 382 407 -22 14 -174 11 -250 -6z"/>
<path d="M536 3581 l-459 -459 26 -44 c15 -23 31 -50 36 -58 9 -12 104 78 491
465 264 264 480 483 480 486 0 9 -93 69 -106 69 -5 0 -216 -207 -468 -459z"/>
<path d="M3715 3901 c-16 -10 -742 -732 -1612 -1603 -1666 -1667 -1602 -1598
-1570 -1655 22 -40 593 -592 619 -598 16 -4 37 -1 54 9 16 8 741 727 1612
1598 1542 1543 1582 1584 1582 1621 0 25 -16 69 -49 135 -46 90 -60 108 -208
254 -151 150 -162 159 -262 207 -57 28 -111 51 -120 51 -9 0 -29 -9 -46 -19z"/>
<path d="M755 3370 c-457 -457 -478 -480 -462 -498 9 -10 34 -28 55 -40 l38
-21 463 463 463 463 -36 57 c-20 31 -37 56 -38 56 -2 0 -219 -216 -483 -480z"/>
<path d="M975 3150 c-219 -219 -396 -403 -392 -407 14 -13 201 -6 267 11 36
10 103 36 150 59 69 33 102 58 176 132 74 73 98 106 132 175 65 132 94 285 75
388 l-8 42 -400 -400z"/>
<path d="M3383 1978 l-173 -173 0 -848 c0 -563 3 -855 10 -868 20 -36 63 -49
165 -49 108 0 146 13 164 57 8 21 11 294 9 1041 l-3 1012 -172 -172z"/>
<path d="M2512 1107 l-172 -172 0 -408 c0 -447 1 -452 59 -477 19 -8 67 -11
136 -8 103 3 108 4 131 31 l24 28 0 590 c0 324 -1 589 -3 589 -1 0 -80 -78
-175 -173z"/>
<path d="M1652 247 l-163 -163 22 -20 c18 -17 36 -19 141 -19 119 0 120 0 144
28 23 27 24 34 24 183 0 85 -1 154 -3 154 -1 0 -75 -73 -165 -163z"/>
</g>
</svg>
