<?xml version="1.0" standalone="no"?>
<!DOCTYPE svg PUBLIC "-//W3C//DTD SVG 20010904//EN"
 "http://www.w3.org/TR/2001/REC-SVG-20010904/DTD/svg10.dtd">
<svg version="1.0" xmlns="http://www.w3.org/2000/svg"
 width="512.000000pt" height="512.000000pt" viewBox="0 0 512.000000 512.000000"
 preserveAspectRatio="xMidYMid meet">

<g transform="translate(0.000000,512.000000) scale(0.100000,-0.100000)"
fill="#ffc107" stroke="none">
<path d="M1701 5109 c-43 -8 -141 -38 -141 -43 0 -1 10 -22 23 -47 l22 -44 3
-683 c3 -639 4 -683 20 -677 81 31 296 31 407 1 103 -29 224 -76 390 -154 371
-173 483 -211 652 -219 70 -4 136 -1 175 6 89 17 234 90 296 148 l52 49 0 662
0 663 -25 24 c-33 34 -72 32 -153 -9 -182 -92 -353 -98 -589 -21 -56 19 -215
85 -355 148 -139 63 -292 129 -340 145 -158 56 -318 74 -437 51z"/>
<path d="M1285 4975 l-25 -24 0 -1926 0 -1927 29 -29 c18 -17 40 -29 56 -29
16 0 38 12 56 29 l29 29 0 1927 0 1926 -25 24 c-33 34 -87 34 -120 0z"/>
<path d="M2437 2069 c-206 -12 -439 -38 -632 -70 -99 -17 -183 -33 -187 -35
-5 -3 -8 -148 -8 -322 l1 -317 44 -28 c81 -51 133 -152 121 -234 -21 -155
-178 -266 -396 -280 -361 -22 -599 267 -390 476 27 27 59 52 70 56 19 6 20 14
20 256 0 137 -2 249 -4 249 -24 0 -288 -110 -421 -175 -218 -107 -307 -166
-427 -285 -109 -108 -159 -194 -179 -307 -24 -136 31 -289 143 -403 183 -185
480 -307 1012 -414 922 -187 1768 -201 2786 -46 275 42 620 114 745 155 340
111 410 258 212 441 -90 83 -144 113 -377 203 -235 90 -336 135 -424 188 -151
90 -226 184 -226 283 0 101 46 145 217 204 124 42 150 56 186 94 54 56 42 151
-25 192 -71 44 -164 59 -578 95 -403 34 -946 45 -1283 24z m1224 -887 c74 -36
125 -87 161 -160 30 -60 33 -75 33 -157 0 -71 -5 -100 -22 -137 -50 -110 -171
-194 -292 -205 -139 -13 -286 75 -344 206 -24 55 -34 170 -18 226 27 101 121
205 216 240 62 23 208 16 266 -13z"/>
</g>
</svg>
