<?xml version="1.0" standalone="no"?>
<!DOCTYPE svg PUBLIC "-//W3C//DTD SVG 20010904//EN"
 "http://www.w3.org/TR/2001/REC-SVG-20010904/DTD/svg10.dtd">
<svg version="1.0" xmlns="http://www.w3.org/2000/svg"
 width="512.000000pt" height="512.000000pt" viewBox="0 0 512.000000 512.000000"
 preserveAspectRatio="xMidYMid meet">

<g transform="translate(0.000000,512.000000) scale(0.100000,-0.100000)"
fill="#ffc107" stroke="none">
<path d="M2260 4794 c-14 -2 -65 -9 -115 -15 -202 -25 -423 -93 -630 -194
-511 -248 -902 -691 -1084 -1230 -87 -260 -114 -472 -109 -887 3 -271 4 -288
24 -314 39 -53 67 -66 165 -76 168 -17 282 -71 388 -183 72 -78 75 -84 247
-469 74 -164 155 -330 180 -368 124 -187 329 -330 554 -390 121 -31 318 -31
445 0 118 29 271 105 367 182 81 65 171 170 220 257 17 29 31 53 32 53 2 0
147 -31 354 -76 l72 -15 0 -37 c0 -54 28 -158 65 -238 113 -248 340 -422 602
-463 92 -14 462 -15 500 0 39 14 81 56 93 93 12 38 170 1136 170 1186 0 38
-28 92 -63 121 -26 21 -35 24 -583 139 -236 49 -439 92 -451 95 l-23 5 0 260
c0 204 3 260 13 260 44 0 658 72 683 80 37 12 79 54 93 93 15 39 14 139 -4
289 -55 475 -259 899 -590 1232 -344 346 -785 555 -1274 605 -97 10 -285 13
-341 5z m1097 -2751 c-2 -2 -70 11 -150 28 -109 24 -147 36 -147 47 0 8 15 44
33 81 40 83 124 169 202 209 l60 30 3 -196 c1 -107 1 -197 -1 -199z m-157
-298 c69 -14 133 -29 143 -31 15 -5 17 -21 17 -161 l0 -155 -24 6 c-14 3 -78
18 -143 31 -65 14 -126 28 -135 31 -16 5 -18 21 -18 160 0 143 1 155 18 150 9
-2 73 -17 142 -31z m-1057 1 c103 -43 128 -177 48 -257 -65 -65 -157 -65 -222
0 -124 123 13 325 174 257z m1930 -175 c207 -43 380 -80 382 -83 3 -3 -5 -75
-16 -162 -19 -133 -24 -156 -38 -152 -18 6 -710 156 -717 156 -2 0 -4 72 -4
160 0 88 3 160 8 160 4 -1 177 -36 385 -79z m92 -672 c110 -23 201 -44 203
-45 4 -2 -13 -131 -24 -186 l-6 -28 -107 0 c-196 0 -299 36 -405 142 -56 56
-126 171 -126 206 0 5 57 -3 133 -19 72 -15 222 -47 332 -70z"/>
</g>
</svg>
