<?xml version="1.0" standalone="no"?>
<!DOCTYPE svg PUBLIC "-//W3C//DTD SVG 20010904//EN"
 "http://www.w3.org/TR/2001/REC-SVG-20010904/DTD/svg10.dtd">
<svg version="1.0" xmlns="http://www.w3.org/2000/svg"
 width="512.000000pt" height="512.000000pt" viewBox="0 0 512.000000 512.000000"
 preserveAspectRatio="xMidYMid meet">

<g transform="translate(0.000000,512.000000) scale(0.100000,-0.100000)"
fill="#ffc107" stroke="none">
<path d="M1381 4979 c-131 -25 -221 -171 -181 -295 18 -53 139 -264 152 -264
9 0 393 213 406 225 6 5 -138 248 -161 272 -46 50 -137 76 -216 62z"/>
<path d="M3650 4980 c-43 -8 -109 -41 -132 -66 -9 -11 -44 -66 -77 -124 -48
-82 -58 -107 -48 -116 14 -13 387 -224 396 -224 10 1 117 192 131 234 16 48 8
122 -19 174 -45 89 -152 141 -251 122z"/>
<path d="M2454 3082 l-841 -1457 -639 -5 -639 -5 -55 -26 c-70 -33 -132 -95
-167 -167 -24 -49 -28 -69 -28 -142 0 -76 4 -92 33 -152 38 -77 92 -130 171
-167 l56 -26 681 -3 680 -3 34 23 c18 13 45 39 61 58 20 27 1843 3173 1897
3276 11 21 0 28 -192 138 -112 64 -205 116 -207 116 -2 0 -382 -656 -845
-1458z"/>
<path d="M1630 4389 c-107 -62 -197 -113 -199 -115 -3 -3 744 -1302 758 -1316
6 -7 277 458 274 471 -7 27 -615 1066 -626 1068 -6 2 -100 -47 -207 -108z"/>
<path d="M2789 2389 c-74 -128 -133 -236 -131 -242 11 -37 652 -1130 680
-1159 19 -20 47 -42 61 -48 18 -7 231 -10 701 -8 l675 3 62 29 c75 34 134 95
171 174 36 76 38 201 5 274 -30 66 -105 143 -172 175 l-56 28 -639 5 -639 5
-286 497 c-157 273 -289 497 -292 498 -4 0 -67 -104 -140 -231z"/>
<path d="M2300 1131 c-237 -52 -382 -144 -410 -260 -30 -125 54 -214 278 -295
288 -103 649 -84 912 49 76 39 111 73 139 135 26 57 26 93 1 146 -44 90 -145
155 -327 211 -81 24 -104 27 -298 29 -176 3 -224 1 -295 -15z"/>
<path d="M1880 458 c0 -41 7 -98 16 -128 43 -147 255 -249 559 -270 229 -15
441 15 588 84 171 80 213 146 200 312 l-6 70 -83 -42 c-90 -45 -205 -84 -329
-111 -115 -26 -407 -25 -524 1 -120 26 -220 60 -320 109 -47 23 -89 43 -93 45
-5 2 -8 -30 -8 -70z"/>
</g>
</svg>
