<?xml version="1.0" standalone="no"?>
<!DOCTYPE svg PUBLIC "-//W3C//DTD SVG 20010904//EN"
 "http://www.w3.org/TR/2001/REC-SVG-20010904/DTD/svg10.dtd">
<svg version="1.0" xmlns="http://www.w3.org/2000/svg"
 width="512.000000pt" height="512.000000pt" viewBox="0 0 512.000000 512.000000"
 preserveAspectRatio="xMidYMid meet">

<g transform="translate(0.000000,512.000000) scale(0.100000,-0.100000)"
fill="#ffc107" stroke="none">
<path d="M2211 5106 c-45 -25 -50 -50 -51 -223 l0 -163 -310 0 c-328 0 -355
-3 -376 -47 -5 -10 -11 -205 -14 -433 l-5 -414 -64 86 c-62 84 -91 108 -131
108 -19 0 -493 -186 -550 -215 -55 -29 -55 -25 -5 -621 25 -302 50 -578 56
-614 38 -248 138 -498 287 -721 76 -113 214 -267 291 -323 64 -47 172 -100
246 -121 33 -9 66 -18 72 -20 9 -3 5 -19 -12 -57 -34 -73 -33 -122 4 -159 49
-49 126 -35 155 27 9 19 24 50 33 70 20 41 62 76 112 93 23 7 139 11 346 11
354 0 411 -8 534 -77 199 -110 325 -356 293 -573 -15 -106 -44 -183 -98 -263
-85 -124 -215 -212 -359 -242 -92 -19 -656 -21 -719 -3 -52 16 -112 76 -126
126 -22 84 -85 121 -148 88 -64 -33 -69 -99 -17 -203 43 -86 103 -144 193
-186 l67 -32 945 0 945 0 67 32 c93 44 151 100 196 191 l37 76 0 482 0 482
-41 79 -40 80 64 39 c77 47 204 176 255 260 48 80 86 180 103 274 18 103 21
2625 2 2665 -24 53 -41 55 -378 55 l-310 0 0 60 c0 70 -17 111 -55 128 -18 8
-117 12 -335 12 l-310 0 0 60 c0 71 -15 107 -51 126 -39 20 -762 20 -798 0z
m649 -446 c0 -280 3 -301 51 -326 34 -17 60 -18 94 -2 48 22 55 52 55 228 l0
160 250 0 250 0 0 -260 c0 -283 4 -305 55 -328 51 -23 107 -7 131 39 10 21 14
69 14 189 l0 160 250 0 250 0 0 -637 c0 -534 -3 -648 -15 -702 -41 -174 -174
-314 -350 -368 -56 -17 -114 -18 -935 -18 -821 0 -879 1 -935 18 -175 54 -309
195 -350 368 -12 54 -15 168 -15 702 l0 637 250 0 250 0 0 -160 c0 -120 4
-168 14 -189 35 -66 137 -66 172 0 11 23 14 96 14 389 l0 360 250 0 250 0 0
-260z m-1514 -1020 l109 -145 6 -165 c7 -188 28 -273 96 -390 40 -68 156 -193
209 -225 l32 -18 -60 -45 c-111 -84 -199 -208 -245 -347 -26 -76 -27 -92 -32
-350 l-6 -270 -87 88 c-193 194 -339 475 -397 765 -17 82 -101 990 -101 1088
0 30 1 31 178 101 97 39 180 68 183 65 3 -4 55 -72 115 -152z m2914 -935 l0
-95 -45 35 c-25 19 -54 39 -63 45 -15 9 -14 12 13 32 16 13 43 35 60 50 16 15
31 28 33 28 1 0 2 -43 2 -95z m-345 -130 c162 -43 290 -166 330 -320 62 -240
-80 -533 -315 -649 l-75 -37 -1080 3 c-594 2 -1088 7 -1097 12 -17 7 -18 31
-18 285 0 211 4 291 15 340 40 169 170 309 335 362 51 17 123 18 950 18 774 1
904 -1 955 -14z m-98 -1237 c62 -41 86 -87 91 -179 l5 -79 -321 0 -321 0 -41
79 c-23 44 -69 110 -102 146 l-61 66 355 -3 355 -3 40 -27z m93 -558 l0 -100
-292 2 -292 3 0 98 -1 97 293 0 292 0 0 -100z m-2 -374 c-6 -87 -30 -134 -91
-174 l-40 -27 -355 -3 -355 -3 61 66 c34 37 78 100 99 141 l38 74 324 0 324 0
-5 -74z"/>
<path d="M1911 3906 c-47 -26 -63 -84 -37 -135 21 -40 56 -51 166 -51 110 0
145 11 166 51 27 52 8 115 -41 137 -36 17 -223 15 -254 -2z"/>
<path d="M2521 3906 c-47 -26 -63 -84 -37 -135 21 -40 56 -51 166 -51 110 0
145 11 166 51 27 52 8 115 -41 137 -36 17 -223 15 -254 -2z"/>
<path d="M3131 3906 c-47 -26 -63 -84 -37 -135 22 -41 55 -51 171 -51 116 0
149 10 171 51 27 52 8 115 -41 137 -36 17 -233 15 -264 -2z"/>
<path d="M3751 3906 c-47 -26 -63 -84 -37 -135 21 -40 56 -51 166 -51 110 0
145 11 166 51 27 52 8 115 -41 137 -36 17 -223 15 -254 -2z"/>
<path d="M1644 856 c-37 -37 -43 -70 -20 -115 47 -90 186 -50 186 55 0 38 -59
94 -100 94 -23 0 -41 -9 -66 -34z"/>
<path d="M2756 849 c-17 -19 -26 -43 -26 -64 0 -21 9 -45 26 -64 21 -26 33
-31 68 -31 49 0 79 18 96 59 27 66 -20 131 -94 131 -37 0 -48 -5 -70 -31z"/>
</g>
</svg>
