<?xml version="1.0" standalone="no"?>
<!DOCTYPE svg PUBLIC "-//W3C//DTD SVG 20010904//EN"
 "http://www.w3.org/TR/2001/REC-SVG-20010904/DTD/svg10.dtd">
<svg version="1.0" xmlns="http://www.w3.org/2000/svg"
 width="512.000000pt" height="512.000000pt" viewBox="0 0 512.000000 512.000000"
 preserveAspectRatio="xMidYMid meet">

<g transform="translate(0.000000,512.000000) scale(0.100000,-0.100000)"
fill="#ffc107" stroke="none">
<path d="M1329 5063 c-53 -33 -54 -38 -57 -335 l-3 -278 -184 0 c-105 0 -196
-5 -212 -11 -42 -15 -92 -68 -103 -109 -5 -19 -10 -103 -10 -186 l0 -152 -100
-56 c-111 -63 -154 -102 -181 -161 -17 -37 -19 -80 -19 -635 l0 -595 24 -51
c13 -27 42 -66 66 -87 74 -63 100 -67 407 -67 l273 0 0 -830 0 -830 -369 0
c-440 0 -417 6 -414 -109 5 -130 65 -263 164 -362 64 -64 122 -101 218 -138
l66 -26 945 -3 c667 -2 965 1 1012 8 164 28 327 149 403 299 66 132 65 109 65
1098 l0 892 583 3 c575 3 582 3 622 25 52 28 109 88 132 138 17 37 18 86 21
604 2 387 -1 581 -8 618 -18 84 -59 128 -188 203 l-112 65 0 165 c0 152 -2
168 -23 205 -14 26 -37 48 -67 63 -41 20 -57 22 -232 22 l-188 0 0 270 c0 223
-3 276 -15 300 -33 64 45 60 -1282 60 -1093 -1 -1210 -2 -1234 -17z m2391
-368 l0 -245 -1155 0 -1155 0 0 245 0 245 1155 0 1155 0 0 -245z m498 -393
c10 -7 12 -165 10 -758 l-3 -749 -452 -3 c-379 -2 -453 0 -453 12 0 39 23 127
46 173 l25 52 310 3 311 3 29 33 29 32 0 199 c0 185 -1 200 -21 224 -11 15
-37 31 -57 37 -26 8 -466 10 -1447 8 -1534 -3 -1434 1 -1469 -59 -23 -39 -24
-375 -1 -419 22 -42 63 -60 140 -60 36 0 65 -2 65 -3 0 -2 -9 -29 -20 -61 -10
-31 -22 -83 -26 -116 l-7 -60 -158 0 -159 0 0 753 c0 415 3 757 7 760 9 10
3285 8 3301 -1z m297 -575 c13 -19 15 -97 15 -587 0 -542 -1 -566 -20 -597
-36 -60 -16 -58 -627 -61 l-563 -3 0 46 0 45 453 0 c484 0 510 2 577 50 17 12
44 45 60 73 l30 52 0 523 0 523 30 -21 c16 -12 36 -31 45 -43z m-3825 -448 c0
-352 3 -513 12 -540 15 -51 69 -114 122 -142 37 -19 59 -22 224 -25 l182 -4 0
-45 0 -44 -267 3 c-245 3 -271 5 -300 23 -65 39 -64 24 -61 650 l3 567 33 29
c18 16 37 29 42 29 6 0 10 -179 10 -501z m2637 -109 c-54 -60 -91 -120 -120
-198 l-22 -57 -5 -1200 c-5 -1121 -6 -1203 -23 -1245 -62 -157 -182 -256 -343
-283 -130 -22 -266 23 -365 122 -69 70 -105 144 -123 256 -9 61 -19 90 -32
100 -16 12 -96 14 -471 15 l-453 0 0 1063 c0 716 4 1082 11 1121 22 122 97
231 200 293 105 63 83 62 977 62 l814 1 -45 -50z m-1168 -2639 c20 -5 27 -17
36 -59 18 -77 70 -174 127 -237 l50 -55 -690 0 c-427 0 -710 4 -743 10 -83 16
-174 63 -229 120 -47 48 -102 145 -114 203 l-6 27 772 -1 c425 -1 784 -4 797
-8z"/>
<path d="M1238 4121 c-130 -82 -110 -275 34 -336 71 -29 154 -9 210 51 65 70
65 183 -1 258 -54 62 -168 75 -243 27z"/>
<path d="M1815 4134 c-73 -38 -105 -91 -105 -176 0 -186 250 -255 348 -96 58
94 21 222 -79 274 -37 19 -126 18 -164 -2z m119 -146 c9 -12 16 -26 16 -30 0
-13 -39 -48 -54 -48 -37 0 -61 61 -34 88 19 19 55 14 72 -10z"/>
<path d="M1600 2820 c-12 -12 -20 -33 -20 -54 0 -69 -31 -66 701 -66 l658 0
20 26 c27 35 26 59 -4 89 l-24 25 -656 0 c-642 0 -655 0 -675 -20z"/>
<path d="M1630 2403 c-52 -19 -68 -84 -29 -119 20 -18 48 -19 653 -22 417 -2
643 1 667 7 69 21 74 107 7 130 -32 11 -1268 15 -1298 4z"/>
<path d="M1602 1954 c-29 -20 -30 -76 -2 -104 20 -20 33 -20 675 -20 l656 0
24 25 c30 30 31 54 4 89 l-20 26 -658 0 c-578 0 -659 -2 -679 -16z"/>
<path d="M1600 1520 c-26 -26 -26 -81 -2 -103 17 -15 79 -17 680 -17 l661 0
20 26 c27 35 26 59 -4 89 l-24 25 -656 0 c-642 0 -655 0 -675 -20z"/>
<path d="M1635 1103 c-55 -14 -75 -82 -34 -119 20 -18 48 -19 662 -22 475 -2
649 1 670 9 59 25 55 107 -5 128 -31 11 -1250 14 -1293 4z"/>
</g>
</svg>
