<?xml version="1.0" standalone="no"?>
<!DOCTYPE svg PUBLIC "-//W3C//DTD SVG 20010904//EN"
 "http://www.w3.org/TR/2001/REC-SVG-20010904/DTD/svg10.dtd">
<svg version="1.0" xmlns="http://www.w3.org/2000/svg"
 width="512.000000pt" height="512.000000pt" viewBox="0 0 512.000000 512.000000"
 preserveAspectRatio="xMidYMid meet">

<g transform="translate(0.000000,512.000000) scale(0.100000,-0.100000)"
fill="#ffc107" stroke="none">
<path d="M582 5110 c-51 -12 -107 -54 -128 -97 -19 -37 -19 -100 -22 -2428 -2
-1795 0 -2401 9 -2433 17 -62 78 -127 133 -141 83 -21 101 -15 301 86 l191 96
164 -88 c163 -88 166 -89 245 -93 l80 -4 184 92 184 91 161 -87 c157 -85 163
-87 240 -92 l79 -4 186 92 186 91 170 -90 c167 -89 171 -91 240 -91 68 0 74 2
256 91 l185 91 192 -96 192 -97 267 3 c305 3 321 7 378 87 l30 43 3 2396 c2
1763 0 2408 -8 2437 -7 22 -25 61 -41 86 -25 40 -35 47 -80 57 -90 21 -104 17
-312 -85 l-198 -98 -32 19 c-18 10 -97 52 -177 93 l-144 75 -71 -4 c-64 -5
-85 -13 -242 -91 -95 -48 -178 -87 -183 -87 -6 0 -84 39 -172 86 -148 80 -167
87 -230 92 l-70 5 -189 -94 -189 -93 -187 92 c-251 124 -235 124 -486 0 l-188
-93 -194 98 -193 97 -244 -1 c-134 -1 -258 -5 -276 -9z m651 -522 c270 -136
255 -136 504 -10 l182 92 173 -92 c172 -92 173 -92 245 -92 70 0 75 1 256 91
l184 91 169 -91 c168 -90 170 -91 241 -91 70 0 75 1 256 91 l184 91 159 -84
c87 -47 179 -89 204 -95 62 -14 122 -3 202 37 37 19 70 34 73 34 3 0 5 -929 5
-2065 l0 -2065 -90 0 -90 0 -161 97 c-161 97 -162 98 -237 102 l-75 3 -186
-92 -186 -92 -184 91 c-179 89 -185 91 -254 91 -71 0 -76 -1 -257 -91 l-185
-91 -184 91 c-175 87 -186 91 -249 91 -64 0 -74 -3 -253 -91 l-186 -91 -164
88 c-156 84 -167 89 -237 92 -66 4 -78 1 -148 -32 -42 -20 -80 -36 -85 -36 -5
0 -9 854 -9 2065 l0 2065 90 0 90 0 203 -102z"/>
<path d="M1389 3600 c-75 -40 -115 -119 -107 -211 7 -65 37 -119 87 -154 l43
-30 1148 0 1148 0 43 30 c129 92 114 297 -28 369 -29 14 -142 16 -1165 16
-1097 -1 -1134 -1 -1169 -20z"/>
<path d="M1412 2759 c-45 -13 -105 -76 -120 -125 -33 -112 6 -217 99 -264 37
-20 66 -20 1169 -20 1103 0 1132 0 1169 20 78 39 118 120 107 214 -8 67 -35
116 -85 151 l-43 30 -1131 2 c-697 1 -1145 -2 -1165 -8z"/>
<path d="M1428 1910 c-143 -43 -196 -232 -96 -346 64 -73 17 -69 768 -72 488
-2 690 0 729 8 155 34 212 242 97 356 -24 25 -58 46 -81 53 -48 13 -1374 14
-1417 1z"/>
</g>
</svg>
