<?xml version="1.0" encoding="UTF-8"?>
<svg version="1.1" xmlns="http://www.w3.org/2000/svg" width="512" height="512">
<path d="M0 0 C0 16.17 0 32.34 0 49 C-11.385 46.03 -11.385 46.03 -23 43 C-27.21691338 42.13383602 -31.32177989 41.31953399 -35.5625 40.6875 C-36.59004395 40.52999268 -37.61758789 40.37248535 -38.67626953 40.21020508 C-95.04495776 32.05055393 -150.93876655 48.0304348 -196.30834961 81.90307617 C-200.97214446 85.44416792 -205.3705287 89.10753032 -209.40234375 93.3671875 C-211.13804995 95.14108772 -212.97638235 96.7148374 -214.875 98.3125 C-251.09001039 129.81886659 -273.65377232 182.24475877 -277.18432617 229.46533203 C-280.72724095 286.22437844 -264.34239403 339.98395858 -228 384 C-226.26189347 385.86776367 -224.48523878 387.64900073 -222.6328125 389.40234375 C-220.85891228 391.13804995 -219.2851626 392.97638235 -217.6875 394.875 C-186.18113341 431.09001039 -133.75524123 453.65377232 -86.53466797 457.18432617 C-29.77562156 460.72724095 23.98395858 444.34239403 68 408 C69.86776367 406.26189347 71.64900073 404.48523878 73.40234375 402.6328125 C75.13804995 400.85891228 76.97638235 399.2851626 78.875 397.6875 C115.97259063 365.41330548 137.85847422 312.3224458 141.38671875 264.1015625 C142.95311079 238.0117942 140.79898759 211.09633349 132.56616211 186.15625 C132 184 132 184 132 180 C147.84 180 163.68 180 180 180 C188.03373671 216.95518886 192.35994688 255.43239712 185 293 C184.83371094 293.91297852 184.66742188 294.82595703 184.49609375 295.76660156 C176.83636923 337.3986228 158.59375117 376.16052206 132 409 C131.55994629 409.54446777 131.11989258 410.08893555 130.66650391 410.64990234 C119.18825137 424.72173929 106.42280936 437.93680647 92 449 C91.06929688 449.75925781 90.13859375 450.51851563 89.1796875 451.30078125 C56.92831086 477.1596216 17.47485354 493.62794761 -23 501 C-23.83563477 501.16371094 -24.67126953 501.32742188 -25.53222656 501.49609375 C-53.24163521 506.78656862 -85.35093304 506.41678597 -113 501 C-113.91297852 500.83371094 -114.82595703 500.66742188 -115.76660156 500.49609375 C-157.3986228 492.83636923 -196.16052206 474.59375117 -229 448 C-229.54446777 447.55994629 -230.08893555 447.11989258 -230.64990234 446.66650391 C-244.72173929 435.18825137 -257.93680647 422.42280936 -269 408 C-269.75925781 407.06929688 -270.51851563 406.13859375 -271.30078125 405.1796875 C-297.1596216 372.92831086 -313.62794761 333.47485354 -321 293 C-321.16371094 292.16436523 -321.32742188 291.32873047 -321.49609375 290.46777344 C-326.78656862 262.75836479 -326.41678597 230.64906696 -321 203 C-320.83371094 202.08702148 -320.66742188 201.17404297 -320.49609375 200.23339844 C-312.83636923 158.6013772 -294.59375117 119.83947794 -268 87 C-267.55994629 86.45553223 -267.11989258 85.91106445 -266.66650391 85.35009766 C-255.18825137 71.27826071 -242.42280936 58.06319353 -228 47 C-227.06929688 46.24074219 -226.13859375 45.48148438 -225.1796875 44.69921875 C-192.92831086 18.8403784 -153.47485354 2.37205239 -113 -5 C-112.16436523 -5.16371094 -111.32873047 -5.32742188 -110.46777344 -5.49609375 C-73.89949267 -12.47796669 -35.85731564 -7.79506862 0 0 Z " fill="#ffc107" transform="translate(324,8)"/>
<path d="M0 0 C8.35822717 7.97926473 13.02797696 18.28317803 13.47265625 29.76025391 C13.61028694 41.66285127 10.92928779 51.91735209 3 61.125 C0.13228316 63.66417318 -2.85017751 65.94812268 -6 68.125 C-3.78962354 69.80909635 -1.55803664 71.42806059 0.734375 73 C11.78896116 80.7897602 19.04220273 89.68814953 22 103.125 C24.16405503 116.51008111 21.89400812 127.42454112 15.3125 139.125 C3.87525469 153.96250742 -12.21599595 161.13594469 -30.58203125 163.83984375 C-55.34783562 167.03193549 -83.09856522 165.39590322 -103.7578125 149.91796875 C-104.86769531 149.03044922 -104.86769531 149.03044922 -106 148.125 C-106.63679687 147.62613281 -107.27359375 147.12726563 -107.9296875 146.61328125 C-115.80463039 139.66583164 -120.51391394 128.72882628 -121.2734375 118.41015625 C-121.71174534 105.5327636 -119.63541437 94.26807994 -110.9453125 84.1484375 C-104.90397542 77.86447644 -98.84395808 72.98207631 -91 69.125 C-93.55126446 66.49869835 -95.92141986 64.18308098 -98.875 62 C-105.43935827 56.60603119 -110.60773128 47.50347428 -112 39.125 C-113.01081382 27.17212657 -112.07512126 16.34505123 -104.8125 6.3125 C-92.74558863 -7.92026725 -75.549631 -12.9953172 -57.4921875 -14.62109375 C-37.50875236 -15.98819633 -16.14375092 -12.71717797 0 0 Z M-68 21.125 C-72.46541644 25.66361998 -73.83902457 28.67012462 -74.25 34.9375 C-74.14310193 40.68861599 -72.3611606 44.69902222 -68.375 48.875 C-60.05588996 55.03805707 -50.11127045 55.13383113 -40.19140625 53.7265625 C-33.47258014 52.15167784 -29.8854441 48.72146536 -26 43.125 C-23.76002234 38.64504469 -24.36517128 32.53492306 -25.61328125 27.796875 C-27.97478989 22.3456392 -31.51255868 19.29729394 -37 17.125 C-47.32063858 14.30537456 -59.50058975 13.66210319 -68 21.125 Z M-74 95.125 C-78.69779379 101.1192176 -78.81036664 107.78105231 -78 115.125 C-76.93557617 120.26654724 -74.05722192 123.65941673 -70.01171875 126.83984375 C-60.50730298 132.91159674 -49.08087469 132.658175 -38.34765625 130.91796875 C-32.3440003 129.49586588 -27.90911498 127.03411498 -23.5625 122.6875 C-19.94500951 116.7548156 -19.15491872 110.95959487 -20 104.125 C-21.7961295 98.25696327 -24.92415799 94.60842098 -30 91.125 C-43.05722807 84.71092305 -63.06236945 84.04230804 -74 95.125 Z " fill="#ffc107" transform="translate(360,180.875)"/>
<path d="M0 0 C25.74 0 51.48 0 78 0 C78 58.08 78 116.16 78 176 C62.82 176 47.64 176 32 176 C32 130.13 32 84.26 32 37 C21.44 37 10.88 37 0 37 C0 24.79 0 12.58 0 0 Z " fill="#ffc107" transform="translate(129,168)"/>
<path d="M0 0 C12.21 0 24.42 0 37 0 C37 16.17 37 32.34 37 49 C53.17 49 69.34 49 86 49 C86 60.88 86 72.76 86 85 C69.83 85 53.66 85 37 85 C37 101.5 37 118 37 135 C24.79 135 12.58 135 0 135 C0 118.5 0 102 0 85 C-15.84 85 -31.68 85 -48 85 C-48 73.12 -48 61.24 -48 49 C-32.16 49 -16.32 49 0 49 C0 32.83 0 16.66 0 0 Z " fill="#ffc107" transform="translate(407,19)"/>
</svg>
