<?xml version="1.0" encoding="UTF-8"?>
<svg version="1.1" xmlns="http://www.w3.org/2000/svg" width="512" height="512">
<path d="M0 0 C1.26507637 -0.00855011 1.26507637 -0.00855011 2.55570984 -0.01727295 C4.33847811 -0.02670597 6.12126368 -0.03325018 7.90405273 -0.03710938 C10.61668697 -0.04680341 13.32855942 -0.07783768 16.04101562 -0.109375 C17.77733928 -0.11590694 19.51366832 -0.12115666 21.25 -0.125 C22.05440018 -0.1373468 22.85880035 -0.1496936 23.68757629 -0.16241455 C24.83863106 -0.1579129 24.83863106 -0.1579129 26.01293945 -0.15332031 C27.01077202 -0.15878876 27.01077202 -0.15878876 28.02876282 -0.16436768 C31.59511831 0.40659058 34.16413293 1.42700145 37.32421875 3.203125 C38.55845918 4.97619077 39.39782411 6.75400239 40.27996349 8.72422314 C41.85557062 12.23762853 43.60379711 15.44780017 46.32421875 18.203125 C51.96523802 20.29855973 57.23802387 20.01020542 63.1796875 19.74609375 C64.81149576 19.73036782 66.44338836 19.72189071 68.07527161 19.72029114 C72.35179706 19.69945482 76.62159519 19.59263275 80.89605713 19.46350098 C87.74372717 19.27271535 94.59414918 19.22022577 101.44393349 19.15551186 C103.82811524 19.1216487 106.20954514 19.05504244 108.59281921 18.98222351 C110.05951006 18.95276539 111.52620998 18.92375502 112.99291992 18.89526367 C114.90411873 18.84072273 114.90411873 18.84072273 116.85392761 18.78507996 C121.77052107 19.37735232 124.79745259 21.57106463 128.13671875 25.140625 C130.52467098 29.28812098 130.44496496 33.69164492 130.421875 38.37890625 C130.41865234 39.53583984 130.41542969 40.69277344 130.41210938 41.88476562 C130.40373047 43.08294922 130.39535156 44.28113281 130.38671875 45.515625 C130.38220703 46.73314453 130.37769531 47.95066406 130.37304688 49.20507812 C130.36128453 52.20447726 130.34484701 55.20377589 130.32421875 58.203125 C131.36255859 57.95973389 131.36255859 57.95973389 132.421875 57.71142578 C135.59082591 57.15643286 138.54486504 57.07356654 141.76171875 57.0703125 C143.59863281 57.06837891 143.59863281 57.06837891 145.47265625 57.06640625 C147.37917969 57.07220703 147.37917969 57.07220703 149.32421875 57.078125 C150.59523438 57.07425781 151.86625 57.07039063 153.17578125 57.06640625 C154.40039062 57.06769531 155.625 57.06898437 156.88671875 57.0703125 C158.00175781 57.07144043 159.11679687 57.07256836 160.265625 57.07373047 C163.07604048 57.19262576 165.58189779 57.61885579 168.32421875 58.203125 C168.314226 57.32441994 168.314226 57.32441994 168.30403137 56.42796326 C168.23748361 50.31197619 168.19233761 44.19609257 168.15942383 38.07983398 C168.14436957 35.79951802 168.12392167 33.51923086 168.09790039 31.23901367 C168.06136981 27.95484291 168.04445836 24.67105615 168.03125 21.38671875 C168.01576614 20.37290634 168.00028229 19.35909393 167.98432922 18.31455994 C167.982968 12.54470586 168.16140568 8.12819748 171.32421875 3.203125 C176.57989741 -0.01972783 181.30800044 -0.22975587 187.36328125 -0.16015625 C188.207164 -0.16065475 189.05104675 -0.16115326 189.92050171 -0.16166687 C191.69377005 -0.15933862 193.46704247 -0.14968435 195.24023438 -0.13305664 C197.94821784 -0.10938375 200.65521995 -0.11251525 203.36328125 -0.11914062 C205.09245376 -0.11356549 206.82162215 -0.10645665 208.55078125 -0.09765625 C209.35609283 -0.09856766 210.16140442 -0.09947906 210.99111938 -0.10041809 C216.76124309 -0.02784202 220.63009443 0.46664757 224.82421875 4.765625 C232.32421875 14.40848214 232.32421875 14.40848214 232.32421875 19.203125 C233.71364182 19.18980133 233.71364182 19.18980133 235.13113403 19.1762085 C243.87060369 19.09598134 252.60994925 19.03511924 261.34970284 18.99587631 C265.84267034 18.97502263 270.33533295 18.94674583 274.828125 18.90136719 C279.16588198 18.85782982 283.50334613 18.8339712 287.84130478 18.82361603 C289.49429813 18.81623877 291.14727588 18.80183253 292.8001442 18.78020477 C295.11987896 18.7510648 297.43841174 18.74717326 299.75830078 18.74902344 C301.07734406 18.74014099 302.39638733 18.73125854 303.75540161 18.72210693 C308.02713821 19.29786702 310.07301739 20.39267591 313.32421875 23.203125 C317.39623455 28.6751954 316.75372937 34.89974034 316.72827148 41.43139648 C316.73856636 43.27389984 316.73856636 43.27389984 316.74906921 45.15362549 C316.76420531 48.51125906 316.76583936 51.86833608 316.76012683 55.2259624 C316.75702958 58.03404359 316.76313338 60.84207486 316.76916558 63.65014893 C316.78319721 70.27730649 316.78166097 76.90433511 316.77026367 83.53149414 C316.75878402 90.35716369 316.77285831 97.18244024 316.79966015 104.00805801 C316.82184664 109.87918081 316.82844791 115.75018052 316.82258373 121.62134224 C316.81921992 125.12316526 316.82159049 128.6247364 316.83883476 132.12652397 C316.85723347 136.03299124 316.84308639 139.93897848 316.82592773 143.84545898 C316.8355957 144.99840958 316.84526367 146.15136017 316.85522461 147.33924866 C316.79548108 153.83688519 316.27658023 157.9554305 312.32421875 163.203125 C308.00027714 166.1490866 304.55936843 166.56465354 299.39453125 166.49609375 C298.10546875 166.48642578 296.81640625 166.47675781 295.48828125 166.46679688 C294.14192089 166.44173688 292.79556672 166.41634212 291.44921875 166.390625 C290.0794417 166.37556004 288.70964873 166.36187482 287.33984375 166.34960938 C284.00089517 166.31433879 280.662762 166.26504396 277.32421875 166.203125 C277.4850293 167.06703857 277.64583984 167.93095215 277.81152344 168.82104492 C280.60581757 187.25407191 278.44625591 206.42392383 273.32421875 224.203125 C274.78444458 224.17955933 274.78444458 224.17955933 276.27416992 224.15551758 C279.89892242 224.10106261 283.52363901 224.06671874 287.14868164 224.03833008 C288.71514982 224.02327878 290.28157611 224.00283293 291.84790039 223.97680664 C294.10443481 223.94026067 296.36041028 223.92336239 298.6171875 223.91015625 C299.31321579 223.89467239 300.00924408 223.87918854 300.72636414 223.86323547 C306.42039771 223.86128149 309.41120326 225.50266679 313.57421875 229.203125 C316.89245435 232.99539426 316.45839547 237.0142124 316.43432617 241.77636719 C316.43486885 243.3711548 316.43545585 244.9659424 316.43608093 246.56072998 C316.43465277 247.4059597 316.4332246 248.25118942 316.43175316 249.12203217 C316.42823158 253.60224907 316.45403892 258.08234069 316.47460938 262.5625 C316.49893117 268.26182542 316.51465874 273.96078621 316.49926758 279.66015625 C316.48758971 284.26753245 316.50504667 288.87400427 316.54171181 293.48123932 C316.55031354 295.23381863 316.54826773 296.9864848 316.53520775 298.73903656 C315.99448354 309.37165731 315.99448354 309.37165731 320.33325195 318.57910156 C321.320271 319.4450293 322.30729004 320.31095703 323.32421875 321.203125 C324.51382305 325.50904021 323.60342831 328.7005478 321.44921875 332.578125 C319.32421875 335.203125 319.32421875 335.203125 317.32421875 337.203125 C317.01848782 339.72483088 317.01848782 339.72483088 317.05078125 342.65625 C317.03015625 343.75066406 317.00953125 344.84507812 316.98828125 345.97265625 C316.96241577 348.2772707 316.94408174 350.58198302 316.93359375 352.88671875 C316.79936759 359.24754715 316.70177243 363.41366129 312.32421875 368.203125 C307.75634534 371.51483323 303.85319073 372.3262503 298.29667664 372.33683777 C297.28318146 372.34110275 296.26968628 372.34536774 295.22547913 372.34976196 C294.11941818 372.34930878 293.01335724 372.34885559 291.8737793 372.34838867 C290.7042572 372.35174728 289.53473511 372.3551059 288.32977295 372.35856628 C284.45681704 372.36807868 280.58390437 372.3700196 276.7109375 372.37109375 C275.37504368 372.37251726 274.03915002 372.37411316 272.70325661 372.37587929 C265.70556839 372.38512872 258.70789921 372.38921478 251.71020508 372.38842773 C245.19711136 372.38782741 238.68410058 372.39837137 232.17102784 372.4141714 C226.57172943 372.42726849 220.97245805 372.4326107 215.37314445 372.43197232 C212.03230883 372.43171792 208.69160553 372.43546226 205.35077477 372.44515038 C201.62139389 372.45495191 197.89222614 372.4520713 194.1628418 372.44604492 C192.51285942 372.45447418 192.51285942 372.45447418 190.82954407 372.46307373 C178.11590415 372.41089214 178.11590415 372.41089214 173.36328125 368.65234375 C172.66332031 367.78029297 172.66332031 367.78029297 171.94921875 366.890625 C171.46710938 366.31699219 170.985 365.74335938 170.48828125 365.15234375 C167.4501886 360.0650678 168.1950218 353.81366574 168.2265625 348.08984375 C168.22868492 346.63551689 168.22868492 346.63551689 168.23085022 345.15180969 C168.23643362 342.06471633 168.24898311 338.97769633 168.26171875 335.890625 C168.26673589 333.79362084 168.27129843 331.69661554 168.27539062 329.59960938 C168.28639763 324.46741979 168.30365087 319.33528482 168.32421875 314.203125 C167.43150269 314.44662186 167.43150269 314.44662186 166.52075195 314.69503784 C163.49347138 315.39528785 160.61729928 315.33304359 157.51171875 315.3359375 C156.53561646 315.33737259 156.53561646 315.33737259 155.53979492 315.33883667 C154.16813052 315.33951518 152.79646286 315.33768387 151.42480469 315.33349609 C149.33130649 315.32814312 147.23802282 315.33345216 145.14453125 315.33984375 C143.80859328 315.33918291 142.47265544 315.33790163 141.13671875 315.3359375 C139.92628906 315.33480957 138.71585938 315.33368164 137.46875 315.33251953 C134.85220959 315.22485133 132.8191096 314.88363037 130.32421875 314.203125 C130.3399292 316.14747437 130.3399292 316.14747437 130.35595703 318.13110352 C130.39227384 322.95985125 130.41516171 327.78858699 130.43408203 332.61743164 C130.44411302 334.70371534 130.45774101 336.78998508 130.47509766 338.8762207 C130.49947369 341.88235938 130.51073111 344.88831145 130.51953125 347.89453125 C130.52985382 348.82084854 130.54017639 349.74716583 130.55081177 350.70155334 C130.55181169 356.52905368 130.54507889 362.39488371 126.7734375 367.1640625 C126.19207031 367.63070313 125.61070312 368.09734375 125.01171875 368.578125 C124.15126953 369.30128906 124.15126953 369.30128906 123.2734375 370.0390625 C119.53796932 372.26986313 115.44711181 372.32910901 111.18315125 372.34356689 C109.66301422 372.35213211 109.66301422 372.35213211 108.11216736 372.36087036 C107.01127274 372.36198822 105.91037811 372.36310608 104.77612305 372.36425781 C103.60806122 372.36922272 102.43999939 372.37418762 101.23654175 372.37930298 C97.37383433 372.39390355 93.51116797 372.40072286 89.6484375 372.40625 C88.31473071 372.40898715 86.98102417 372.41184364 85.64731789 372.41481781 C79.38104617 372.42847998 73.11478744 372.4381531 66.84850186 372.4420197 C59.63109489 372.44649856 52.41387749 372.46404366 45.19652814 372.4930203 C39.60653573 372.51467936 34.0165965 372.52472622 28.42656261 372.52606082 C25.0929087 372.52710577 21.75957479 372.53440699 18.42593956 372.55088043 C14.70398012 372.56796114 10.98248093 372.56605544 7.26049805 372.55957031 C6.16567612 372.5687851 5.07085419 372.57799988 3.94285583 372.5874939 C-2.30533893 372.55344194 -7.01619164 371.92444964 -12.67578125 369.203125 C-16.82680373 364.83922957 -17.79991188 362.22052279 -17.82295227 356.30168152 C-17.83010757 355.04403488 -17.83726288 353.78638824 -17.84463501 352.4906311 C-17.8474754 351.08905054 -17.85018711 349.68746971 -17.8527832 348.28588867 C-17.85904683 346.8158909 -17.86569354 345.34589471 -17.87269592 343.87590027 C-17.89011455 339.87581607 -17.90065996 335.87574383 -17.90890145 331.87563109 C-17.91404963 329.37733931 -17.92012543 326.87905125 -17.92641258 324.3807621 C-17.9454668 316.56660873 -17.95969762 308.75246482 -17.96802455 300.93829268 C-17.97779981 291.91360124 -18.00412573 282.88915488 -18.04452544 273.86454982 C-18.07466903 266.89208776 -18.08949173 259.91969604 -18.09280556 252.94717008 C-18.09515801 248.78134726 -18.10414341 244.6157862 -18.12926674 240.45003319 C-18.15252205 236.53065868 -18.15679118 232.61171875 -18.14650536 228.69229317 C-18.14600926 227.25436331 -18.15235141 225.81641225 -18.1660614 224.37854767 C-18.18374151 222.4142843 -18.1743015 220.4498328 -18.16352844 218.48551941 C-18.1659168 217.38657443 -18.16830515 216.28762945 -18.17076588 215.15538311 C-17.55871741 211.5049161 -16.22102024 209.83990994 -13.67578125 207.203125 C-10.66365096 205.69705985 -7.56295503 206.08152169 -4.26171875 206.10546875 C-3.16725937 206.10759117 -3.16725937 206.10759117 -2.0506897 206.10975647 C0.2826546 206.11535969 2.61590339 206.12791265 4.94921875 206.140625 C6.52994653 206.14563959 8.11067582 206.15020257 9.69140625 206.15429688 C13.56904729 206.16533016 17.44661682 206.18259689 21.32421875 206.203125 C21.08082764 205.17832031 21.08082764 205.17832031 20.83251953 204.1328125 C20.25670582 200.81400148 20.19457571 197.69681336 20.19140625 194.328125 C20.19011719 193.01328125 20.18882813 191.6984375 20.1875 190.34375 C20.18959473 189.66376953 20.19168945 188.98378906 20.19384766 188.28320312 C20.19920213 186.20956101 20.19388798 184.13613545 20.1875 182.0625 C20.18878906 180.74765625 20.19007812 179.4328125 20.19140625 178.078125 C20.19253418 176.87929687 20.19366211 175.68046875 20.19482422 174.4453125 C20.3096059 171.56927333 20.66075884 168.99664043 21.32421875 166.203125 C20.48238037 166.22407227 19.64054199 166.24501953 18.77319336 166.26660156 C15.62170523 166.33515462 12.47059969 166.38510763 9.31860352 166.42285156 C7.95975162 166.44285128 6.60098451 166.47006076 5.24243164 166.50488281 C-9.23276226 166.86636397 -9.23276226 166.86636397 -14.67578125 162.203125 C-17.22293251 157.94926195 -18.05324485 154.79832889 -18.07019043 149.86535645 C-18.08154022 148.61207047 -18.09289001 147.35878448 -18.10458374 146.06752014 C-18.10194083 144.69149716 -18.09896968 143.31547477 -18.09570312 141.93945312 C-18.103048 140.480335 -18.11163545 139.02122268 -18.12136841 137.56211853 C-18.14354599 133.60966601 -18.1465171 129.6574222 -18.1446209 125.704916 C-18.14450105 122.40216049 -18.15307055 119.09944897 -18.16139841 115.79670572 C-18.18061787 108.00457723 -18.18352117 100.21255586 -18.17675781 92.42041016 C-18.17011341 84.38703789 -18.1930005 76.35412435 -18.23007154 68.32084513 C-18.26077203 61.41705128 -18.27212835 54.51340501 -18.26823473 47.60954428 C-18.26616807 43.48899093 -18.27163365 39.36879485 -18.29612732 35.24830627 C-18.31839885 31.37389853 -18.3165141 27.50023711 -18.2961998 23.62582588 C-18.29279071 22.20605959 -18.29787471 20.786243 -18.31218338 19.36654472 C-18.42523815 7.31569332 -18.42523815 7.31569332 -15.3873291 3.37414551 C-10.55523775 -0.49470357 -6.00840565 0.03150629 0 0 Z " fill="#fff" transform="translate(106.67578125,69.796875)"/>
<path d="M0 0 C0.83402344 0.42539063 1.66804687 0.85078125 2.52734375 1.2890625 C14.26945016 8.49708822 18.75666551 25.74861369 21.9140625 38.2109375 C23.15737189 43.49245046 23.95945921 48.56753383 24 54 C24.05607422 55.75957031 24.05607422 55.75957031 24.11328125 57.5546875 C24.23165261 63.54801616 24.16459242 68.34468145 22 74 C21.52949219 73.59007812 21.05898438 73.18015625 20.57421875 72.7578125 C19.95160156 72.21898437 19.32898438 71.68015625 18.6875 71.125 C18.07261719 70.59132813 17.45773437 70.05765625 16.82421875 69.5078125 C14.86501788 67.8359553 14.86501788 67.8359553 12 66 C11.92523438 67.05832031 11.85046875 68.11664063 11.7734375 69.20703125 C10.12232797 77.30413908 1.74560869 81.88194085 -4.78125 86.2734375 C-6.47416863 87.37749365 -8.17211215 88.47388325 -9.875 89.5625 C-10.69532715 90.08739014 -11.5156543 90.61228027 -12.36083984 91.15307617 C-13.14668457 91.6401001 -13.9325293 92.12712402 -14.7421875 92.62890625 C-15.79188721 93.2796814 -15.79188721 93.2796814 -16.86279297 93.94360352 C-19.23061842 95.11399199 -21.40010489 95.59055204 -24 96 C-23.6390625 95.18917969 -23.278125 94.37835938 -22.90625 93.54296875 C-19.31460661 84.97290856 -16.92194571 77.88294244 -20.109375 68.859375 C-23.9809479 60.40852234 -28.33648911 55.48563 -36.75 51.625 C-44.87067685 48.7300155 -51.46389599 48.94379877 -59.3125 52.5625 C-66.7103176 56.65857495 -71.1511743 61.7045106 -74.30078125 69.55859375 C-76.60116932 77.59067501 -75.08741642 84.69288784 -71.7109375 92.1875 C-69.32911922 96.10281772 -66.37033827 98.75550835 -62.79296875 101.57421875 C-62.20128906 102.04472656 -61.60960937 102.51523437 -61 103 C-61 103.33 -61 103.66 -61 104 C-80.59141327 103.20035048 -97.86122759 95.05970005 -113 83 C-109.88078003 87.29569995 -106.44048141 90.23589852 -102.1875 93.3125 C-101.52878906 93.78961426 -100.87007812 94.26672852 -100.19140625 94.75830078 C-79.72543296 109.26638023 -57.84367655 115.62917787 -32.67089844 112.73193359 C-15.22455811 109.75400926 1.73709036 98.69048541 15.00390625 87.50390625 C17 86 17 86 19 86 C16.64003894 103.01138595 1.97784861 120.1374553 -10.9296875 130.30859375 C-33.10464103 146.38407962 -58.37185893 151.90146835 -85.4140625 147.75 C-96.58077283 145.41447888 -106.15780479 140.56602778 -116 135 C-116.69996094 134.72285156 -117.39992187 134.44570313 -118.12109375 134.16015625 C-129.02614373 127.42668464 -133.45618784 107.35127505 -136.203125 95.76171875 C-140.9005772 73.58698116 -136.69322157 50.62345994 -125.1875 31.1875 C-111.22787777 9.74382175 -92.35077428 -4.30623644 -67.6875 -10.875 C-43.6199103 -15.44237214 -21.27262633 -11.46601149 0 0 Z " fill="#ffc107" transform="translate(303,178)"/>
<path d="M0 0 C1.12775345 0.00212242 1.12775345 0.00212242 2.27828979 0.00428772 C4.6829626 0.0098916 7.08754277 0.02244468 9.4921875 0.03515625 C11.12109241 0.04017075 12.74999877 0.04473375 14.37890625 0.04882812 C18.37503577 0.05986228 22.37109592 0.07712946 26.3671875 0.09765625 C26.63128418 1.16781982 26.89538086 2.2379834 27.16748047 3.34057617 C27.52303566 4.77394471 27.87867149 6.20729326 28.234375 7.640625 C28.40735107 8.34247925 28.58032715 9.0443335 28.75854492 9.76745605 C33.71726263 29.71162575 41.97003456 47.41268181 55.3671875 63.09765625 C56.18445313 64.08894531 57.00171875 65.08023438 57.84375 66.1015625 C76.27205073 87.45278102 100.67893114 98.71183647 127.3671875 106.09765625 C129.70083351 106.76322757 132.03420727 107.42975496 134.3671875 108.09765625 C134.41678361 114.23574661 134.45299999 120.37371918 134.47705078 126.51196289 C134.48708177 128.59824659 134.50070976 130.68451633 134.51806641 132.77075195 C134.54244244 135.77689063 134.55369986 138.7828427 134.5625 141.7890625 C134.57282257 142.71537979 134.58314514 143.64169708 134.59378052 144.59608459 C134.59478044 150.42358493 134.58804764 156.28941496 130.81640625 161.05859375 C129.94435547 161.75855469 129.94435547 161.75855469 129.0546875 162.47265625 C128.19423828 163.19582031 128.19423828 163.19582031 127.31640625 163.93359375 C123.58093807 166.16439438 119.49008056 166.22364026 115.22612 166.23809814 C114.21269531 166.24380829 113.19927063 166.24951843 112.15513611 166.25540161 C111.05424149 166.25651947 109.95334686 166.25763733 108.8190918 166.25878906 C107.65102997 166.26375397 106.48296814 166.26871887 105.2795105 166.27383423 C101.41680308 166.2884348 97.55413672 166.29525411 93.69140625 166.30078125 C92.35769946 166.3035184 91.02399292 166.30637489 89.69028664 166.30934906 C83.42401492 166.32301123 77.15775619 166.33268435 70.89147061 166.33655095 C63.67406364 166.34102981 56.45684624 166.35857491 49.23949689 166.38755155 C43.64950448 166.40921061 38.05956525 166.41925747 32.46953136 166.42059207 C29.13587745 166.42163702 25.80254354 166.42893824 22.46890831 166.44541168 C18.74694887 166.46249239 15.02544968 166.46058669 11.3034668 166.45410156 C10.20864487 166.46331635 9.11382294 166.47253113 7.98582458 166.48202515 C1.73762982 166.44797319 -2.97322289 165.81898089 -8.6328125 163.09765625 C-12.78383498 158.73376082 -13.75694313 156.11505404 -13.77998352 150.19621277 C-13.78713882 148.93856613 -13.79429413 147.68091949 -13.80166626 146.38516235 C-13.80450665 144.98358179 -13.80721836 143.58200096 -13.80981445 142.18041992 C-13.81607808 140.71042215 -13.82272479 139.24042596 -13.82972717 137.77043152 C-13.8471458 133.77034732 -13.85769121 129.77027508 -13.8659327 125.77016234 C-13.87108088 123.27187056 -13.87715668 120.7735825 -13.88344383 118.27529335 C-13.90249805 110.46113998 -13.91672887 102.64699607 -13.9250558 94.83282393 C-13.93483106 85.80813249 -13.96115698 76.78368613 -14.00155669 67.75908107 C-14.03170028 60.78661901 -14.04652298 53.81422729 -14.04983681 46.84170133 C-14.05218926 42.67587851 -14.06117466 38.51031745 -14.08629799 34.34456444 C-14.1095533 30.42518993 -14.11382243 26.50625 -14.10353661 22.58682442 C-14.10304051 21.14889456 -14.10938266 19.7109435 -14.12309265 18.27307892 C-14.14077276 16.30881555 -14.13133275 14.34436405 -14.12055969 12.38005066 C-14.12294805 11.28110568 -14.1253364 10.1821607 -14.12779713 9.04991436 C-13.51574866 5.39944735 -12.17805149 3.73444119 -9.6328125 1.09765625 C-6.56686656 -0.43531672 -3.36169397 -0.0236583 0 0 Z " fill="#ffc107" transform="translate(102.6328125,275.90234375)"/>
<path d="M0 0 C4.75053511 -0.07435222 9.50072887 -0.12869691 14.25170898 -0.16479492 C15.86667789 -0.17984876 17.48160613 -0.20029648 19.09643555 -0.22631836 C21.42246555 -0.26285286 23.74795341 -0.27976015 26.07421875 -0.29296875 C27.15107185 -0.31619453 27.15107185 -0.31619453 28.24967957 -0.33988953 C34.0248596 -0.34181303 37.02639843 1.24568749 41.25 5 C44.5682356 8.79226926 44.13417672 12.8110874 44.11010742 17.57324219 C44.1106501 19.1680298 44.1112371 20.7628174 44.11186218 22.35760498 C44.11043402 23.2028347 44.10900585 24.04806442 44.10753441 24.91890717 C44.10401283 29.39912407 44.12982017 33.87921569 44.15039062 38.359375 C44.17471242 44.05870042 44.19043999 49.75766121 44.17504883 55.45703125 C44.16337096 60.06440745 44.18082792 64.67087927 44.21749306 69.27811432 C44.22609479 71.03069363 44.22404898 72.7833598 44.210989 74.53591156 C43.67026479 85.16853231 43.67026479 85.16853231 48.0090332 94.37597656 C48.99605225 95.2419043 49.98307129 96.10783203 51 97 C52.1896043 101.30591521 51.27920956 104.4974228 49.125 108.375 C47 111 47 111 45 113 C44.69426907 115.52170588 44.69426907 115.52170588 44.7265625 118.453125 C44.7059375 119.54753906 44.6853125 120.64195312 44.6640625 121.76953125 C44.63819702 124.0741457 44.61986299 126.37885802 44.609375 128.68359375 C44.47514884 135.04442215 44.37755368 139.21053629 40 144 C35.43212659 147.31170823 31.52897198 148.1231253 25.97245789 148.13371277 C24.95896271 148.13797775 23.94546753 148.14224274 22.90126038 148.14663696 C21.79519943 148.14618378 20.68913849 148.14573059 19.54956055 148.14526367 C18.38003845 148.14862228 17.21051636 148.1519809 16.0055542 148.15544128 C12.13259829 148.16495368 8.25968562 148.1668946 4.38671875 148.16796875 C3.05082493 148.16939226 1.71493127 148.17098816 0.37903786 148.17275429 C-6.61865036 148.18200372 -13.61631954 148.18608978 -20.61401367 148.18530273 C-27.12710739 148.18470241 -33.64011817 148.19524637 -40.15319091 148.2110464 C-45.75248932 148.22414349 -51.3517607 148.2294857 -56.9510743 148.22884732 C-60.29190992 148.22859292 -63.63261322 148.23233726 -66.97344398 148.24202538 C-70.70282486 148.25182691 -74.43199261 148.2489463 -78.16137695 148.24291992 C-79.81135933 148.25134918 -79.81135933 148.25134918 -81.49467468 148.25994873 C-94.2083146 148.20776714 -94.2083146 148.20776714 -98.9609375 144.44921875 C-99.66089844 143.57716797 -99.66089844 143.57716797 -100.375 142.6875 C-100.85710937 142.11386719 -101.33921875 141.54023438 -101.8359375 140.94921875 C-104.87403015 135.8619428 -104.12919695 129.61054074 -104.09765625 123.88671875 C-104.0962413 122.91716751 -104.09482635 121.94761627 -104.09336853 120.94868469 C-104.08778513 117.86159133 -104.07523564 114.77457133 -104.0625 111.6875 C-104.05748286 109.59049584 -104.05292032 107.49349054 -104.04882812 105.39648438 C-104.03782112 100.26429479 -104.02056788 95.13215982 -104 90 C-101.04090047 88.4533123 -98.75454543 87.72247191 -95.4375 87.3125 C-78.72377708 84.43390153 -61.34970035 76.41927832 -48 66 C-44.31930113 67.53643852 -42.01224796 69.78150945 -39.25 72.625 C-38.45078125 73.44226563 -37.6515625 74.25953125 -36.828125 75.1015625 C-36.22484375 75.72804688 -35.6215625 76.35453125 -35 77 C-29.00499003 72.03805145 -23.53572963 66.6523376 -18.0625 61.125 C-17.18787109 60.24585938 -16.31324219 59.36671875 -15.41210938 58.4609375 C-13.27242952 56.3095654 -11.13513403 54.15588208 -9 52 C-11.02490076 47.66697191 -13.8821065 45.17051046 -17.41796875 42 C-19 40 -19 40 -18.99609375 38.16796875 C-17.56060893 35.04367826 -15.72232212 32.20289112 -13.875 29.3125 C-9.5486008 22.3581496 -6.37199626 15.2022025 -3.41015625 7.58203125 C-2.3737669 4.94943005 -1.28683493 2.50648571 0 0 Z " fill="#ffc107" transform="translate(379,294)"/>
<path d="M0 0 C0.84388275 -0.0004985 1.6877655 -0.00099701 2.55722046 -0.00151062 C4.3304888 0.00081763 6.10376122 0.0104719 7.87695312 0.02709961 C10.58493659 0.0507725 13.2919387 0.047641 16 0.04101562 C17.72917251 0.04659076 19.4583409 0.0536996 21.1875 0.0625 C21.99281158 0.06158859 22.79812317 0.06067719 23.62783813 0.05973816 C29.39796184 0.13231423 33.26681318 0.62680382 37.4609375 4.92578125 C44.9609375 14.56863839 44.9609375 14.56863839 44.9609375 19.36328125 C46.35036057 19.34995758 46.35036057 19.34995758 47.76785278 19.33636475 C56.50732244 19.25613759 65.246668 19.19527549 73.98642159 19.15603256 C78.47938909 19.13517888 82.9720517 19.10690208 87.46484375 19.06152344 C91.80260073 19.01798607 96.14006488 18.99412745 100.47802353 18.98377228 C102.13101688 18.97639502 103.78399463 18.96198878 105.43686295 18.94036102 C107.75659771 18.91122105 110.07513049 18.90732951 112.39501953 18.90917969 C113.71406281 18.90029724 115.03310608 18.89141479 116.39212036 18.88226318 C120.66385696 19.45802327 122.70973614 20.55283216 125.9609375 23.36328125 C130.0329533 28.83535165 129.39044812 35.05989659 129.36499023 41.59155273 C129.37185349 42.81988831 129.37871674 44.04822388 129.38578796 45.31378174 C129.40092406 48.67141531 129.40255811 52.02849233 129.39684558 55.38611865 C129.39374833 58.19419984 129.39985213 61.00223111 129.40588433 63.81030518 C129.41991596 70.43746274 129.41837972 77.06449136 129.40698242 83.69165039 C129.39550277 90.51731994 129.40957706 97.34259649 129.4363789 104.16821426 C129.45856539 110.03933706 129.46516666 115.91033677 129.45930248 121.78149849 C129.45593867 125.28332151 129.45830924 128.78489265 129.47555351 132.28668022 C129.49395222 136.19314749 129.47980514 140.09913473 129.46264648 144.00561523 C129.47714844 145.73504112 129.47714844 145.73504112 129.49194336 147.49940491 C129.43219671 153.99738108 128.91235443 158.11474975 124.9609375 163.36328125 C120.57718418 166.3645602 117.05381033 166.72344629 111.8125 166.65625 C110.82641251 166.64988274 110.82641251 166.64988274 109.82040405 166.64338684 C107.74181359 166.62673102 105.66422976 166.58910745 103.5859375 166.55078125 C102.16798286 166.5357173 100.75001286 166.5220319 99.33203125 166.50976562 C95.8746786 166.47687163 92.41790647 166.4251829 88.9609375 166.36328125 C88.6928125 165.13996094 88.4246875 163.91664063 88.1484375 162.65625 C80.31069651 128.37814371 62.05560584 98.0965711 32.01171875 78.82421875 C17.14737144 69.65449217 0.82703324 63.20153928 -16.32641602 59.78857422 C-18.0390625 59.36328125 -18.0390625 59.36328125 -19.0390625 58.36328125 C-19.14772545 56.89675645 -19.18808924 55.42508502 -19.20019531 53.95458984 C-19.20980286 53.01626312 -19.2194104 52.0779364 -19.22930908 51.11117554 C-19.23355896 50.0883548 -19.23780884 49.06553406 -19.2421875 48.01171875 C-19.25073761 46.44062851 -19.25073761 46.44062851 -19.25946045 44.83779907 C-19.26893032 42.61339331 -19.27545227 40.38897338 -19.27929688 38.16455078 C-19.28896209 34.77350976 -19.31995035 31.38308505 -19.3515625 27.9921875 C-19.35809633 25.83203485 -19.36334531 23.67187786 -19.3671875 21.51171875 C-19.3795343 20.5010434 -19.3918811 19.49036804 -19.40460205 18.44906616 C-19.38655921 12.69406489 -19.18877803 8.27719047 -16.0390625 3.36328125 C-10.78338384 0.14042842 -6.05528081 -0.06959962 0 0 Z " fill="#ffc107" transform="translate(294.0390625,69.63671875)"/>
<path d="M0 0 C1.26507637 -0.00855011 1.26507637 -0.00855011 2.55570984 -0.01727295 C4.33847811 -0.02670597 6.12126368 -0.03325018 7.90405273 -0.03710938 C10.61668697 -0.04680341 13.32855942 -0.07783768 16.04101562 -0.109375 C17.77733928 -0.11590694 19.51366832 -0.12115666 21.25 -0.125 C22.05440018 -0.1373468 22.85880035 -0.1496936 23.68757629 -0.16241455 C24.83863106 -0.1579129 24.83863106 -0.1579129 26.01293945 -0.15332031 C27.01077202 -0.15878876 27.01077202 -0.15878876 28.02876282 -0.16436768 C31.59511831 0.40659058 34.16413293 1.42700145 37.32421875 3.203125 C38.55845918 4.97619077 39.39782411 6.75400239 40.27996349 8.72422314 C41.85557062 12.23762853 43.60379711 15.44780017 46.32421875 18.203125 C51.96523802 20.29855973 57.23802387 20.01020542 63.1796875 19.74609375 C64.81149576 19.73036782 66.44338836 19.72189071 68.07527161 19.72029114 C72.35179706 19.69945482 76.62159519 19.59263275 80.89605713 19.46350098 C87.74372717 19.27271535 94.59414918 19.22022577 101.44393349 19.15551186 C103.82811524 19.1216487 106.20954514 19.05504244 108.59281921 18.98222351 C110.05951006 18.95276539 111.52620998 18.92375502 112.99291992 18.89526367 C114.90411873 18.84072273 114.90411873 18.84072273 116.85392761 18.78507996 C121.77052107 19.37735232 124.79745259 21.57106463 128.13671875 25.140625 C130.52467098 29.28812098 130.44496496 33.69164492 130.421875 38.37890625 C130.41865234 39.53583984 130.41542969 40.69277344 130.41210938 41.88476562 C130.40373047 43.08294922 130.39535156 44.28113281 130.38671875 45.515625 C130.38220703 46.73314453 130.37769531 47.95066406 130.37304688 49.20507812 C130.36128453 52.20447726 130.34484701 55.20377589 130.32421875 58.203125 C125.01045345 60.03998214 119.734771 61.64502232 114.26171875 62.953125 C95.55165864 67.76149625 78.77717257 77.52353974 64.32421875 90.203125 C63.48375 90.89921875 62.64328125 91.5953125 61.77734375 92.3125 C40.49694736 110.42066338 26.6213212 138.81707724 22.32421875 166.203125 C18.17999614 166.30266291 14.036423 166.37490401 9.89135742 166.42285156 C8.48400741 166.44285746 7.07673937 166.47007162 5.66967773 166.50488281 C-9.29539162 166.86561472 -9.29539162 166.86561472 -14.67578125 162.203125 C-17.22073282 157.94789083 -18.05324331 154.79877498 -18.07019043 149.86535645 C-18.08154022 148.61207047 -18.09289001 147.35878448 -18.10458374 146.06752014 C-18.10194083 144.69149716 -18.09896968 143.31547477 -18.09570312 141.93945312 C-18.103048 140.480335 -18.11163545 139.02122268 -18.12136841 137.56211853 C-18.14354599 133.60966601 -18.1465171 129.6574222 -18.1446209 125.704916 C-18.14450105 122.40216049 -18.15307055 119.09944897 -18.16139841 115.79670572 C-18.18061787 108.00457723 -18.18352117 100.21255586 -18.17675781 92.42041016 C-18.17011341 84.38703789 -18.1930005 76.35412435 -18.23007154 68.32084513 C-18.26077203 61.41705128 -18.27212835 54.51340501 -18.26823473 47.60954428 C-18.26616807 43.48899093 -18.27163365 39.36879485 -18.29612732 35.24830627 C-18.31839885 31.37389853 -18.3165141 27.50023711 -18.2961998 23.62582588 C-18.29279071 22.20605959 -18.29787471 20.786243 -18.31218338 19.36654472 C-18.42523815 7.31569332 -18.42523815 7.31569332 -15.3873291 3.37414551 C-10.55523775 -0.49470357 -6.00840565 0.03150629 0 0 Z " fill="#ffc107" transform="translate(106.67578125,69.796875)"/>
<path d="M0 0 C18.66928553 12.514017 29.75725894 33.51032733 34.6875 54.99609375 C39.05040932 77.81047373 33.8499349 102.87544968 21.17285156 122.29589844 C6.68741168 143.34260335 -13.86086848 156.05406147 -38.47265625 161.8125 C-62.77372938 166.14875097 -86.42194892 160.30796118 -107 147 C-114.5525825 141.58611049 -122.66789045 135.40938913 -127 127 C-125.00462739 127.99545497 -123.01129193 128.99425359 -121.02392578 130.00561523 C-110.8121469 135.17867165 -101.43249089 139.42504431 -90 141 C-88.72382813 141.17917969 -87.44765625 141.35835937 -86.1328125 141.54296875 C-68.13824442 143.71542881 -51.32854884 140.89867568 -35 133 C-34.07832031 132.55914062 -33.15664063 132.11828125 -32.20703125 131.6640625 C-10.81477137 120.74163926 2.61661499 102.00106624 11 80 C10.030625 80.76183594 9.06125 81.52367187 8.0625 82.30859375 C-5.29380215 92.65812947 -18.68706115 101.16437884 -35 106 C-36.82337891 106.54720703 -36.82337891 106.54720703 -38.68359375 107.10546875 C-61.05031164 112.52487054 -81.97710044 105.26260819 -101.1015625 94.20703125 C-109.28079273 89.17277264 -117.15409169 83.69689067 -123 76 C-120.28523676 77.30855494 -117.75692426 78.74369264 -115.234375 80.390625 C-101.41491719 89.24606775 -86.86655101 97 -70 97 C-70.51949219 96.61070312 -71.03898437 96.22140625 -71.57421875 95.8203125 C-78.26378502 90.45382126 -83.12961199 83.42324317 -84.30859375 74.72265625 C-84.74154616 65.78809288 -81.97538058 58.63377694 -76.13671875 51.828125 C-70.26838124 46.32435355 -63.78622044 42.87967152 -55.6875 42.4375 C-47.69698501 42.7737068 -40.0296533 45.75326764 -34.0625 51.125 C-28.22179757 57.73873658 -25.1567413 65.45599837 -25.5625 74.28125 C-26.41574989 79.5835886 -28.61696945 84.2339389 -31 89 C-25.32057064 87.49635523 -20.98762236 84.63401463 -16.1875 81.375 C-15.39085937 80.83593018 -14.59421875 80.29686035 -13.7734375 79.74145508 C-3.06528157 73.11775416 -3.06528157 73.11775416 3.5625 63 C3.706875 62.01 3.85125 61.02 4 60 C7.81684226 61.55500981 10.19195732 64.03595495 13 67 C19.57860538 52.92909404 13.80749826 32.2622014 8.73046875 18.234375 C6.77811611 13.21371628 4.23107542 8.7237539 1.3203125 4.1875 C0 2 0 2 0 0 Z " fill="#ffc107" transform="translate(311,184)"/>
<path d="M0 0 C5.39352027 2.37512819 9.58053964 6.23588926 13 11 C13.46168549 13.72517012 13.37208101 15.8245975 12.92578125 18.54296875 C13.13962506 25.62232446 21.36155342 31.64948718 26 36.265625 C26.87269531 37.14023376 27.74539063 38.01484253 28.64453125 38.91595459 C30.48452107 40.75730169 32.32702419 42.59614035 34.171875 44.43261719 C36.06098499 46.31455169 37.9471871 48.19882378 39.828125 50.08886719 C42.54675632 52.81983866 45.27220437 55.54381027 48 58.265625 C48.84175781 59.11143127 49.68351562 59.95723755 50.55078125 60.82867432 C51.33839844 61.60998718 52.12601562 62.39130005 52.9375 63.19628906 C53.97197266 64.22837494 53.97197266 64.22837494 55.02734375 65.28131104 C58.14462167 67.99725871 60.89901659 69.41015803 65.0625 69.28515625 C72.13664044 68.30086499 76.38632235 62.41625997 81 57.4375 C81.96026721 56.42845783 82.92249299 55.42127574 83.88671875 54.41601562 C85.63542103 52.59122858 87.37472389 50.75735591 89.1015625 48.91186523 C89.72804688 48.28094971 90.35453125 47.65003418 91 47 C91.33 47 91.66 47 92 47 C92.11662261 51.04142215 92.1873935 55.08240865 92.25 59.125 C92.28351563 60.26710938 92.31703125 61.40921875 92.3515625 62.5859375 C92.42637854 69.02011668 92.47116952 73.17799054 88 78 C83.43212659 81.31170823 79.52897198 82.1231253 73.97245789 82.13371277 C72.95896271 82.13797775 71.94546753 82.14224274 70.90126038 82.14663696 C69.79519943 82.14618378 68.68913849 82.14573059 67.54956055 82.14526367 C66.38003845 82.14862228 65.21051636 82.1519809 64.0055542 82.15544128 C60.13259829 82.16495368 56.25968562 82.1668946 52.38671875 82.16796875 C51.05082493 82.16939226 49.71493127 82.17098816 48.37903786 82.17275429 C41.38134964 82.18200372 34.38368046 82.18608978 27.38598633 82.18530273 C20.87289261 82.18470241 14.35988183 82.19524637 7.84680909 82.2110464 C2.24751068 82.22414349 -3.3517607 82.2294857 -8.9510743 82.22884732 C-12.29190992 82.22859292 -15.63261322 82.23233726 -18.97344398 82.24202538 C-22.70282486 82.25182691 -26.43199261 82.2489463 -30.16137695 82.24291992 C-31.81135933 82.25134918 -31.81135933 82.25134918 -33.49467468 82.25994873 C-46.2083146 82.20776714 -46.2083146 82.20776714 -50.9609375 78.44921875 C-51.42757813 77.86785156 -51.89421875 77.28648437 -52.375 76.6875 C-52.85710937 76.11386719 -53.33921875 75.54023438 -53.8359375 74.94921875 C-56.87403015 69.8619428 -56.12919695 63.61054074 -56.09765625 57.88671875 C-56.0962413 56.91716751 -56.09482635 55.94761627 -56.09336853 54.94868469 C-56.08778513 51.86159133 -56.07523564 48.77457133 -56.0625 45.6875 C-56.05748286 43.59049584 -56.05292032 41.49349054 -56.04882812 39.39648438 C-56.03782112 34.26429479 -56.02056788 29.13215982 -56 24 C-53.04090047 22.4533123 -50.75454543 21.72247191 -47.4375 21.3125 C-30.72377708 18.43390153 -13.34970035 10.41927832 0 0 Z " fill="#ffc107" transform="translate(331,360)"/>
<path d="M0 0 C1.55063065 1.32289776 3.09269456 2.65591893 4.625 4 C5.37007812 4.60199219 6.11515625 5.20398438 6.8828125 5.82421875 C24.85641172 20.76046758 37.19517461 44.80839924 39.625 68 C40.95792978 96.64347326 35.81263771 123.64780409 16.625 146 C15.93535156 146.82242188 15.24570312 147.64484375 14.53515625 148.4921875 C-1.08078494 166.55069243 -24.34896982 179.79240151 -48.375 182 C-72.33442582 183.27615551 -91.50533145 180.8766636 -112.375 169 C-113.35855469 168.45601562 -114.34210938 167.91203125 -115.35546875 167.3515625 C-135.38275829 155.50280534 -149.99960851 135.94128036 -157.8125 114.25 C-158.04735107 113.60208496 -158.28220215 112.95416992 -158.52416992 112.28662109 C-166.59592401 88.3134218 -164.645408 60.14496668 -153.5625 37.5625 C-140.56648723 12.68424404 -120.35575644 -6.76000065 -93.45703125 -15.78125 C-62.16667116 -25.48508026 -26.00812321 -20.43781639 0 0 Z M-129.375 20 C-145.39712155 39.02810405 -154.14767141 63.01377439 -152.375 88 C-149.72598587 113.20007772 -138.16771317 136.56001823 -118.28125 152.69921875 C-97.88016615 167.83002261 -73.23520023 174.86407063 -48.00732422 171.22827148 C-22.85335865 167.06090393 -1.3186283 153.67543094 13.625 133 C26.92408633 113.39890761 32.57106207 88.49895054 28.5 65.125 C23.9933814 42.18372897 11.21642974 20.22984479 -8.375 7 C-16.9683894 1.5370596 -25.65806799 -2.83299994 -35.375 -6 C-36.29539062 -6.3196875 -37.21578125 -6.639375 -38.1640625 -6.96875 C-70.87306921 -16.49050936 -106.55175621 -4.17975159 -129.375 20 Z " fill="#5A5B5C" transform="translate(317.375,175)"/>
<path d="M0 0 C4.46346651 0.73219234 8.88651895 1.56526271 13.3125 2.5 C14.54613281 2.7578125 15.77976563 3.015625 17.05078125 3.28125 C20 4 20 4 21 5 C21.10307765 6.3440912 21.13848767 7.69348305 21.14526367 9.04150391 C21.15164352 9.89974762 21.15802338 10.75799133 21.16459656 11.64224243 C21.16626579 13.04523087 21.16626579 13.04523087 21.16796875 14.4765625 C21.17129715 15.43517181 21.17462555 16.39378113 21.17805481 17.38143921 C21.18313074 19.41753661 21.18546293 21.45364237 21.18530273 23.48974609 C21.18747615 26.59096258 21.20558844 29.6918159 21.22460938 32.79296875 C21.22754585 34.77083212 21.22952895 36.74869718 21.23046875 38.7265625 C21.23765427 39.64974274 21.24483978 40.57292297 21.25224304 41.52407837 C21.23186153 47.33490949 21.20819243 53.20777682 17.44921875 57.9609375 C16.86785156 58.42757812 16.28648437 58.89421875 15.6875 59.375 C15.11386719 59.85710937 14.54023438 60.33921875 13.94921875 60.8359375 C10.21375057 63.06673813 6.12289306 63.12598401 1.8589325 63.14044189 C0.84550781 63.14615204 -0.16791687 63.15186218 -1.21205139 63.15774536 C-2.31294601 63.15886322 -3.41384064 63.15998108 -4.5480957 63.16113281 C-5.71615753 63.16609772 -6.88421936 63.17106262 -8.087677 63.17617798 C-11.95038442 63.19077855 -15.81305078 63.19759786 -19.67578125 63.203125 C-21.00948804 63.20586215 -22.34319458 63.20871864 -23.67690086 63.21169281 C-29.94317258 63.22535498 -36.20943131 63.2350281 -42.47571689 63.2388947 C-49.69312386 63.24337356 -56.91034126 63.26091866 -64.12769061 63.2898953 C-69.71768302 63.31155436 -75.30762225 63.32160122 -80.89765614 63.32293582 C-84.23131005 63.32398077 -87.56464396 63.33128199 -90.89827919 63.34775543 C-94.62023863 63.36483614 -98.34173782 63.36293044 -102.0637207 63.35644531 C-103.15854263 63.3656601 -104.25336456 63.37487488 -105.38136292 63.3843689 C-111.62955768 63.35031694 -116.34041039 62.72132464 -122 60 C-126.0615263 55.7301903 -127.12991113 53.17235676 -127.0625 47.375 C-127.05347656 46.37210937 -127.04445313 45.36921875 -127.03515625 44.3359375 C-127.02355469 43.56507813 -127.01195313 42.79421875 -127 42 C-126.11154672 41.99641747 -126.11154672 41.99641747 -125.20514488 41.99276257 C-110.78241974 41.93358513 -96.35984904 41.85801753 -81.93730736 41.76428509 C-74.96261482 41.71935022 -67.98797308 41.67993031 -61.01318359 41.65356445 C-54.28278469 41.62810685 -47.55264237 41.58718671 -40.82237625 41.53681374 C-38.2539819 41.52012208 -35.68554841 41.50862216 -33.11710739 41.50238609 C-29.52102674 41.49277038 -25.92552767 41.46473978 -22.32958984 41.43237305 C-21.26647583 41.43380814 -20.20336182 41.43524323 -19.10803223 41.4367218 C-13.67510241 41.36751569 -9.65252662 41.13461848 -5 38 C-1.16032183 33.54176942 -0.48355073 30.22192042 -0.390625 24.4140625 C-0.37408875 23.71227875 -0.35755249 23.010495 -0.34051514 22.28744507 C-0.2922931 20.06653878 -0.27072393 17.84631572 -0.25 15.625 C-0.22181839 14.11064318 -0.1918879 12.59631784 -0.16015625 11.08203125 C-0.08654432 7.38816814 -0.03681106 3.69443419 0 0 Z " fill="#F79219" transform="translate(216,379)"/>
<path d="M0 0 C4.75053511 -0.07435222 9.50072887 -0.12869691 14.25170898 -0.16479492 C15.86667789 -0.17984876 17.48160613 -0.20029648 19.09643555 -0.22631836 C21.42246555 -0.26285286 23.74795341 -0.27976015 26.07421875 -0.29296875 C27.15107185 -0.31619453 27.15107185 -0.31619453 28.24967957 -0.33988953 C34.0248596 -0.34181303 37.02639843 1.24568749 41.25 5 C44.58939921 8.81645625 44.13689685 12.89160642 44.11352539 17.68432617 C44.11367142 18.4650499 44.11381744 19.24577362 44.1139679 20.05015564 C44.11327114 22.63112159 44.10548982 25.2120154 44.09765625 27.79296875 C44.09579123 29.58230042 44.09436772 31.3716326 44.09336853 33.16096497 C44.08954999 37.87097584 44.07972533 42.58095589 44.06866455 47.29095459 C44.05843621 52.09696028 44.05386786 56.90297094 44.04882812 61.70898438 C44.03810249 71.13933646 44.02103399 80.56966567 44 90 C38.88325771 85.72511753 34.1286398 81.23800876 29.45703125 76.484375 C28.03984539 75.05455681 26.62252373 73.6248732 25.20507812 72.1953125 C22.99782551 69.96315401 20.79221901 67.72941392 18.58911133 65.49316406 C16.44529161 63.31918983 14.29533362 61.15143805 12.14453125 58.984375 C11.15849663 57.97815094 11.15849663 57.97815094 10.15254211 56.95159912 C9.53477402 56.33045227 8.91700592 55.70930542 8.28051758 55.06933594 C7.7420369 54.52339783 7.20355621 53.97745972 6.64875793 53.41497803 C4.85173952 51.8727616 3.19054548 50.89360804 1 50 C-1.00934445 50.3843736 -1.00934445 50.3843736 -3.0625 51.0625 C-6.86336754 51.64627264 -7.87990667 51.0875075 -11.06640625 48.765625 C-12.10518037 47.80157809 -13.12466419 46.81637568 -14.125 45.8125 C-14.62265869 45.3182251 -15.12031738 44.8239502 -15.63305664 44.31469727 C-18.97725297 40.70800142 -18.97725297 40.70800142 -19.0625 38.0546875 C-17.49952553 35.03217068 -15.70546605 32.17651747 -13.875 29.3125 C-9.5486008 22.3581496 -6.37199626 15.2022025 -3.41015625 7.58203125 C-2.3737669 4.94943005 -1.28683493 2.50648571 0 0 Z " fill="#ffc107" transform="translate(379,294)"/>
<path d="M0 0 C1.76019124 -0.04404242 3.52070119 -0.07546968 5.28125 -0.1015625 C6.26158203 -0.12041504 7.24191406 -0.13926758 8.25195312 -0.15869141 C12.19133372 0.06879592 14.16546794 1.30719454 17 4 C20.91335599 9.72049472 20.43003996 15.56080421 20.40405273 22.22827148 C20.41091599 23.45660706 20.41777924 24.68494263 20.42485046 25.95050049 C20.43998656 29.30813406 20.44162061 32.66521108 20.43590808 36.0228374 C20.43281083 38.83091859 20.43891463 41.63894986 20.44494683 44.44702393 C20.45897846 51.07418149 20.45744222 57.70121011 20.44604492 64.32836914 C20.43456527 71.15403869 20.44863956 77.97931524 20.4754414 84.80493301 C20.49762789 90.67605581 20.50422916 96.54705552 20.49836498 102.41821724 C20.49500117 105.92004026 20.49737174 109.4216114 20.51461601 112.92339897 C20.53301472 116.82986624 20.51886764 120.73585348 20.50170898 124.64233398 C20.51137695 125.79528458 20.52104492 126.94823517 20.53100586 128.13612366 C20.47125921 134.63409983 19.95141693 138.7514685 16 144 C11.61624668 147.00127895 8.09287283 147.36016504 2.8515625 147.29296875 C2.19417084 147.28872391 1.53677917 147.28447906 0.85946655 147.28010559 C-1.21912391 147.26344977 -3.29670774 147.2258262 -5.375 147.1875 C-6.79295464 147.17243605 -8.21092464 147.15875065 -9.62890625 147.14648438 C-13.0862589 147.11359038 -16.54303103 147.06190165 -20 147 C-20.67076489 144.23010036 -21.33676317 141.45920258 -22 138.6875 C-22.19078125 137.90181641 -22.3815625 137.11613281 -22.578125 136.30664062 C-22.75859375 135.54931641 -22.9390625 134.79199219 -23.125 134.01171875 C-23.29257812 133.31522217 -23.46015625 132.61872559 -23.6328125 131.90112305 C-24 130 -24 130 -24 127 C-23.14277344 126.97421875 -22.28554688 126.9484375 -21.40234375 126.921875 C-11.99102719 126.47694881 -11.99102719 126.47694881 -4 122 C-0.25585547 116.4802137 -0.55895349 111.09571224 -0.56762695 104.67041016 C-0.5574353 103.53811981 -0.54724365 102.40582947 -0.53674316 101.23922729 C-0.50660828 97.50578872 -0.49734614 93.77260673 -0.48828125 90.0390625 C-0.471435 87.44688056 -0.45328483 84.8547068 -0.43388367 82.26254272 C-0.3912252 76.14287488 -0.36169402 70.02327336 -0.33856028 63.90350473 C-0.31147771 56.93364933 -0.26756818 49.96393136 -0.22227156 42.99417424 C-0.12950762 28.66286015 -0.05778921 14.33149566 0 0 Z " fill="#F79219" transform="translate(403,89)"/>
<path d="M0 0 C0.66128906 0.43699219 1.32257813 0.87398437 2.00390625 1.32421875 C3.34107484 2.20842536 4.67171188 3.10250803 6 4 C5.32420024 11.29863744 2.09462602 14.58777286 -3.37890625 19.26171875 C-7.69789725 22.62811917 -12.26457508 25.61373162 -16.875 28.5625 C-18.10561157 29.34995605 -18.10561157 29.34995605 -19.36108398 30.15332031 C-20.14684814 30.64026367 -20.9326123 31.12720703 -21.7421875 31.62890625 C-22.4419873 32.06275635 -23.14178711 32.49660645 -23.86279297 32.94360352 C-26.23061842 34.11399199 -28.40010489 34.59055204 -31 35 C-30.6390625 34.18917969 -30.278125 33.37835938 -29.90625 32.54296875 C-26.31460661 23.97290856 -23.92194571 16.88294244 -27.109375 7.859375 C-30.9809479 -0.59147766 -35.33648911 -5.51437 -43.75 -9.375 C-51.87067685 -12.2699845 -58.46389599 -12.05620123 -66.3125 -8.4375 C-73.7103176 -4.34142505 -78.1511743 0.7045106 -81.30078125 8.55859375 C-83.60116932 16.59067501 -82.08741642 23.69288784 -78.7109375 31.1875 C-76.32911922 35.10281772 -73.37033827 37.75550835 -69.79296875 40.57421875 C-69.20128906 41.04472656 -68.60960937 41.51523437 -68 42 C-68 42.33 -68 42.66 -68 43 C-86.2508318 42.25506809 -102.10359241 34.97835052 -117 24.875 C-117.60585937 24.47974121 -118.21171875 24.08448242 -118.8359375 23.67724609 C-121.75459333 21.59873151 -122.91102042 20.51114545 -123.53515625 16.92578125 C-121.93970207 8.20318872 -111.87626606 2.46627787 -105.03125 -2.3203125 C-70.33848114 -25.79976349 -34.01812051 -22.96950017 0 0 Z " fill="#E5E6E7" transform="translate(310,239)"/>
<path d="M0 0 C0.33 0 0.66 0 1 0 C1.11662261 4.04142215 1.1873935 8.08240865 1.25 12.125 C1.28351563 13.26710938 1.31703125 14.40921875 1.3515625 15.5859375 C1.42637854 22.02011668 1.47116952 26.17799054 -3 31 C-7.56787341 34.31170823 -11.47102802 35.1231253 -17.02754211 35.13371277 C-18.04103729 35.13797775 -19.05453247 35.14224274 -20.09873962 35.14663696 C-21.20480057 35.14618378 -22.31086151 35.14573059 -23.45043945 35.14526367 C-24.61996155 35.14862228 -25.78948364 35.1519809 -26.9944458 35.15544128 C-30.86740171 35.16495368 -34.74031438 35.1668946 -38.61328125 35.16796875 C-39.94917507 35.16939226 -41.28506873 35.17098816 -42.62096214 35.17275429 C-49.61865036 35.18200372 -56.61631954 35.18608978 -63.61401367 35.18530273 C-70.12710739 35.18470241 -76.64011817 35.19524637 -83.15319091 35.2110464 C-88.75248932 35.22414349 -94.3517607 35.2294857 -99.9510743 35.22884732 C-103.29190992 35.22859292 -106.63261322 35.23233726 -109.97344398 35.24202538 C-113.70282486 35.25182691 -117.43199261 35.2489463 -121.16137695 35.24291992 C-122.81135933 35.25134918 -122.81135933 35.25134918 -124.49467468 35.25994873 C-137.1432133 35.20803434 -137.1432133 35.20803434 -141.9609375 31.484375 C-145.02658989 27.72429307 -146.89293824 25.0319028 -147 20 C-146.68781225 17.99659043 -146.35710155 15.99589318 -146 14 C-132.31766123 13.83767341 -118.63555226 13.71336052 -104.95244598 13.6373148 C-98.59848472 13.60081282 -92.24518316 13.5513155 -85.89160156 13.47192383 C-79.75777216 13.39575941 -73.62457652 13.35398688 -67.49031067 13.3358593 C-65.1523084 13.32294421 -62.81434009 13.29772334 -60.47660828 13.2598896 C-57.19653912 13.20892552 -53.91907447 13.20208262 -50.63867188 13.20532227 C-49.19504776 13.16757187 -49.19504776 13.16757187 -47.72225952 13.12905884 C-40.30870451 13.20806895 -37.07347578 15.83071896 -32 21 C-29.18693147 22.40653427 -26.69731948 22.30188152 -23.625 21.91845703 C-17.8925537 19.91274061 -14.03755528 14.79454879 -10 10.4375 C-9.03973279 9.42845783 -8.07750701 8.42127574 -7.11328125 7.41601562 C-5.36457897 5.59122858 -3.62527611 3.75735591 -1.8984375 1.91186523 C-1.27195312 1.28094971 -0.64546875 0.65003418 0 0 Z " fill="#F69219" transform="translate(422,407)"/>
<path d="M0 0 C6.28379548 4.4227811 9.78336372 10.73217926 12 18 C13.36565806 26.58927043 11.33598835 34.07379958 6.4921875 41.2265625 C1.09390218 47.93047962 -5.8092028 52.19560365 -14.375 53.30859375 C-23.28105381 53.74594461 -30.34938581 50.91454576 -37.171875 45.171875 C-42.92345602 39.12534111 -46.08576293 31.95321695 -46.625 23.625 C-46.26877831 15.24191615 -42.26293484 7.69800302 -36.1875 2 C-24.50100673 -7.05260558 -12.85456881 -7.22724684 0 0 Z " fill="#5A5B5D" transform="translate(273,232)"/>
<path d="M0 0 C16.16265827 14.64740906 24.76132466 36.83276175 26.22265625 58.265625 C26.89110953 83.72497585 17.87496904 107.96969683 0.45751953 126.51123047 C-17.23940005 144.58758149 -40.73834356 153.92425423 -65.875 154.3125 C-88.1793022 154.20834916 -110.68355921 145.25859689 -127 130 C-128.03473892 128.69344225 -129.04707393 127.36737328 -130 126 C-127.23260324 127.36581411 -124.51167701 128.79570385 -121.8046875 130.27734375 C-121.00546875 130.70853516 -120.20625 131.13972656 -119.3828125 131.58398438 C-117.73070666 132.47565832 -116.08215167 133.37394776 -114.4375 134.27929688 C-108.77775933 137.3125924 -103.21344303 139.39759267 -97 141 C-96.17685303 141.21253418 -95.35370605 141.42506836 -94.50561523 141.64404297 C-70.10492501 147.52302732 -46.40990012 140.69137903 -25.36328125 128.46875 C-5.77520659 116.16210624 7.0654038 96.08294482 13 74 C13.22429687 73.18144531 13.44859375 72.36289062 13.6796875 71.51953125 C18.52458135 50.11571937 13.89653183 28.18538189 4 9 C3.2678125 7.92234375 2.535625 6.8446875 1.78125 5.734375 C0 3 0 3 0 0 Z " fill="#CFD1D2" transform="translate(321,193)"/>
<path d="M0 0 C1.08566114 2.17132228 2.11518 4.29314472 3.00415039 6.55566406 C5.94189786 11.62547951 9.97362157 15.38086861 14.12109375 19.484375 C15.01740005 20.38117981 15.91370636 21.27798462 16.83717346 22.20196533 C18.72918643 24.09164229 20.62380423 25.97814924 22.52368164 27.85986328 C24.95435438 30.26780135 27.37374569 32.68670884 29.78970242 35.1094017 C32.10328365 37.42713209 34.42490275 39.73676949 36.74609375 42.046875 C37.6128624 42.91455505 38.47963104 43.78223511 39.37266541 44.6762085 C40.58896385 45.87820892 40.58896385 45.87820892 41.82983398 47.10449219 C42.54026352 47.81031433 43.25069305 48.51613647 43.98265076 49.24334717 C48.26416099 52.97156978 51.35341351 53.2171764 57 53 C55.00505449 57.32737077 52.22138353 60.29076824 48.9375 63.6875 C48.40189453 64.28111328 47.86628906 64.87472656 47.31445312 65.48632812 C43.58352258 69.33124715 40.6249789 70.77207477 35.31079102 71.39379883 C28.00406744 70.14860653 22.46865279 62.75760554 17.515625 57.78125 C16.17041779 56.43891296 16.17041779 56.43891296 14.79803467 55.06945801 C12.90955993 53.18234078 11.02322101 51.29334903 9.14013672 49.40087891 C6.73048969 46.97980546 4.31192928 44.56786691 1.8905983 42.15848541 C-0.42675987 39.85009943 -2.73647681 37.53409885 -5.046875 35.21875 C-5.91455505 34.35511841 -6.78223511 33.49148682 -7.6762085 32.60168457 C-8.47754211 31.79404663 -9.27887573 30.98640869 -10.10449219 30.15429688 C-10.81031433 29.44688354 -11.51613647 28.73947021 -12.24334717 28.01062012 C-14.88821586 24.98337074 -15.88023942 22.63473106 -16.625 18.6875 C-15.81508084 13.90897694 -14.00949167 12.74852917 -10.3125 9.84375 C-7.86394914 7.89152701 -5.6976811 5.79157654 -3.5 3.5625 C-2.8296875 2.88316406 -2.159375 2.20382812 -1.46875 1.50390625 C-0.9840625 1.00761719 -0.499375 0.51132812 0 0 Z " fill="#7D3208" transform="translate(359,359)"/>
<path d="M0 0 C11.625 0 11.625 0 17.25 5 C20.58939921 8.81645625 20.13689685 12.89160642 20.11352539 17.68432617 C20.11367142 18.4650499 20.11381744 19.24577362 20.1139679 20.05015564 C20.11327114 22.63112159 20.10548982 25.2120154 20.09765625 27.79296875 C20.09579123 29.58230042 20.09436772 31.3716326 20.09336853 33.16096497 C20.08954999 37.87097584 20.07972533 42.58095589 20.06866455 47.29095459 C20.05843621 52.09696028 20.05386786 56.90297094 20.04882812 61.70898438 C20.03810249 71.13933646 20.02103399 80.56966567 20 90 C16.23327844 86.81597912 12.50997409 83.63838094 9.03515625 80.1328125 C8.38095703 79.47539062 7.72675781 78.81796875 7.05273438 78.140625 C6.39595703 77.47546875 5.73917969 76.8103125 5.0625 76.125 C4.37865234 75.43664062 3.69480469 74.74828125 2.99023438 74.0390625 C1.32448536 72.36166489 -0.3388622 70.68196209 -2 69 C-1.01 68.505 -1.01 68.505 0 68 C0 45.56 0 23.12 0 0 Z " fill="#F69218" transform="translate(403,294)"/>
<path d="M0 0 C2 3 2 3 1.6875 5.125 C1 7 1 7 0 8 C-2.60504773 8.35673266 -5.19865392 8.66232899 -7.8125 8.9375 C-9.3830021 9.1168369 -10.9533157 9.29783221 -12.5234375 9.48046875 C-15.07016975 9.77604307 -17.61696764 10.07083702 -20.1640625 10.36328125 C-40.24881024 13.16383058 -58.47830695 22.17682232 -74 35 C-74.99773437 35.82113281 -75.99546875 36.64226562 -77.0234375 37.48828125 C-95.12185749 52.9327696 -108.49256036 76.07381114 -111.92504883 99.62084961 C-112.52917046 103.51902394 -113.3052996 106.07453796 -116 109 C-120.875 108.125 -120.875 108.125 -122 107 C-120.42587564 77.09163717 -103.29521163 49.35458218 -81.71191406 29.50488281 C-64.26068202 14.16412492 -42.74962818 4.96417448 -20 1 C-19.26652344 0.86851562 -18.53304687 0.73703125 -17.77734375 0.6015625 C-12.04292266 -0.26978691 -5.7627426 -0.74472366 0 0 Z " fill="#929497" transform="translate(258,135)"/>
<path d="M0 0 C4.33821476 1.76742083 7.8914906 4.424508 9.78515625 8.82421875 C10.51049672 11.92672546 10.49212348 14.04699898 9.015625 16.90625 C-3.70717371 32.90812054 -27.17232218 44.53790733 -47 48 C-76.05773943 50.03073656 -98.24345053 40.91047256 -120.80859375 22.9921875 C-123.17136631 20.84421244 -125.07119937 18.53951427 -127 16 C-124.28523676 17.30855494 -121.75692426 18.74369264 -119.234375 20.390625 C-105.89206853 28.94031144 -91.12772632 37.25245628 -74.75 36.9375 C-72 37 -72 37 -68.8125 38.5 C-62.35473991 41.4728455 -55.2913744 40.75458673 -48.75 38.375 C-44.84033329 36.64216665 -41.91729398 34.54370119 -38.9609375 31.46484375 C-36.56354482 29.67396277 -34.01938402 28.91004845 -31.22070312 27.91772461 C-27.17778406 26.24695364 -23.66265591 23.77109623 -20.0625 21.3125 C-19.27488281 20.77794189 -18.48726563 20.24338379 -17.67578125 19.69262695 C-7.02664947 13.07975864 -7.02664947 13.07975864 -0.4375 3 C-0.293125 2.01 -0.14875 1.02 0 0 Z " fill="#D1D3D4" transform="translate(315,244)"/>
<path d="M0 0 C0.84388275 -0.0004985 1.6877655 -0.00099701 2.55722046 -0.00151062 C4.3304888 0.00081763 6.10376122 0.0104719 7.87695312 0.02709961 C10.58493659 0.0507725 13.2919387 0.047641 16 0.04101562 C17.72917251 0.04659076 19.4583409 0.0536996 21.1875 0.0625 C21.99281158 0.06158859 22.79812317 0.06067719 23.62783813 0.05973816 C29.39796184 0.13231423 33.26681318 0.62680382 37.4609375 4.92578125 C44.9609375 14.56863839 44.9609375 14.56863839 44.9609375 19.36328125 C44.32280121 19.36914749 43.68466492 19.37501373 43.02719116 19.38105774 C36.37574766 19.44507153 29.72478441 19.52951226 23.07373047 19.62573242 C20.59267515 19.65895361 18.11154477 19.68699423 15.63037109 19.7097168 C12.06054749 19.74331345 8.49141005 19.79563408 4.921875 19.8515625 C3.81540619 19.85795242 2.70893738 19.86434235 1.56893921 19.8709259 C-4.88151386 19.99362253 -10.05829988 20.27606282 -14.7890625 25.17578125 C-16.29494537 27.81107628 -17.18082853 30.45848935 -18.0390625 33.36328125 C-18.3690625 33.36328125 -18.6990625 33.36328125 -19.0390625 33.36328125 C-19.12682435 29.6759335 -19.17970853 25.98885778 -19.2265625 22.30078125 C-19.26426758 20.74327148 -19.26426758 20.74327148 -19.30273438 19.15429688 C-19.35979275 13.16316763 -19.37473339 8.45812948 -16.0390625 3.36328125 C-10.59317606 0.40252925 -6.12616846 -0.0704144 0 0 Z " fill="#EE7815" transform="translate(294.0390625,69.63671875)"/>
<path d="M0 0 C1.26507637 -0.00855011 1.26507637 -0.00855011 2.55570984 -0.01727295 C4.33847811 -0.02670597 6.12126368 -0.03325018 7.90405273 -0.03710938 C10.61668697 -0.04680341 13.32855942 -0.07783768 16.04101562 -0.109375 C17.77733928 -0.11590694 19.51366832 -0.12115666 21.25 -0.125 C22.05440018 -0.1373468 22.85880035 -0.1496936 23.68757629 -0.16241455 C28.97377805 -0.1417408 32.66236447 0.64446782 37.32421875 3.203125 C38.94506836 4.90478516 38.94506836 4.90478516 39.9765625 6.7421875 C40.36005859 7.40476562 40.74355469 8.06734375 41.13867188 8.75 C41.50927734 9.43578125 41.87988281 10.1215625 42.26171875 10.828125 C42.65939453 11.52164063 43.05707031 12.21515625 43.46679688 12.9296875 C46.32421875 17.96583208 46.32421875 17.96583208 46.32421875 19.203125 C45.35155312 19.20859344 45.35155312 19.20859344 44.35923767 19.21417236 C37.59402974 19.25606838 30.82949574 19.32546436 24.06469727 19.41064453 C21.54197946 19.43882408 19.01917386 19.46005354 16.49633789 19.47412109 C12.86428984 19.49559133 9.23329409 19.5422661 5.6015625 19.59375 C3.91679054 19.59559296 3.91679054 19.59559296 2.19798279 19.59747314 C-4.27451091 19.71781273 -8.45898154 20.24533735 -13.67578125 24.203125 C-15.63761184 27.28693286 -15.63761184 27.28693286 -16.67578125 30.203125 C-17.00578125 30.203125 -17.33578125 30.203125 -17.67578125 30.203125 C-17.82170914 26.49520956 -17.9100602 22.78803774 -17.98828125 19.078125 C-18.05112305 17.50804687 -18.05112305 17.50804687 -18.11523438 15.90625 C-18.25343285 7.17210614 -18.25343285 7.17210614 -15.40625 3.5234375 C-10.71619547 -0.4621024 -5.9540432 0.03122123 0 0 Z " fill="#EF7715" transform="translate(106.67578125,69.796875)"/>
<path d="M0 0 C12.55555556 0 12.55555556 0 17 4 C21.15946122 8.44632062 21.12654594 13.3111734 21.09765625 19.17578125 C21.09443359 20.33271484 21.09121094 21.48964844 21.08789062 22.68164062 C21.07951172 23.87982422 21.07113281 25.07800781 21.0625 26.3125 C21.05798828 27.53001953 21.05347656 28.74753906 21.04882812 30.00195312 C21.03706578 33.00135226 21.02062826 36.00065089 21 39 C13.82447589 41.63102551 7.79017974 42.70163671 0 44 C0 29.48 0 14.96 0 0 Z " fill="#F69319" transform="translate(216,89)"/>
<path d="M0 0 C14.52 0 29.04 0 44 0 C43.24949778 4.50301334 42.40454873 8.91816671 41.4375 13.375 C41.16808594 14.62023437 40.89867187 15.86546875 40.62109375 17.1484375 C40.41613281 18.08945313 40.21117187 19.03046875 40 20 C35.85577739 20.09953791 31.71220425 20.17177901 27.56713867 20.21972656 C26.15978866 20.23973246 24.75252062 20.26694662 23.34545898 20.30175781 C8.75341566 20.65349796 8.75341566 20.65349796 3 16 C-1.06750267 10.48918994 0 7.5893658 0 0 Z " fill="#F69219" transform="translate(89,216)"/>
<path d="M0 0 C1.12775345 0.00212242 1.12775345 0.00212242 2.27828979 0.00428772 C4.6829626 0.0098916 7.08754277 0.02244468 9.4921875 0.03515625 C11.12109241 0.04017075 12.74999877 0.04473375 14.37890625 0.04882812 C18.37506452 0.05901201 22.37102215 0.07858653 26.3671875 0.09765625 C27.6871875 6.03765625 29.0071875 11.97765625 30.3671875 18.09765625 C27.13228516 18.15373047 27.13228516 18.15373047 23.83203125 18.2109375 C21.72361605 18.25726219 19.61537073 18.3084556 17.50708008 18.36010742 C16.05145756 18.39318608 14.59571203 18.42127022 13.13989258 18.4440918 C11.03674314 18.47795546 8.93470375 18.53027985 6.83203125 18.5859375 C4.93892212 18.62521362 4.93892212 18.62521362 3.00756836 18.6652832 C-2.2886455 19.29432181 -6.27933465 20.59785647 -9.9453125 24.66015625 C-10.5021875 25.46453125 -11.0590625 26.26890625 -11.6328125 27.09765625 C-12.2928125 27.75765625 -12.9528125 28.41765625 -13.6328125 29.09765625 C-13.7492987 25.3687537 -13.82015826 21.64032111 -13.8828125 17.91015625 C-13.91632813 16.85505859 -13.94984375 15.79996094 -13.984375 14.71289062 C-14.08353132 6.85475212 -14.08353132 6.85475212 -11.7421875 2.921875 C-7.95834772 -0.3504457 -4.79356482 -0.03373525 0 0 Z " fill="#EE7816" transform="translate(102.6328125,275.90234375)"/>
<path d="M0 0 C4 4 8 8 12 12 C10.41332422 15.90285767 7.86649519 18.33520982 4.875 21.25 C3.96492188 22.14203125 3.05484375 23.0340625 2.1171875 23.953125 C1.06917969 24.96632813 1.06917969 24.96632813 0 26 C-3.45201639 24.52278578 -5.64961936 22.56205999 -8.25 19.875 C-8.95640625 19.15054687 -9.6628125 18.42609375 -10.390625 17.6796875 C-10.92171875 17.12539063 -11.4528125 16.57109375 -12 16 C-9.19992219 11.5198755 -6.03328577 7.65133931 -2.48828125 3.734375 C-0.92765045 2.05786352 -0.92765045 2.05786352 0 0 Z " fill="#939496" transform="translate(359,332)"/>
<path d="M0 0 C2.5 2.125 2.5 2.125 4 5 C4.07517661 9.2850666 3.69099731 11.23003157 0.8125 14.4375 C-2.52215137 16.29008409 -4.2444323 16.63924557 -8 16 C-11.26927536 13.34923619 -12.78911852 11.35566665 -13.4375 7.1875 C-13 4 -13 4 -10.4375 1.0625 C-6.82240272 -1.57831575 -4.25972549 -1.4199085 0 0 Z " fill="#909295" transform="translate(269,240)"/>
<path d="M0 0 C2.625 0.375 2.625 0.375 5 1 C5.625 3.375 5.625 3.375 6 6 C5.34 6.66 4.68 7.32 4 8 C1.375 7.625 1.375 7.625 -1 7 C-1.625 4.625 -1.625 4.625 -2 2 C-1.34 1.34 -0.68 0.68 0 0 Z " fill="#919396" transform="translate(137,252)"/>
</svg>
