<?xml version="1.0" encoding="UTF-8"?>
<svg version="1.1" xmlns="http://www.w3.org/2000/svg" width="512" height="512">
<path d="M0 0 C3.25 1.375 3.25 1.375 6 4 C6.76699219 4.72960937 7.53398437 5.45921875 8.32421875 6.2109375 C12.84451436 10.60285401 17.12917357 15.16206894 21.23046875 19.9453125 C24.00126683 23.16261888 26.85756085 26.30199692 29.703125 29.453125 C31.15555841 31.0636464 32.60400676 32.67777857 34.046875 34.296875 C39.86094386 40.81038072 45.81971734 47.18256632 51.80517578 53.53808594 C54.41862078 56.31500032 57.02566751 59.09758689 59.62475586 61.88793945 C68.94570623 71.87527465 78.47568687 81.63234261 88.1484375 91.27880859 C90.52983489 93.65476675 92.90573243 96.03613331 95.28125 98.41796875 C96.82259559 99.95865462 98.36425076 101.49903084 99.90625 103.0390625 C100.6022229 103.73705963 101.2981958 104.43505676 102.01525879 105.15420532 C105.98080872 109.1010566 110.04728725 112.86971073 114.29345703 116.51364136 C116.46987285 118.40924816 118.49086826 120.42904882 120.5 122.5 C123.78854528 125.82769463 127.16381624 128.95336441 130.71484375 131.99609375 C133.06486769 134.05688398 135.35050216 136.17489502 137.63452148 138.30810547 C143.06145692 143.37577194 148.59432658 148.20311324 154.38671875 152.85546875 C156.99847623 154.99874956 159.50365302 157.2238033 162 159.5 C167.17362255 164.20329323 172.55862062 168.6125742 178 173 C215.49358831 203.28878832 242.56181954 236.44134357 248 286 C248.27694562 290.75445086 248.33464626 295.4882321 248.3125 300.25 C248.30758545 301.51489258 248.3026709 302.77978516 248.29760742 304.08300781 C248.17425017 313.98954423 247.36195209 323.37936588 245 333 C244.82839355 333.7101123 244.65678711 334.42022461 244.47998047 335.15185547 C241.84929184 345.68636461 238.0163716 355.38467392 233 365 C232.6488916 365.67482422 232.2977832 366.34964844 231.93603516 367.04492188 C227.37088851 375.71082608 222.51502521 383.63136841 216 391 C215.27941406 391.82886719 214.55882812 392.65773438 213.81640625 393.51171875 C211.57974955 396.04297841 209.30146091 398.52761885 207 401 C206.32582031 401.73992187 205.65164063 402.47984375 204.95703125 403.2421875 C179.19970862 430.40094044 140.77402236 444.37108357 104 446 C102.76056641 446.07927734 102.76056641 446.07927734 101.49609375 446.16015625 C74.1812724 447.14331883 48.80870107 437.12059925 28 420 C27.92482947 424.3375321 27.87092637 428.67470103 27.83520508 433.01269531 C27.82028571 434.48281473 27.79994273 435.952891 27.77368164 437.42285156 C27.52452432 451.74695476 28.91745691 465.99676235 38.91796875 477.0859375 C45.54162498 483.17522746 53.40222654 488.04180504 61 492.8125 C71.54881112 499.48719022 71.54881112 499.48719022 73.0625 504.5625 C72.99252765 508.41097912 72.71788015 509.37782744 70 512 C67.23416138 512.50057125 67.23416138 512.50057125 63.81298828 512.50120544 C62.51742004 512.51103958 61.22185181 512.52087372 59.88702393 512.53100586 C58.4481175 512.5216335 57.00921368 512.51185416 55.5703125 512.50170898 C54.05751035 512.50549129 52.54471165 512.51099059 51.03192139 512.51808167 C46.92031175 512.53206538 42.80911921 512.52084632 38.69753265 512.50437045 C34.39877478 512.4905399 30.10004161 512.49697775 25.80126953 512.50050354 C18.58163719 512.50320725 11.36217095 512.48971631 4.14257812 512.46655273 C-4.2093595 512.43994193 -12.56101936 512.43819527 -20.91298485 512.4499411 C-28.94074438 512.46071296 -36.96840325 512.45453649 -44.99615479 512.44038582 C-48.41557184 512.43462085 -51.83491534 512.43471269 -55.2543335 512.43945122 C-59.27958825 512.44421667 -63.30453808 512.43413752 -67.3297348 512.41249657 C-68.80879437 512.40692259 -70.2878832 512.406469 -71.76694489 512.41144943 C-73.78229952 512.41738563 -75.7976838 512.40308708 -77.81298828 512.38768005 C-78.9419754 512.38525016 -80.07096252 512.38282026 -81.23416138 512.38031673 C-84 512 -84 512 -85.84371948 510.678895 C-87.95672972 507.61084856 -87.66007237 505.60039472 -87 502 C-82.28374213 496.70157307 -76.06109148 492.9047102 -70.125 489.125 C-58.03284684 481.20451604 -46.61938741 472.80658484 -43 458 C-42.18503589 453.12837505 -41.88185956 448.47184626 -41.90234375 443.53515625 C-41.9037587 442.85698349 -41.90517365 442.17881073 -41.90663147 441.48008728 C-41.91217255 439.34084422 -41.92471347 437.20171075 -41.9375 435.0625 C-41.94252264 433.60091298 -41.9470842 432.13932431 -41.95117188 430.67773438 C-41.96212255 427.11845474 -41.97934555 423.55923809 -42 420 C-43.24982666 421.02830933 -43.24982666 421.02830933 -44.52490234 422.07739258 C-64.8468907 438.62548797 -91.6224568 447.95131099 -118 446 C-118.67756348 445.95746094 -119.35512695 445.91492188 -120.05322266 445.87109375 C-158.38018474 443.34350716 -192.37890164 428.65193701 -220 402 C-220.71671875 401.33484375 -221.4334375 400.6696875 -222.171875 399.984375 C-245.33640658 377.93174094 -260.83001312 343.91239939 -262.12280273 311.96533203 C-262.47957408 296.76405331 -262.45548361 281.86166783 -259 267 C-258.83902832 266.30084473 -258.67805664 265.60168945 -258.51220703 264.88134766 C-250.05651942 229.75084918 -227.87946001 200.33985677 -199.48046875 178.6875 C-195.99579577 176.02509696 -192.64483754 173.22462733 -189.3125 170.375 C-185.35200779 166.98965827 -181.36368662 163.65236446 -177.3125 160.375 C-172.85808887 156.74931653 -168.57051399 152.97570347 -164.32421875 149.109375 C-162.27957665 147.25373343 -160.21215851 145.43243624 -158.125 143.625 C-154.21126586 140.21626382 -150.3891964 136.71018182 -146.57177734 133.19458008 C-143.32317529 130.20465731 -140.0469123 127.24928803 -136.75 124.3125 C-133.09204907 121.03436825 -129.58928165 117.65248097 -126.1796875 114.1171875 C-124.30804996 112.29921699 -122.39620098 110.60953905 -120.41674805 108.91235352 C-115.8055427 104.88718721 -111.47341138 100.61761368 -107.15234375 96.28515625 C-106.33681534 95.47058456 -105.52128693 94.65601288 -104.68104553 93.8167572 C-102.96801992 92.10440807 -101.25624035 90.39081158 -99.5456543 88.67602539 C-96.94496448 86.06997985 -94.33898044 83.46931478 -91.73242188 80.86914062 C-90.05957514 79.19563301 -88.38703866 77.52181518 -86.71484375 75.84765625 C-85.94486557 75.0797023 -85.17488739 74.31174835 -84.38157654 73.52052307 C-80.2531471 69.37437468 -76.28669746 65.14668778 -72.48121643 60.70140076 C-69.70955299 57.51772673 -66.64693887 54.62991416 -63.625 51.6875 C-60.91693056 48.91495272 -58.38903544 46.03289965 -55.8515625 43.10546875 C-52.21335287 38.96834852 -48.39373185 34.9991561 -44.60546875 31 C-40.29103248 26.42651891 -36.11419819 21.75401464 -32 17 C-16.08856089 -1.23616236 -16.08856089 -1.23616236 0 0 Z " fill="#ffc107" transform="translate(263,0)"/>
</svg>
