<?xml version="1.0" encoding="UTF-8"?>
<svg version="1.1" xmlns="http://www.w3.org/2000/svg" width="512" height="512">
<path d="M0 0 C1.88525391 0.43505859 1.88525391 0.43505859 3.80859375 0.87890625 C28.67484589 6.96184818 49.60063451 19.55524729 69 36 C71.7888064 34.69840424 74.09449327 33.25595967 76.4765625 31.3125 C104.63042307 8.79763865 137.26576482 -3.21722819 173.375 -3.25 C174.14010895 -3.25100708 174.9052179 -3.25201416 175.69351196 -3.25305176 C186.76690308 -3.24316934 197.22851321 -2.77935373 208 0 C209.88525391 0.43505859 209.88525391 0.43505859 211.80859375 0.87890625 C249.14548376 10.01249551 283.12324083 34.60267377 303.41210938 67.27392578 C318.37466648 92.38210958 326.22344799 119.11898544 326.25 148.375 C326.25100708 149.14010895 326.25201416 149.9052179 326.25305176 150.69351196 C326.24316934 161.76690308 325.77935373 172.22851321 323 183 C322.70996094 184.25683594 322.41992188 185.51367188 322.12109375 186.80859375 C312.98750449 224.14548376 288.39732623 258.12324083 255.72607422 278.41210938 C246.81603539 283.72181102 237.71207039 288.32929623 228 292 C226.33259417 292.66481579 224.66582809 293.3312407 223 294 C222.98541748 294.88034912 222.97083496 295.76069824 222.95581055 296.66772461 C222.35375416 329.21068043 222.35375416 329.21068043 219 343 C218.71125 344.25941406 218.4225 345.51882813 218.125 346.81640625 C208.93423771 384.15387806 184.42316676 418.10719385 151.72607422 438.41210938 C126.75633751 453.2921626 100.04264893 461.21656667 70.9375 461.3125 C70.18111237 461.31511841 69.42472473 461.31773682 68.64541626 461.32043457 C52.03107797 461.32658502 36.24486194 459.36210022 20.55859375 453.63671875 C15.05062759 452.26603404 10.33749064 455.04826338 5.41796875 457.3515625 C4.68612869 457.68868256 3.95428864 458.02580261 3.20027161 458.37313843 C0.86032119 459.45206942 -1.47621239 460.53816355 -3.8125 461.625 C-9.12402405 464.08496754 -14.44046002 466.53385438 -19.76324463 468.96936035 C-21.98945958 469.99514324 -24.20631212 471.03949914 -26.42333984 472.08496094 C-27.82745398 472.73187022 -29.23189917 473.37806158 -30.63671875 474.0234375 C-31.26254349 474.32496735 -31.88836823 474.62649719 -32.53315735 474.93716431 C-37.30211074 477.09565969 -40.87302031 477.38268624 -46 477 C-48.5 475.5625 -48.5 475.5625 -50 473 C-50.92659477 466.21510294 -49.17713734 460.39557463 -46.90234375 454.07421875 C-46.58922745 453.16420609 -46.27611115 452.25419342 -45.95350647 451.31660461 C-44.96114986 448.43553288 -43.95117099 445.56113546 -42.9375 442.6875 C-41.92144786 439.7956593 -40.90965132 436.90266042 -39.91078186 434.00483704 C-39.29125135 432.2082655 -38.66175313 430.41509311 -38.02122498 428.62590027 C-37.60067589 427.40861992 -37.60067589 427.40861992 -37.17163086 426.16674805 C-36.92070175 425.45665085 -36.66977264 424.74655365 -36.41123962 424.01493835 C-35.9270119 421.64238241 -36.1719347 420.26179879 -37 418 C-38.73631994 416.01285116 -38.73631994 416.01285116 -40.9375 414.0625 C-65.8427216 389.86772846 -81.34500335 352.87059511 -82.31640625 318.31640625 C-82.3475779 317.26585304 -82.3475779 317.26585304 -82.37937927 316.19407654 C-82.44412465 313.98363894 -82.50340608 311.77309515 -82.5625 309.5625 C-82.60575681 308.05272393 -82.64937323 306.54295812 -82.69335938 305.03320312 C-82.79972748 301.35557804 -82.90120002 297.67783709 -83 294 C-84.49575562 293.43285278 -84.49575562 293.43285278 -86.02172852 292.85424805 C-125.35700599 277.80958252 -155.40338476 249.61103178 -173.5546875 211.7578125 C-182.21476199 191.90956723 -186.23300139 171.21956705 -186.25 149.625 C-186.25067474 148.85889404 -186.25134949 148.09278809 -186.25204468 147.3034668 C-186.23651142 136.22520683 -185.81398667 125.76999717 -183 115 C-182.64433797 113.51957767 -182.28887874 112.03910661 -181.93359375 110.55859375 C-172.54937769 73.05745622 -147.72310133 39.17057339 -114.69458008 19.05249023 C-80.79090851 -1.06944634 -38.80852631 -10.0137172 0 0 Z " fill="#ffc107" transform="translate(186,19)"/>
<path d="M0 0 C1.13260254 0.44883545 1.13260254 0.44883545 2.28808594 0.90673828 C12.93049894 5.20609465 22.6809664 10.29560086 32 17 C32.56638184 17.40557129 33.13276367 17.81114258 33.71630859 18.22900391 C48.85246607 29.2282009 61.67783688 42.39987742 72 58 C72.39912598 58.59748047 72.79825195 59.19496094 73.20947266 59.81054688 C83.09239142 74.81206015 89.767525 91.57795175 94 109 C94.24556641 109.97646484 94.24556641 109.97646484 94.49609375 110.97265625 C99.38262831 131.28610157 99.10505784 155.82077995 94 176 C93.70996094 177.25941406 93.41992188 178.51882813 93.12109375 179.81640625 C83.96927896 217.15121553 59.40338839 251.11947623 26.72607422 271.41210938 C1.75633751 286.2921626 -24.95735107 294.21656667 -54.0625 294.3125 C-54.81888763 294.31511841 -55.57527527 294.31773682 -56.35458374 294.32043457 C-72.96892203 294.32658502 -88.75513806 292.36210022 -104.44140625 286.63671875 C-109.94937241 285.26603404 -114.66250936 288.04826338 -119.58203125 290.3515625 C-120.67979134 290.85724258 -120.67979134 290.85724258 -121.79972839 291.37313843 C-124.13967881 292.45206942 -126.47621239 293.53816355 -128.8125 294.625 C-134.12402405 297.08496754 -139.44046002 299.53385438 -144.76324463 301.96936035 C-146.98945958 302.99514324 -149.20631212 304.03949914 -151.42333984 305.08496094 C-152.82745398 305.73187022 -154.23189917 306.37806158 -155.63671875 307.0234375 C-156.26254349 307.32496735 -156.88836823 307.62649719 -157.53315735 307.93716431 C-162.30211074 310.09565969 -165.87302031 310.38268624 -171 310 C-173.5 308.5625 -173.5 308.5625 -175 306 C-175.92659477 299.21510294 -174.17713734 293.39557463 -171.90234375 287.07421875 C-171.58922745 286.16420609 -171.27611115 285.25419342 -170.95350647 284.31660461 C-169.96114986 281.43553288 -168.95117099 278.56113546 -167.9375 275.6875 C-166.92144786 272.7956593 -165.90965132 269.90266042 -164.91078186 267.00483704 C-164.29125135 265.2082655 -163.66175313 263.41509311 -163.02122498 261.62590027 C-162.60067589 260.40861992 -162.60067589 260.40861992 -162.17163086 259.16674805 C-161.92070175 258.45665085 -161.66977264 257.74655365 -161.41123962 257.01493835 C-160.9270119 254.64238241 -161.1719347 253.26179879 -162 251 C-163.73631994 249.01285116 -163.73631994 249.01285116 -165.9375 247.0625 C-189.60736472 224.06784536 -205.66658708 188.4118566 -207.16113281 155.44580078 C-207.20711828 151.33865644 -207.24615019 147.23240409 -207.25 143.125 C-207.25100708 142.3835675 -207.25201416 141.64213501 -207.25305176 140.87823486 C-207.24298611 129.94190587 -206.70784609 119.64382791 -204 109 C-203.73316406 107.78828125 -203.46632813 106.5765625 -203.19140625 105.328125 C-197.2533267 80.3090165 -183.94005003 56.3793982 -166 38 C-165.175 37.154375 -164.35 36.30875 -163.5 35.4375 C-162.675 34.633125 -161.85 33.82875 -161 33 C-160.42636719 32.36964844 -159.85273438 31.73929688 -159.26171875 31.08984375 C-137.83802108 8.213692 -106.26287104 -3.89292484 -76 -9 C-75.22785156 -9.17200928 -74.45570313 -9.34401855 -73.66015625 -9.52124023 C-49.64128579 -13.84401969 -22.45383265 -8.93405982 0 0 Z " fill="#ffc107" transform="translate(311,186)"/>
<path d="M0 0 C1.14766342 -0.00151062 1.14766342 -0.00151062 2.31851196 -0.00305176 C13.39190308 0.00683066 23.85351321 0.47064627 34.625 3.25 C36.51025391 3.68505859 36.51025391 3.68505859 38.43359375 4.12890625 C75.77048376 13.26249551 109.74824083 37.85267377 130.03710938 70.52392578 C144.99966648 95.63210958 152.84844799 122.36898544 152.875 151.625 C152.87600708 152.39010895 152.87701416 153.1552179 152.87805176 153.94351196 C152.86816934 165.01690308 152.40435373 175.47851321 149.625 186.25 C149.33496094 187.50683594 149.04492188 188.76367188 148.74609375 190.05859375 C139.61250449 227.39548376 115.02232623 261.37324083 82.35107422 281.66210938 C71.3006495 288.2473173 60.06250036 293.8147348 47.625 297.25 C47.54048584 296.69352783 47.45597168 296.13705566 47.36889648 295.5637207 C44.18532612 275.17177456 38.7618186 256.30281521 28.625 238.25 C27.99851562 237.13367188 27.37203125 236.01734375 26.7265625 234.8671875 C15.48163352 215.81965474 0.56305404 199.8405324 -17.69970703 187.39599609 C-19.15853707 186.39807301 -20.59508505 185.36772937 -22.02734375 184.33203125 C-30.36493767 178.57606199 -39.83228488 175.00316437 -49.16772461 171.19213867 C-51.28349836 170.28905595 -53.32941091 169.30122575 -55.375 168.25 C-55.41987549 167.17741943 -55.46475098 166.10483887 -55.51098633 164.99975586 C-55.68376351 160.94546713 -55.87210766 156.89201483 -56.06469727 152.83862305 C-56.14531317 151.09824904 -56.221941 149.3576848 -56.29418945 147.61694336 C-56.91314261 132.80902271 -58.74145157 118.92479484 -63.5625 104.8125 C-63.86293213 103.925625 -64.16336426 103.03875 -64.47290039 102.125 C-67.39300983 93.77109802 -71.04617184 85.95927624 -75.375 78.25 C-76.00148438 77.13367188 -76.62796875 76.01734375 -77.2734375 74.8671875 C-84.42478156 62.75368633 -93.09038796 51.84897124 -103.375 42.25 C-101.80146779 37.89964623 -98.44520994 35.47024101 -94.9375 32.6875 C-93.95571777 31.90620728 -93.95571777 31.90620728 -92.95410156 31.10913086 C-66.12195692 10.35839593 -33.67694008 0.03056432 0 0 Z " fill="#ffc107" transform="translate(359.375,15.75)"/>
<path d="M0 0 C12.37443643 9.78359542 20.74094114 23.16287413 23.7265625 38.76953125 C25.04729862 50.30654974 24.69167671 61.13225097 21.125 72.25 C20.56219556 74.16657729 19.9996785 76.08323901 19.4375 78 C19.00287355 79.4175509 18.56653418 80.83458548 18.125 82.25 C19.49785156 83.29800781 19.49785156 83.29800781 20.8984375 84.3671875 C22.09901726 85.28638138 23.29953486 86.20565644 24.5 87.125 C25.10328125 87.58519531 25.7065625 88.04539062 26.328125 88.51953125 C33.03167103 93.65891654 33.03167103 93.65891654 33.6875 97.8125 C33.59888559 103.86043375 29.21205052 108.16294948 25.125 112.25 C19.23606388 112.86754249 16.33487636 112.27556087 11.68945312 108.64648438 C11.11130859 108.16501953 10.53316406 107.68355469 9.9375 107.1875 C5.77724795 103.49885123 5.77724795 103.49885123 0.5703125 102.2578125 C-2.31564233 103.42879098 -5.05564289 104.73633583 -7.8125 106.1875 C-18.76285396 111.93820202 -30.26011105 113.32028644 -42.1875 109.6875 C-57.47907538 103.72813097 -67.65234921 93.24664265 -74.47265625 78.546875 C-77.32307373 71.84561497 -79.48006678 65.57949599 -79.875 58.25 C-79.93945312 57.09628906 -80.00390625 55.94257813 -80.0703125 54.75390625 C-80.76039254 36.37393379 -75.45731785 21.06801565 -63.6875 6.875 C-46.19858892 -11.42805004 -20.80787414 -14.31078001 0 0 Z " fill="#F2EFF0" transform="translate(419.875,100.75)"/>
<path d="M0 0 C1.11181641 0.00322266 2.22363281 0.00644531 3.36914062 0.00976562 C4.51962891 0.01814453 5.67011719 0.02652344 6.85546875 0.03515625 C8.02529297 0.03966797 9.19511719 0.04417969 10.40039062 0.04882812 C13.28130233 0.06058695 16.16210919 0.07702199 19.04296875 0.09765625 C19.04296875 0.42765625 19.04296875 0.75765625 19.04296875 1.09765625 C18.48649658 1.18217041 17.93002441 1.26668457 17.35668945 1.35375977 C-23.36535766 7.71124529 -60.44537492 26.27897917 -85.99609375 59.390625 C-110.43501677 93.12802271 -122.17329002 133.57205082 -115.76953125 175.22265625 C-115.24350564 178.20090829 -114.6290897 181.14912276 -113.95703125 184.09765625 C-113.7854248 184.85191895 -113.61381836 185.60618164 -113.43701172 186.38330078 C-110.80956987 197.50120709 -106.96209185 207.8409164 -101.95703125 218.09765625 C-101.64894531 218.73300293 -101.34085938 219.36834961 -101.0234375 220.02294922 C-93.74915257 234.81676209 -84.03990125 250.13458675 -71.078125 260.6171875 C-69.95703125 262.09765625 -69.95703125 262.09765625 -70.19384766 264.09863281 C-71.26964641 268.32611582 -72.65324951 272.43042244 -74.046875 276.5625 C-74.35146133 277.47342911 -74.65604767 278.38435822 -74.96986389 279.32289124 C-75.94193248 282.22793328 -76.91816152 285.13155732 -77.89453125 288.03515625 C-78.54780289 289.9849333 -79.20080065 291.93480215 -79.85351562 293.88476562 C-82.98146656 303.22613608 -82.98146656 303.22613608 -84.25073242 306.97186279 C-84.86984059 308.83523287 -85.44529841 310.71298892 -86.01342773 312.5925293 C-86.95703125 315.09765625 -86.95703125 315.09765625 -89.27734375 316.77734375 C-95.08054858 319.25057589 -99.63503229 321.09586661 -105.95703125 320.09765625 C-108.45703125 318.66015625 -108.45703125 318.66015625 -109.95703125 316.09765625 C-110.88362602 309.31275919 -109.13416859 303.49323088 -106.859375 297.171875 C-106.5462587 296.26186234 -106.2331424 295.35184967 -105.91053772 294.41426086 C-104.91818111 291.53318913 -103.90820224 288.65879171 -102.89453125 285.78515625 C-101.87847911 282.89331555 -100.86668257 280.00031667 -99.86781311 277.10249329 C-99.2482826 275.30592175 -98.61878438 273.51274936 -97.97825623 271.72355652 C-97.55770714 270.50627617 -97.55770714 270.50627617 -97.12866211 269.2644043 C-96.877733 268.5543071 -96.62680389 267.8442099 -96.36827087 267.1125946 C-95.88404315 264.74003866 -96.12896595 263.35945504 -96.95703125 261.09765625 C-98.69335119 259.11050741 -98.69335119 259.11050741 -100.89453125 257.16015625 C-124.56439597 234.16550161 -140.62361833 198.50951285 -142.11816406 165.54345703 C-142.16414953 161.43631269 -142.20318144 157.33006034 -142.20703125 153.22265625 C-142.20803833 152.48122375 -142.20904541 151.73979126 -142.21008301 150.97589111 C-142.20001736 140.03956212 -141.66487734 129.74148416 -138.95703125 119.09765625 C-138.69019531 117.8859375 -138.42335938 116.67421875 -138.1484375 115.42578125 C-132.21035795 90.40667275 -118.89708128 66.47705445 -100.95703125 48.09765625 C-100.13203125 47.25203125 -99.30703125 46.40640625 -98.45703125 45.53515625 C-97.63203125 44.73078125 -96.80703125 43.92640625 -95.95703125 43.09765625 C-95.38339844 42.46730469 -94.80976563 41.83695313 -94.21875 41.1875 C-72.79505233 18.31134825 -41.21990229 6.20473141 -10.95703125 1.09765625 C-10.18423828 0.92274658 -9.41144531 0.74783691 -8.61523438 0.56762695 C-5.68940452 0.05033981 -2.97051978 -0.01523343 0 0 Z " fill="#ffc107" transform="translate(245.95703125,175.90234375)"/>
<path d="M0 0 C6.3283033 2.79622704 9.29500371 8.21162672 12.26464844 14.20458984 C12.71442047 15.10588623 12.71442047 15.10588623 13.17327881 16.02539062 C14.15759332 18.00117017 15.13341114 19.98102166 16.109375 21.9609375 C16.80135192 23.35304562 17.49392866 24.74485572 18.18707275 26.13638306 C20.01068077 29.80068557 21.82741935 33.46834827 23.64233398 37.13696289 C26.53027329 42.97203885 29.42813906 48.80218608 32.32691193 54.63188553 C33.32602685 56.64378493 34.32193132 58.65724589 35.31732178 60.67098999 C39.16257835 68.43146667 43.14290152 76.10618047 47.25006104 83.73135376 C49.59451481 88.11047221 51.83747016 92.52871944 54 97 C54.39316406 97.77988281 54.78632813 98.55976563 55.19140625 99.36328125 C57.46126919 104.06909466 58.65777024 107.65729481 58 113 C54.12050739 118.02051985 49.7010834 120.62090057 43.4375 121.5 C38.91021856 120.84148634 37.95102207 119.47257733 35 116 C33.20905662 113.02318544 31.68919082 109.94331297 30.1875 106.8125 C29.78080078 105.99330078 29.37410156 105.17410156 28.95507812 104.33007812 C26 98.29575893 26 98.29575893 26 96 C6.86 96 -12.28 96 -32 96 C-32.66 97.98 -33.32 99.96 -34 102 C-35.35660432 104.98130184 -36.90187647 107.85737152 -38.4375 110.75 C-38.83259766 111.51699219 -39.22769531 112.28398437 -39.63476562 113.07421875 C-40.02212891 113.80769531 -40.40949219 114.54117188 -40.80859375 115.296875 C-41.15720459 115.96041992 -41.50581543 116.62396484 -41.86499023 117.30761719 C-43 119 -43 119 -46 121 C-52.38689789 121.8941657 -56.92294425 119.67078369 -62 116 C-64.50512333 112.242315 -64.38104611 110.46193646 -64 106 C-62.70581055 102.6328125 -62.70581055 102.6328125 -60.88671875 99.125 C-60.3992643 98.1689814 -60.3992643 98.1689814 -59.90196228 97.19364929 C-58.84292928 95.12242872 -57.76518314 93.06156804 -56.6875 91 C-55.56766352 88.8195908 -54.45288887 86.63664156 -53.33831787 84.45353699 C-52.59501604 82.99845829 -51.85010344 81.54420131 -51.10357666 80.09077454 C-48.15592524 74.34494784 -45.36148885 68.5367993 -42.625 62.6875 C-37.86425179 52.59605485 -32.79330484 42.66981625 -27.6875 32.75 C-27.30064026 31.99770111 -26.91378052 31.24540222 -26.51519775 30.4703064 C-22.9321263 23.50932153 -19.32936855 16.55802141 -15.640625 9.65234375 C-15.1962207 8.81952881 -14.75181641 7.98671387 -14.29394531 7.12866211 C-10.79690497 1.37570084 -6.89769307 -1.00330081 0 0 Z " fill="#F3F0EF" transform="translate(259,260)"/>
<path d="M0 0 C-1.63195312 0.8353125 -1.63195312 0.8353125 -3.296875 1.6875 C-42.56343389 21.98882207 -70.48887699 53.01654467 -84.10522461 95.26806641 C-95.69674218 133.14568726 -90.84342801 174.85951809 -73 210 C-57.85436178 238.15393576 -35.42808766 258.243439 -8 274 C-8.28050806 276.81403301 -8.57381304 279.62567253 -8.875 282.4375 C-8.95363281 283.23994141 -9.03226562 284.04238281 -9.11328125 284.86914062 C-9.33845763 286.92170994 -9.66222587 288.96293009 -10 291 C-12 292 -12 292 -14.94921875 291.06640625 C-16.19977475 290.57634186 -17.44559899 290.07410073 -18.6875 289.5625 C-19.35378418 289.29026611 -20.02006836 289.01803223 -20.70654297 288.73754883 C-58.10633798 273.07742794 -87.62219424 243.98197407 -103.8125 206.875 C-111.35226059 187.58600117 -115.23367615 168.36238031 -115.25 147.625 C-115.25067474 146.85889404 -115.25134949 146.09278809 -115.25204468 145.3034668 C-115.23651142 134.22520683 -114.81398667 123.76999717 -112 113 C-111.64433797 111.51957767 -111.28887874 110.03910661 -110.93359375 108.55859375 C-101.54937769 71.05745622 -76.72310133 37.17057339 -43.69458008 17.05249023 C-32.99254808 10.70080031 -22.09511069 5.58202486 -10.3125 1.5625 C-9.52109619 1.29083008 -8.72969238 1.01916016 -7.91430664 0.73925781 C-2.24572326 -1.12286163 -2.24572326 -1.12286163 0 0 Z " fill="#ffc107" transform="translate(115,21)"/>
<path d="M0 0 C0.70456329 -0.00817749 1.40912659 -0.01635498 2.13504028 -0.02478027 C4.45924037 -0.04952985 6.78338 -0.06611981 9.10766602 -0.08056641 C9.90313402 -0.08589008 10.69860203 -0.09121376 11.51817513 -0.09669876 C15.72548584 -0.1233799 19.93276734 -0.14277422 24.14013672 -0.15722656 C27.61956965 -0.17058519 31.09841881 -0.19847936 34.57763672 -0.23925781 C38.78389379 -0.28855097 42.98962006 -0.31334244 47.19615364 -0.32045364 C48.79695499 -0.32716666 50.39774446 -0.34239026 51.99838066 -0.36634445 C54.23913272 -0.39797613 56.47783318 -0.39803774 58.71875 -0.390625 C60.62925392 -0.40275528 60.62925392 -0.40275528 62.57835388 -0.41513062 C66.82749959 0.3570467 68.29563606 1.83127597 70.92407227 5.19287109 C71.58813477 8.56787109 71.58813477 8.56787109 71.54907227 12.19287109 C71.5684082 13.98724609 71.5684082 13.98724609 71.58813477 15.81787109 C70.94184366 19.10255061 70.28859374 20.87297671 67.83935547 23.16513062 C63.28322952 25.60994664 57.55090371 24.78361037 52.52954102 24.68115234 C50.57580315 24.67054024 50.57580315 24.67054024 48.58259583 24.65971375 C45.13143342 24.64068622 41.68133488 24.59162548 38.23059082 24.53619385 C34.70473622 24.48490758 31.17870853 24.46217992 27.65258789 24.43701172 C20.74260343 24.38349973 13.83349855 24.29560057 6.92407227 24.19287109 C6.92407227 32.11287109 6.92407227 40.03287109 6.92407227 48.19287109 C11.4931543 48.10585937 11.4931543 48.10585937 16.15454102 48.01708984 C19.10999957 47.97807812 22.06542926 47.94772842 25.02099609 47.91821289 C27.07255932 47.89309303 29.12403327 47.85899073 31.17529297 47.81567383 C34.12693318 47.75491107 37.07738877 47.72663617 40.02954102 47.70458984 C40.9443071 47.67878342 41.85907318 47.65297699 42.80155945 47.62638855 C47.31999527 47.62440554 49.29244045 47.716704 53.00097656 50.51245117 C55.45052781 53.92664733 55.59406123 56.01789564 55.54907227 60.19287109 C55.5684082 61.98724609 55.5684082 61.98724609 55.58813477 63.81787109 C54.71752716 68.24260621 53.51981658 69.48215407 49.92407227 72.19287109 C46.61592423 72.87178278 43.39461136 72.7760842 40.02954102 72.68115234 C38.60850822 72.67054024 38.60850822 72.67054024 37.1587677 72.65971375 C34.14222205 72.63179443 31.12755387 72.56906024 28.11157227 72.50537109 C26.06277101 72.48028505 24.01394056 72.45747242 21.96508789 72.43701172 C16.95069606 72.38197568 11.93770213 72.29571965 6.92407227 72.19287109 C6.95025635 73.34811279 6.97644043 74.50335449 7.00341797 75.69360352 C7.09407574 79.98914135 7.15137777 84.28459504 7.19873047 88.58081055 C7.22383929 90.43837719 7.2579336 92.29584537 7.30126953 94.15307617 C7.36208351 96.82674467 7.39031747 99.49910475 7.41235352 102.17333984 C7.43815994 103.00061081 7.46396637 103.82788177 7.49055481 104.68022156 C7.49264129 108.9919829 7.31648248 110.68159375 4.60449219 114.21508789 C1.19165075 116.73329798 -0.86478038 116.86324984 -5.07592773 116.81787109 C-6.27217773 116.83076172 -7.46842773 116.84365234 -8.70092773 116.85693359 C-13.12096705 115.98724993 -14.35905187 114.77619427 -17.07592773 111.19287109 C-17.79379682 107.93697733 -17.72895353 104.75596194 -17.67529297 101.43310547 C-17.67923569 100.45529617 -17.68317841 99.47748688 -17.6872406 98.470047 C-17.69394688 95.24171522 -17.66479461 92.01480128 -17.63452148 88.78662109 C-17.63027068 86.54130324 -17.62794273 84.295981 -17.62745667 82.05065918 C-17.62129147 77.34639552 -17.59859226 72.64260804 -17.56298828 67.93847656 C-17.51771616 61.90914582 -17.50296223 55.88024643 -17.49925137 49.85076141 C-17.49482175 45.21478014 -17.479516 40.57888936 -17.46037483 35.94294739 C-17.45149684 33.71980025 -17.4447648 31.49664348 -17.44021416 29.27348328 C-17.43116749 26.16636958 -17.40877236 23.05964489 -17.38232422 19.95263672 C-17.38165955 19.03404373 -17.38099487 18.11545074 -17.38031006 17.16902161 C-17.31403961 11.52546215 -16.93502535 7.42378823 -13.20092773 2.94287109 C-9.21085976 -0.34306724 -5.03364222 0.05085714 0 0 Z " fill="#F2F0F0" transform="translate(109.075927734375,99.80712890625)"/>
<path d="M0 0 C9.14415936 3.78649898 14.49612344 9.38772793 18.5859375 18.31640625 C18.90691406 18.9815625 19.22789062 19.64671875 19.55859375 20.33203125 C21.58450195 25.26959356 21.89000485 30.14934541 21.9609375 35.44140625 C21.98184448 36.44506226 21.98184448 36.44506226 22.00317383 37.46899414 C21.95550272 42.49055708 20.75541331 45.89710366 18.5859375 50.31640625 C16.5859375 49.31640625 14.5859375 48.31640625 12.5859375 47.31640625 C8.50384372 46.61580903 8.50384372 46.61580903 4.5859375 47.31640625 C0.94565107 50.33518036 -1.78430148 53.9001803 -2.98828125 58.51953125 C-3.19310111 62.22041416 -2.45633134 64.25300299 -0.4140625 67.31640625 C0.5759375 68.30640625 0.5759375 68.30640625 1.5859375 69.31640625 C-3.39527832 72.6372168 -8.7159996 71.43484136 -14.4140625 70.31640625 C-23.45811744 66.45565015 -28.43219298 59.0320695 -32.2890625 50.31640625 C-36.07985349 39.72918092 -35.8044844 28.48835884 -31.734375 18 C-25.72426325 5.78418114 -14.1471702 -4.0060757 0 0 Z " fill="#ffc107" transform="translate(398.4140625,116.68359375)"/>
<path d="M0 0 C0.66 0 1.32 0 2 0 C4.14132334 4.23328993 6.2774277 8.4691561 8.40869141 12.70751953 C9.13479257 14.14965065 9.86232665 15.59106122 10.59130859 17.03173828 C11.63754818 19.10001872 12.67864446 21.170817 13.71875 23.2421875 C14.21091003 24.21102371 14.21091003 24.21102371 14.7130127 25.19943237 C17 29.77225659 17 29.77225659 17 32 C6.44 32 -4.12 32 -15 32 C-13.5207999 27.56239971 -12.04322781 23.8503139 -9.9609375 19.7265625 C-9.38085938 18.57285156 -8.80078125 17.41914063 -8.203125 16.23046875 C-7.59383809 15.02860117 -6.98446198 13.82677881 -6.375 12.625 C-5.75744122 11.39992668 -5.14025018 10.1746679 -4.5234375 8.94921875 C-3.01922833 5.96430368 -1.51130878 2.98132497 0 0 Z " fill="#FEC450" transform="translate(255,300)"/>
</svg>
