<?xml version="1.0" standalone="no"?>
<!DOCTYPE svg PUBLIC "-//W3C//DTD SVG 20010904//EN"
 "http://www.w3.org/TR/2001/REC-SVG-20010904/DTD/svg10.dtd">
<svg version="1.0" xmlns="http://www.w3.org/2000/svg"
 width="512.000000pt" height="512.000000pt" viewBox="0 0 512.000000 512.000000"
 preserveAspectRatio="xMidYMid meet">

<g transform="translate(0.000000,512.000000) scale(0.100000,-0.100000)"
fill="#ffc107" stroke="none">
<path d="M955 5106 c-84 -21 -147 -57 -211 -121 -180 -179 -177 -457 5 -635
31 -30 80 -66 109 -79 l52 -24 0 -1674 0 -1673 -150 0 -150 0 0 -150 0 -150
-132 0 -133 0 -171 -298 -171 -297 529 -3 c291 -1 765 -1 1052 0 l523 3 -171
297 -171 298 -127 0 -128 0 0 150 0 150 -150 0 -150 0 0 1673 0 1674 52 24
c29 13 78 49 109 79 182 178 184 455 4 636 -112 113 -269 158 -420 120z"/>
<path d="M3550 4514 c-289 -34 -546 -104 -826 -224 -64 -28 -201 -95 -303
-149 -309 -165 -427 -207 -621 -217 -87 -5 -120 -3 -193 15 -49 11 -90 21 -93
21 -2 0 -4 -411 -4 -914 l0 -913 63 -8 c216 -26 585 -20 806 14 412 64 717
192 1012 425 103 81 205 134 289 148 90 15 163 -3 397 -97 103 -41 189 -72
192 -70 8 8 -59 382 -90 502 -46 182 -122 366 -210 515 l-22 37 24 21 c62 53
230 157 346 215 156 77 282 129 563 230 118 43 219 81 223 85 9 8 -318 143
-514 211 -284 99 -545 147 -829 153 -96 3 -191 2 -210 0z"/>
</g>
</svg>
