<?xml version="1.0" encoding="UTF-8"?>
<svg version="1.1" xmlns="http://www.w3.org/2000/svg" width="512" height="512">
<path d="M0 0 C1.45108658 0.00273422 1.45108658 0.00273422 2.93148804 0.00552368 C17.26440977 0.05095174 31.21023917 0.55983928 45.3125 3.3125 C46.65803955 3.55395752 46.65803955 3.55395752 48.03076172 3.80029297 C107.84088904 14.62287989 165.35495829 48.68064457 202.3125 97.3125 C202.72918945 97.85277832 203.14587891 98.39305664 203.57519531 98.94970703 C211.2584873 108.9447116 218.00092968 119.40459036 224.3125 130.3125 C224.70679199 130.98974121 225.10108398 131.66698242 225.50732422 132.36474609 C238.68961173 155.2833756 247.29510918 180.85822563 252.625 206.6875 C252.77243652 207.39817627 252.91987305 208.10885254 253.07177734 208.84106445 C256.05713787 224.48358366 256.6873098 240.11919606 256.625 256 C256.62226578 257.45108658 256.62226578 257.45108658 256.61947632 258.93148804 C256.57404826 273.26440977 256.06516072 287.21023917 253.3125 301.3125 C253.15152832 302.20952637 252.99055664 303.10655273 252.82470703 304.03076172 C242.00212011 363.84088904 207.94435543 421.35495829 159.3125 458.3125 C158.77222168 458.72918945 158.23194336 459.14587891 157.67529297 459.57519531 C147.6802884 467.2584873 137.22040964 474.00092968 126.3125 480.3125 C125.63525879 480.70679199 124.95801758 481.10108398 124.26025391 481.50732422 C101.3416244 494.68961173 75.76677437 503.29510918 49.9375 508.625 C49.22682373 508.77243652 48.51614746 508.91987305 47.78393555 509.07177734 C32.14141634 512.05713787 16.50580394 512.6873098 0.625 512.625 C-0.34239105 512.62317719 -1.3097821 512.62135437 -2.30648804 512.61947632 C-16.63940977 512.57404826 -30.58523917 512.06516072 -44.6875 509.3125 C-45.58452637 509.15152832 -46.48155273 508.99055664 -47.40576172 508.82470703 C-107.21588904 498.00212011 -164.72995829 463.94435543 -201.6875 415.3125 C-202.10418945 414.77222168 -202.52087891 414.23194336 -202.95019531 413.67529297 C-210.6334873 403.6802884 -217.37592968 393.22040964 -223.6875 382.3125 C-224.08179199 381.63525879 -224.47608398 380.95801758 -224.88232422 380.26025391 C-238.06461173 357.3416244 -246.67010918 331.76677437 -252 305.9375 C-252.14743652 305.22682373 -252.29487305 304.51614746 -252.44677734 303.78393555 C-255.43213787 288.14141634 -256.0623098 272.50580394 -256 256.625 C-255.99817719 255.65760895 -255.99635437 254.6902179 -255.99447632 253.69351196 C-255.94904826 239.36059023 -255.44016072 225.41476083 -252.6875 211.3125 C-252.44604248 209.96696045 -252.44604248 209.96696045 -252.19970703 208.59423828 C-241.37712011 148.78411096 -207.31935543 91.27004171 -158.6875 54.3125 C-158.14722168 53.89581055 -157.60694336 53.47912109 -157.05029297 53.04980469 C-147.0552884 45.3665127 -136.59540964 38.62407032 -125.6875 32.3125 C-125.01025879 31.91820801 -124.33301758 31.52391602 -123.63525391 31.11767578 C-100.7166244 17.93538827 -75.14177437 9.32989082 -49.3125 4 C-48.60182373 3.85256348 -47.89114746 3.70512695 -47.15893555 3.55322266 C-31.51641634 0.56786213 -15.88080394 -0.0623098 0 0 Z " fill="#ffc107" transform="translate(255.6875,-0.3125)"/>
<path d="M0 0 C1.52340752 -0.00128403 1.52340752 -0.00128403 3.07759094 -0.00259399 C6.4593232 -0.00423677 9.84100489 0.00125411 13.22273254 0.00672913 C15.69711207 0.00703573 18.17149168 0.00690151 20.64587116 0.00636387 C26.58366827 0.00616155 32.52144611 0.01042901 38.4592384 0.0168652 C45.33479078 0.02409329 52.21033564 0.02486148 59.08589172 0.02565002 C77.21980526 0.03089051 95.35371542 0.04485172 113.48762512 0.05775452 C174.27981262 0.08869202 174.27981262 0.08869202 236.30012512 0.12025452 C236.30012512 108.03025452 236.30012512 215.94025452 236.30012512 327.12025452 C193.75075012 327.20275452 151.20137512 327.28525452 107.36262512 327.37025452 C93.92294006 327.40667053 80.483255 327.44308655 66.63630676 327.48060608 C50.23652649 327.49867249 50.23652649 327.49867249 42.56134033 327.50202942 C37.1958305 327.50575903 31.83048221 327.52042932 26.46502686 327.54255676 C19.62089415 327.57074055 12.77699403 327.57821951 5.93280685 327.57254362 C3.42110213 327.5737305 0.90938938 327.58166362 -1.6022681 327.59711504 C-4.99678311 327.6170275 -8.3904069 327.61220916 -11.78494263 327.60127258 C-12.76619897 327.61292324 -13.74745531 327.6245739 -14.75844669 327.63657761 C-23.58133745 327.5602404 -30.64591559 324.80765243 -37.19596863 318.83509827 C-41.48598768 313.94336226 -43.81924861 307.81665503 -43.83688927 301.35932827 C-43.84450108 299.88091761 -43.84450108 299.88091761 -43.85226667 298.37264007 C-43.85276443 297.28706143 -43.85326218 296.20148278 -43.85377502 295.08300781 C-43.85815728 293.93185488 -43.86253953 292.78070194 -43.86705458 291.59466559 C-43.87812319 288.39410012 -43.88466829 285.19356225 -43.88923573 281.99298203 C-43.89519237 278.54290346 -43.90680218 275.09284291 -43.91752625 271.64277649 C-43.94205071 263.3072432 -43.95667842 254.97170395 -43.96958631 246.63614568 C-43.97329852 244.28138994 -43.97727174 241.92663478 -43.98133898 239.57187963 C-44.00657816 224.94663502 -44.02862957 210.32138947 -44.04106712 195.69612789 C-44.04399679 192.3082879 -44.04695845 188.92044795 -44.04997253 185.53260803 C-44.05071858 184.69058366 -44.05146464 183.84855929 -44.05223329 182.98101903 C-44.06488153 169.34676399 -44.09809718 155.71263952 -44.13977437 142.07844549 C-44.18222153 128.07744771 -44.20576545 114.07651672 -44.21098769 100.07545477 C-44.21439889 92.21564922 -44.22611944 84.35604762 -44.25909042 76.49630547 C-44.28713056 69.80103237 -44.29807305 63.10600503 -44.28689496 56.41067778 C-44.28171811 52.99664739 -44.28453029 49.58313133 -44.3093605 46.1691761 C-44.33204138 42.46115197 -44.32375978 38.75441776 -44.30787659 35.04638672 C-44.32175867 33.97642312 -44.33564076 32.90645953 -44.34994352 31.8040728 C-44.25961335 23.22674873 -41.85214172 16.74536138 -36.19987488 10.24525452 C-35.37487488 9.54400452 -34.54987488 8.84275452 -33.69987488 8.12025452 C-32.91612488 7.41900452 -32.13237488 6.71775452 -31.32487488 5.99525452 C-21.98070129 -0.67915519 -11.0619529 -0.03469142 0 0 Z " fill="#FD9E00" transform="translate(157.6998748779297,88.87974548339844)"/>
<path d="M0 0 C4.11634291 3.52829393 7.9853281 6.86069429 11.77656555 10.66304016 C12.6583699 11.54491501 13.54017426 12.42678986 14.44869995 13.33538818 C15.40244824 14.29426831 16.35615159 15.25319312 17.30981445 16.2121582 C18.33199555 17.23626173 19.35440697 18.26013541 20.37702942 19.28379822 C22.56591513 21.47582797 24.75324189 23.66939706 26.93935585 25.86419106 C30.39480548 29.33322289 33.85411994 32.79838352 37.31401062 36.26298523 C44.64981546 43.60985711 51.98136324 50.96097048 59.3125 58.3125 C67.24525044 66.26727895 75.17873641 74.22131622 83.11708802 82.17050618 C86.55844328 85.61685003 89.99734451 89.06561864 93.43440115 92.5162493 C95.56673823 94.65602512 97.70112658 96.79374559 99.83608818 98.93090248 C100.8278613 99.92455331 101.8187668 100.91907098 102.80875397 101.91450119 C104.15632354 103.26924851 105.50724433 104.62065995 106.85835266 105.97187805 C107.61434911 106.73009511 108.37034555 107.48831217 109.14925098 108.2695055 C110.89450958 110.06567635 110.89450958 110.06567635 113 111 C113.57836914 113.06616211 113.57836914 113.06616211 114.03515625 115.77734375 C114.20466797 116.76669922 114.37417969 117.75605469 114.54882812 118.77539062 C114.71833984 119.81888672 114.88785156 120.86238281 115.0625 121.9375 C115.23587891 122.94619141 115.40925781 123.95488281 115.58789062 124.99414062 C117.20184915 134.59750302 118.15202897 144.05405346 118.203125 153.79296875 C118.21013931 154.69350983 118.21715363 155.5940509 118.22438049 156.5218811 C118.24177902 159.41047226 118.2482324 162.29885837 118.25 165.1875 C118.25067474 166.17487152 118.25134949 167.16224304 118.25204468 168.17953491 C118.23629657 182.67088264 117.78341075 196.74020251 115 211 C114.83902832 211.89702637 114.67805664 212.79405273 114.51220703 213.71826172 C103.68962011 273.52838904 69.63185543 331.04245829 21 368 C20.45972168 368.41668945 19.91944336 368.83337891 19.36279297 369.26269531 C9.3677884 376.9459873 -1.09209036 383.68842968 -12 390 C-12.67724121 390.39429199 -13.35448242 390.78858398 -14.05224609 391.19482422 C-36.9708756 404.37711173 -62.54572563 412.98260918 -88.375 418.3125 C-89.08567627 418.45993652 -89.79635254 418.60737305 -90.52856445 418.75927734 C-105.50150594 421.61684957 -120.40245143 422.30529922 -135.60742188 422.20581055 C-138.52482734 422.18734284 -141.44191659 422.18530327 -144.359375 422.18554688 C-146.2500027 422.18063649 -148.1406283 422.17481028 -150.03125 422.16796875 C-151.31279968 422.16629951 -151.31279968 422.16629951 -152.62023926 422.16459656 C-154.21972802 422.15218322 -155.81923375 422.12192368 -157.41790199 422.06921482 C-159.05189432 422.02541459 -160.68787291 422.02171772 -162.32163811 422.07329941 C-169.13238169 421.96437987 -172.42775431 419.62354746 -177.20956421 414.93243408 C-178.05258087 414.06020203 -178.89559753 413.18796997 -179.76416016 412.28930664 C-180.68245605 411.37553757 -181.60075195 410.46176849 -182.546875 409.52030945 C-185.05038211 407.02787295 -187.52516826 404.50861976 -189.99527407 401.98313451 C-192.58744281 399.34195325 -195.20450187 396.72565824 -197.81869507 394.10630798 C-202.19936064 389.71002459 -206.56314155 385.29756612 -210.91552734 380.87329102 C-217.06006104 374.62738013 -223.23640633 368.41366237 -229.4184525 362.2049123 C-233.69775069 357.90460116 -237.96902073 353.59631945 -242.23902464 349.28678203 C-243.27507316 348.24131712 -244.3113934 347.19612143 -245.34798098 346.151191 C-248.74969814 342.72175406 -252.14202653 339.28331556 -255.52978516 335.84008789 C-256.39304413 334.96988007 -257.2563031 334.09967224 -258.14572144 333.20309448 C-259.31043976 332.01474251 -259.31043976 332.01474251 -260.49868774 330.80238342 C-261.17888788 330.1123375 -261.85908802 329.42229158 -262.55990028 328.71133518 C-264 327 -264 327 -264 325 C-133.32 325.495 -133.32 325.495 0 326 C0 218.42 0 110.84 0 0 Z " fill="#FEB200" transform="translate(394,90)"/>
<path d="M0 0 C1.52705416 -0.00128164 1.52705416 -0.00128164 3.0849579 -0.00258917 C6.46423456 -0.00422397 9.84346053 0.00124437 13.22273254 0.00672913 C15.65782164 0.00701146 18.09291083 0.00685237 20.52799988 0.00628662 C25.75418771 0.00605959 30.98036429 0.00887868 36.20654869 0.01452446 C43.76255862 0.02268177 51.31856252 0.025259 58.87457637 0.02651245 C71.13630244 0.02869634 83.39802182 0.03533842 95.65974426 0.04481506 C107.56469184 0.05400636 119.4696376 0.06107878 131.37458801 0.06532288 C132.47693494 0.06571696 132.47693494 0.06571696 133.6015515 0.06611901 C137.28864011 0.06742413 140.97572873 0.06868782 144.66281736 0.06993091 C175.2085914 0.08028288 205.75435733 0.09795791 236.30012512 0.12025452 C236.30012512 0.45025452 236.30012512 0.78025452 236.30012512 1.12025452 C191.09012512 1.12025452 145.88012512 1.12025452 99.30012512 1.12025452 C99.63012512 15.97025452 99.96012512 30.82025452 100.30012512 46.12025452 C93.86512512 48.10025452 93.86512512 48.10025452 87.30012512 50.12025452 C84.34981138 51.40465834 81.60654361 52.65886337 78.80012512 54.18275452 C78.08654846 54.56850647 77.3729718 54.95425842 76.63777161 55.35169983 C57.54433978 66.05989196 44.06831588 83.61081332 37.42512512 104.43275452 C32.66550447 123.44784312 31.5990338 143.78063608 39.30012512 162.12025452 C39.58420227 162.79878479 39.86827942 163.47731506 40.16096497 164.17640686 C49.59375704 185.96129955 65.70825823 202.39299479 87.73762512 211.55775452 C91.88796799 213.13992942 95.91058107 214.0228685 100.30012512 215.12025452 C99.97012512 233.93025452 99.64012512 252.74025452 99.30012512 272.12025452 C90.60926575 272.1344342 81.91840637 272.14861389 72.96418762 272.16322327 C66.74819032 272.18583909 60.53226735 272.2115802 54.31630898 272.24182415 C46.27035656 272.28055691 38.22459598 272.31199048 30.17854309 272.31581116 C23.8065512 272.31886056 17.43489352 272.33948121 11.0630306 272.38077909 C7.69232759 272.40202317 4.32209867 272.41475461 0.95132828 272.40640831 C-2.82142868 272.40149455 -6.5928141 272.42763375 -10.36540222 272.46083069 C-11.47023956 272.45220505 -12.5750769 272.44357941 -13.71339417 272.43469238 C-22.42444639 272.5627068 -28.90349781 274.901587 -35.57487488 280.55775452 C-37.84630641 283.29683371 -39.80275267 286.11102619 -41.69987488 289.12025452 C-42.35987488 290.11025452 -43.01987488 291.10025452 -43.69987488 292.12025452 C-43.81437809 258.02149595 -43.90245307 223.92278531 -43.95520153 189.8238771 C-43.96145488 185.79604166 -43.96792651 181.76820659 -43.97453308 177.7403717 C-43.97584463 176.93851943 -43.97715619 176.13666717 -43.97850748 175.31051634 C-44.00025008 162.33566119 -44.03966526 149.36091706 -44.08563886 136.38612773 C-44.13243545 123.06776021 -44.16017703 109.74945076 -44.17031735 96.43100441 C-44.1771699 88.21611463 -44.19879431 80.00153873 -44.23945721 71.78674559 C-44.26593519 66.14966052 -44.27386449 60.51273716 -44.26738176 54.87559445 C-44.26418661 51.62558345 -44.27175631 48.37623358 -44.29590225 45.12629509 C-44.32084602 41.59545617 -44.31477352 38.06595091 -44.30114746 34.53507996 C-44.31571167 33.51754328 -44.33027588 32.5000066 -44.34528142 31.45163548 C-44.25784096 23.046454 -41.73020589 16.60513519 -36.19987488 10.24525452 C-35.37487488 9.54400452 -34.54987488 8.84275452 -33.69987488 8.12025452 C-32.91612488 7.41900452 -32.13237488 6.71775452 -31.32487488 5.99525452 C-21.98069991 -0.67915618 -11.06194933 -0.03468343 0 0 Z " fill="#FD9E00" transform="translate(157.6998748779297,88.87974548339844)"/>
<path d="M0 0 C0.9081726 -0.00199105 1.8163452 -0.0039821 2.75203818 -0.00603348 C3.75105527 -0.00312064 4.75007235 -0.0002078 5.77936268 0.00279331 C7.36966768 0.00151167 7.36966768 0.00151167 8.99210006 0.00020415 C12.56205841 -0.00144939 16.13197027 0.0040687 19.70192432 0.00952244 C22.25405851 0.00980436 24.80619277 0.00964647 27.35832691 0.00907993 C32.86185458 0.00885185 38.36536715 0.01169727 43.86889172 0.01731777 C51.82609868 0.02543883 59.7832999 0.02804862 67.74051056 0.02930576 C80.65001501 0.03149533 93.55951315 0.03815283 106.46901417 0.04760838 C119.01068051 0.05678496 131.55234514 0.06386459 144.09401417 0.06811619 C144.86685785 0.06837891 145.63970154 0.06864164 146.43596473 0.06891232 C150.31302727 0.07021734 154.19008982 0.07148105 158.06715238 0.07272422 C190.24009302 0.08309386 222.41302193 0.10153057 254.58595753 0.12304783 C254.58595753 18.27304783 254.58595753 36.42304783 254.58595753 55.12304783 C221.74407342 55.21126041 188.90230445 55.28510518 156.06033749 55.32730915 C152.18142612 55.33231186 148.302515 55.33748916 144.42360401 55.34277439 C143.65139558 55.34382363 142.87918715 55.34487287 142.08357846 55.34595391 C129.58659049 55.36335041 117.08967627 55.39488392 104.59273202 55.43165901 C91.7659224 55.46908949 78.93915136 55.49128813 66.11228937 55.49940181 C58.19993089 55.50488523 50.28778085 55.52219252 42.37548655 55.5547137 C36.30424883 55.57839381 30.23318972 55.58086236 24.16190052 55.57547855 C21.67426681 55.57657848 19.18662516 55.58452819 16.69903851 55.59986973 C13.29936671 55.6198069 9.90058264 55.6149725 6.50088978 55.6040659 C5.51934974 55.61571726 4.53780971 55.62736863 3.52652603 55.63937306 C-5.29598194 55.56300884 -12.36040479 52.81015249 -18.91013622 46.83789158 C-24.84830362 40.06683837 -25.76195615 32.34287133 -25.69919872 23.64648533 C-25.32176604 18.98286507 -24.06462598 15.9135676 -21.41404247 12.12304783 C-20.87779247 11.25679783 -20.34154247 10.39054783 -19.78904247 9.49804783 C-14.50457125 4.21357661 -7.58265531 -0.00366489 0 0 Z " fill="#FEDFB1" transform="translate(139.41404247283936,360.8769521713257)"/>
<path d="M0 0 C28.38 0 56.76 0 86 0 C86.33 14.85 86.66 29.7 87 45 C80.565 46.98 80.565 46.98 74 49 C71.04968626 50.28440383 68.30641849 51.53860886 65.5 53.0625 C64.78642334 53.44825195 64.07284668 53.83400391 63.33764648 54.23144531 C44.24421466 64.93963745 30.76819076 82.49055881 24.125 103.3125 C19.36537934 122.3275886 18.29890867 142.66038157 26 161 C26.42611572 162.01779541 26.42611572 162.01779541 26.86083984 163.05615234 C36.29363191 184.84104503 52.40813311 201.27274028 74.4375 210.4375 C78.58784287 212.0196749 82.61045595 212.90261399 87 214 C86.67 232.81 86.34 251.62 86 271 C57.62 271 29.24 271 0 271 C0 181.57 0 92.14 0 0 Z " fill="#ffc107" transform="translate(171,90)"/>
<path d="M0 0 C0.33 6.6 0.66 13.2 1 20 C3.536875 20.7734375 3.536875 20.7734375 6.125 21.5625 C12.81099051 23.98907571 15.82554688 27.3429652 19.375 33.3125 C20.91198473 39.92153434 20.82938242 46.20638897 17.390625 52.17578125 C14.33806274 56.18012556 10.63938163 59.32219962 5.703125 60.58984375 C3.5 60.875 3.5 60.875 0 61 C0 63.31 0 65.62 0 68 C5.28 68 10.56 68 16 68 C16 96.05 16 124.1 16 153 C10.72 153 5.44 153 0 153 C0 159.93 0 166.86 0 174 C-22.55441192 175.1277206 -43.76832336 165.58637571 -60.375 150.625 C-75.25863258 136.64553598 -86.38053435 115.54016138 -87.40625 94.9296875 C-88.02741272 70.4651473 -82.98994923 50.49232607 -68 31 C-67.44828125 30.26394531 -66.8965625 29.52789062 -66.328125 28.76953125 C-54.1374186 13.65184831 -35.1343952 4.24308469 -16.5 0.25 C-10.99557023 -0.14317356 -5.51757089 -0.05688217 0 0 Z " fill="#00000" transform="translate(278,133)"/>
<path d="M0 0 C27.38678475 -0.99352086 50.26169984 4.51557669 71.25 23.3125 C84.0357769 35.21487359 92.87378366 51.08251301 97 68 C97.22429687 68.91136719 97.44859375 69.82273437 97.6796875 70.76171875 C102.25587949 92.23220858 97.08571994 115.29756092 86 134 C71.81529121 155.23684189 51.18476259 169.56304748 26.03125 174.59375 C21.01418126 175.26614066 16.05719494 175.05619105 11 175 C11 168.07 11 161.14 11 154 C16.28 154 21.56 154 27 154 C27 125.95 27 97.9 27 69 C21.72 69 16.44 69 11 69 C11 66.69 11 64.38 11 62 C11.66386719 61.82984375 12.32773437 61.6596875 13.01171875 61.484375 C19.90677017 59.59201052 24.59561125 57.76701975 28.3125 51.375 C30.79400706 45.92581308 31.10486715 40.43867745 29.26953125 34.7265625 C26.29879588 28.20307013 22.2424507 25.41265981 15.6875 22.75 C14.140625 22.1725 12.59375 21.595 11 21 C11 14.4 11 7.8 11 1 C7.37 1 3.74 1 0 1 C0 0.67 0 0.34 0 0 Z " fill="#00000" transform="translate(267,132)"/>
<path d="M0 0 C1.21090302 -0.00087616 2.42180603 -0.00175232 3.66940308 -0.00265503 C6.9585901 0.00078538 10.24620375 0.03067029 13.53508043 0.07278872 C16.98363308 0.11054359 20.43222349 0.11384038 23.88095093 0.12094116 C30.39744881 0.13951806 36.91333576 0.18865618 43.42956579 0.2490381 C51.5836228 0.32294092 59.73778104 0.35558215 67.89208984 0.38818359 C82.42251249 0.44645774 96.95160391 0.56667353 111.48193359 0.68115234 C111.48193359 18.50115234 111.48193359 36.32115234 111.48193359 54.68115234 C81.60462694 54.84180702 81.60462694 54.84180702 66.82070255 54.88216782 C58.83292667 54.90431232 50.84531833 54.93240288 42.85766602 54.98291016 C36.53234864 55.02288701 30.20715783 55.04861088 23.88171762 55.05750632 C20.53497864 55.06270299 17.18888717 55.07696663 13.84221077 55.10407257 C10.09828514 55.13318506 6.35510492 55.13710487 2.61108398 55.13525391 C0.96246117 55.15682556 0.96246117 55.15682556 -0.71946716 55.17883301 C-9.96559758 55.12949573 -17.12574287 52.67708193 -24.01416016 46.39599609 C-29.95232755 39.62494288 -30.86598008 31.90097584 -30.80322266 23.20458984 C-30.42578997 18.54096958 -29.16864992 15.47167212 -26.51806641 11.68115234 C-25.98181641 10.81490234 -25.44556641 9.94865234 -24.89306641 9.05615234 C-17.443982 1.60706794 -10.28979948 -0.19756149 0 0 Z " fill="#FDF4DF" transform="translate(144.51806640625,361.31884765625)"/>
<path d="M0 0 C10.56 0 21.12 0 32 0 C32 27.72 32 55.44 32 84 C21.44 84 10.88 84 0 84 C0 56.28 0 28.56 0 0 Z " fill="#ffc107" transform="translate(262,202)"/>
<path d="M0 0 C5.28 0 10.56 0 16 0 C16 27.39 16 54.78 16 83 C10.72 83 5.44 83 0 83 C0 55.61 0 28.22 0 0 Z " fill="#ffc107" transform="translate(278,202)"/>
<path d="M0 0 C4.62463295 2.64398207 7.31777718 6.02690374 10 10.625 C11.65314658 17.23758631 11.49521503 23.54720965 8.09765625 29.55078125 C4.87839144 33.71531495 0.6575794 36.71830687 -4.3125 38.375 C-10.78351068 39.19263673 -15.75927053 38.45996516 -21.33203125 35.0078125 C-25.71693255 31.39264732 -28.86632862 26.08334246 -29.55078125 20.39453125 C-29.74730496 14.55053682 -28.89514619 10.09893238 -25.3125 5.375 C-18.0665135 -1.33154686 -9.4499122 -4.32971262 0 0 Z " fill="#ffc107" transform="translate(287.3125,155.625)"/>
<path d="M0 0 C0 13.2 0 26.4 0 40 C-10.59143969 38.67607004 -10.59143969 38.67607004 -15 34 C-18.60415413 28.78489819 -20.85075897 23.56584199 -20.41015625 17.16015625 C-19.07324965 10.11911481 -15.66829882 6.19052911 -9.90234375 2.12890625 C-6.33600584 0.01253735 -4.28298167 0 0 0 Z " fill="#ffc107" transform="translate(278,154)"/>
</svg>
