<?xml version="1.0" encoding="UTF-8"?>
<svg version="1.1" xmlns="http://www.w3.org/2000/svg" width="512" height="512">
<path d="M0 0 C1.175625 0.63615234 1.175625 0.63615234 2.375 1.28515625 C11.42714969 6.77455108 18.62550899 14.95551229 21.64453125 25.18359375 C23.67384908 33.60745266 24.16350795 42.16382813 24.23828125 50.80078125 C24.246353 51.71723923 24.25442474 52.6336972 24.26274109 53.57792664 C24.27649355 55.51164919 24.28725468 57.44539512 24.29516602 59.37915039 C24.30660607 61.31509761 24.32692889 63.25101532 24.35668945 65.18676758 C24.63672482 83.47667526 22.13280821 100.24145257 16.125 117.5625 C15.7542334 118.65747803 15.3834668 119.75245605 15.00146484 120.88061523 C11.00563469 132.42599002 6.42730651 143.74875829 1.78564453 155.04711914 C-1.1733422 162.26871888 -4.01088391 169.43699979 -6 177 C-4.03932044 178.96067956 -1.03097597 178.13124583 1.57998657 178.14344788 C2.52844452 178.14291916 3.47690247 178.14239044 4.45410156 178.1418457 C5.44773712 178.14532013 6.44137268 178.14879456 7.46511841 178.15237427 C9.63299241 178.15974912 11.80087404 178.16508524 13.96875763 178.16866493 C17.40857577 178.17581858 20.84825026 178.19148098 24.2880249 178.21000671 C34.07220377 178.26249912 43.85630865 178.31037187 53.640625 178.32592773 C59.62011686 178.3360588 65.59925433 178.36552369 71.57860565 178.40724754 C73.85094256 178.41950084 76.1233297 178.42468925 78.39569855 178.42244911 C108.39921709 178.4001696 108.39921709 178.4001696 120 189 C120.60328125 189.50144531 121.2065625 190.00289062 121.828125 190.51953125 C129.03293261 196.95687023 133.65613983 206.31221459 134.23828125 215.94140625 C134.54235863 228.5770541 132.84711915 237.68903084 125.26953125 248.125 C123.82384995 250.0783925 123.82384995 250.0783925 123 253 C123.50789063 253.4125 124.01578125 253.825 124.5390625 254.25 C134.40258211 262.52501271 140.24476146 271.43306844 141.875 284.4375 C142.53647564 296.3779833 139.46629173 307.38848166 131.78125 316.68359375 C128.08054841 320.53849124 125.1155692 323.25585163 120 325 C120.59748047 325.87398438 120.59748047 325.87398438 121.20703125 326.765625 C127.28345277 336.16855465 130.62251653 346.45977732 128.49609375 357.65234375 C126.99716141 363.89646762 124.75640843 368.81710735 121 374 C120.443125 374.86625 119.88625 375.7325 119.3125 376.625 C113.50750087 382.586891 105.91588583 385.82026332 98 388 C98.433125 388.82177734 98.433125 388.82177734 98.875 389.66015625 C103.2187379 398.93584655 103.57353317 409.01623542 100.5625 418.8125 C96.36849273 428.63261458 89.30216414 434.50309003 79.796875 438.94140625 C75.34236111 440.62740243 71.26678761 441.12527995 66.52017212 441.13371277 C65.43060211 441.13797775 64.3410321 441.14224274 63.21844482 441.14663696 C62.03212463 441.14618378 60.84580444 441.14573059 59.62353516 441.14526367 C58.36562164 441.14862228 57.10770813 441.1519809 55.81167603 441.15544128 C52.35958264 441.16427247 48.90751407 441.16661963 45.45541048 441.16725707 C43.28371077 441.16797051 41.11201723 441.17011085 38.94031906 441.17275429 C31.31844438 441.1820197 23.69658716 441.18608954 16.07470703 441.18530273 C9.05140644 441.18470844 2.02818429 441.19512768 -4.99509656 441.2110464 C-11.07546535 441.22431928 -17.15580926 441.22947823 -23.23619235 441.22884732 C-26.84380314 441.22859711 -30.45134494 441.23117169 -34.05894089 441.24202538 C-69.86291159 441.34202231 -104.52195753 438.99177054 -139.3671875 430.34765625 C-141.08640439 429.92475287 -142.80572351 429.50226487 -144.52514648 429.0802002 C-148.68462197 428.05823888 -152.84268448 427.03071116 -157 426 C-156.99861731 424.81985683 -156.99861731 424.81985683 -156.99720669 423.61587238 C-156.9747057 404.08893555 -156.95837867 384.56200143 -156.94818783 365.03505421 C-156.94263122 354.67261671 -156.93400885 344.31019172 -156.92114198 333.9477607 C-156.91239094 326.63755304 -156.90802703 319.32734903 -156.90621245 312.01713645 C-156.90488338 307.46946453 -156.90142086 302.92181441 -156.89319992 298.37414932 C-156.86094043 279.91305933 -156.91423328 261.47003218 -157.46986616 243.016101 C-157.54255073 240.5594406 -157.60961174 238.10269554 -157.67457294 235.64581966 C-157.71691566 234.05625299 -157.7592748 232.46668675 -157.801651 230.87712097 C-157.82206304 230.10523813 -157.84247508 229.33335529 -157.86350566 228.53808206 C-157.98644324 224.0609012 -158.15188778 219.58790598 -158.35110998 215.11350489 C-158.43658295 213.04110291 -158.50124132 210.96927724 -158.55687523 208.89587593 C-158.624541 206.40836454 -158.72559126 203.92140784 -158.86881447 201.43710136 C-158.99046621 194.88432659 -158.1615057 191.4548414 -153.72032166 186.51057434 C-152.15131505 185.00242309 -150.57790761 183.49883605 -149 182 C-147.5785852 180.29179977 -146.1794037 178.56462509 -144.8125 176.8125 C-139.90996514 170.74679782 -134.57741963 165.11835023 -129.23046875 159.4453125 C-126.28322994 156.31539707 -123.42187921 153.12504386 -120.62109375 149.86328125 C-118.70537689 147.66136091 -116.72516424 145.52372876 -114.75 143.375 C-105.42043654 132.99824064 -97.14122876 121.98838403 -90 110 C-89.35675781 108.92234375 -88.71351563 107.8446875 -88.05078125 106.734375 C-75.640397 84.68265774 -67.25515006 59.92973815 -61.38671875 35.38671875 C-61.12995361 34.31381592 -60.87318848 33.24091309 -60.60864258 32.13549805 C-60.13806235 30.12429608 -59.68451207 28.10898879 -59.25268555 26.08911133 C-56.88197384 15.73102289 -51.93119186 7.00493105 -43 1 C-30.78495629 -6.5910524 -12.64958416 -6.8589806 0 0 Z " fill="#ffc107" transform="translate(332,36)"/>
<path d="M0 0 C0.78898682 -0.0049649 1.57797363 -0.00992981 2.39086914 -0.01504517 C5.00310131 -0.02965865 7.61527271 -0.03646814 10.22753906 -0.04199219 C12.04494223 -0.0477452 13.86234539 -0.05350291 15.67974854 -0.05926514 C19.49288211 -0.06977342 23.30599461 -0.07561692 27.11914062 -0.07910156 C31.99597095 -0.08457978 36.87252116 -0.10859412 41.74926376 -0.13707352 C45.50515546 -0.15573561 49.26098023 -0.16090744 53.01691437 -0.16243744 C54.81418638 -0.16545745 56.6114574 -0.17346394 58.40868378 -0.18662262 C60.92891974 -0.20375468 63.44847878 -0.20178536 65.96875 -0.1953125 C67.07407074 -0.20913467 67.07407074 -0.20913467 68.20172119 -0.22323608 C75.52576103 -0.16456823 81.61104245 2.4876702 87.24316406 7.16113281 C92.42412685 14.52100518 94.39188746 20.05084966 94.39706421 29.03443909 C94.40363759 30.41202476 94.40363759 30.41202476 94.41034377 31.81744045 C94.42374379 34.90799945 94.42991339 37.99852994 94.43603516 41.08911133 C94.44393528 43.29990264 94.45220417 45.51069266 94.46081543 47.72148132 C94.48704955 54.99432135 94.50234611 62.26716717 94.51660156 69.54003906 C94.52196098 72.04319703 94.52733849 74.54635497 94.53273392 77.04951286 C94.55436614 87.46287914 94.57325353 97.87624478 94.58435631 108.28962803 C94.58728589 110.99166938 94.59024757 113.69371069 94.59326172 116.39575195 C94.59400777 117.06731128 94.59475382 117.73887061 94.59552248 118.43078022 C94.60816602 129.30061152 94.64137578 140.17027887 94.68306355 151.04003359 C94.72553879 162.20695031 94.74865063 173.37380821 94.75427687 184.540811 C94.75792935 190.80774219 94.76994 197.07439558 94.80237961 203.34124947 C94.83247713 209.24036469 94.8387657 215.13903427 94.82699585 221.03820992 C94.82677525 223.19969342 94.83506901 225.3611977 94.85264969 227.52260971 C95.02045675 249.34689016 95.02045675 249.34689016 86.80566406 259.03613281 C80.31442366 264.41911266 75.77369156 266.30665695 67.44213867 266.35400391 C66.64821716 266.3621814 65.85429565 266.37035889 65.03631592 266.37878418 C62.40605414 266.40361457 59.77584644 266.42015246 57.14550781 266.43457031 C56.24503786 266.43989399 55.34456791 266.44521767 54.41681099 266.45070267 C49.6461281 266.47743018 44.87547128 266.49680218 40.10473633 266.51123047 C36.16764962 266.52454296 32.23108449 266.55234616 28.29418945 266.59326172 C23.53146042 266.64275588 18.7692027 266.66737262 14.00622749 266.67445755 C12.19744282 266.68114384 10.38866757 266.69629705 8.58003044 266.72034836 C-11.47407933 266.97170946 -11.47407933 266.97170946 -19.64076233 259.41879272 C-27.00200793 251.68281515 -27.90981053 242.45985419 -27.89054871 232.29997253 C-27.89281426 231.41914877 -27.89507982 230.538325 -27.89741403 229.63080961 C-27.90373365 226.6854189 -27.90292597 223.74007446 -27.90209961 220.79467773 C-27.90509237 218.68034302 -27.90849517 216.56600886 -27.91227722 214.45167542 C-27.92110953 208.71193713 -27.92345502 202.97221375 -27.92409301 197.23246932 C-27.92480395 193.64531216 -27.92693912 190.05815879 -27.92959023 186.47100258 C-27.93884112 173.95324081 -27.94292543 161.43548969 -27.94213867 148.91772461 C-27.94153795 137.25481873 -27.9520893 125.59195911 -27.96788234 113.92906493 C-27.98096392 103.9110496 -27.98632231 93.89304938 -27.98568326 83.87502557 C-27.98542846 77.89387753 -27.98827014 71.91277061 -27.99886131 65.93163109 C-28.00855264 60.30507938 -28.00861432 54.67860801 -28.00134468 49.05205345 C-28.00030013 46.99014163 -28.00265403 44.92822477 -28.00870514 42.86632156 C-28.01644634 40.04520181 -28.01176615 37.22435803 -28.0040741 34.40324402 C-28.00921766 33.59310748 -28.01436122 32.78297094 -28.01966065 31.9482848 C-27.96264291 22.44325995 -26.19583089 14.40160604 -19.75683594 7.16113281 C-13.31639995 1.91866188 -8.27590265 0.01241822 0 0 Z M15.93457031 50.21191406 C11.19864065 55.66971754 8.93451929 61.91415348 9.24316406 69.16113281 C10.67162635 76.68268204 14.17989454 82.74962277 20.18066406 87.47363281 C26.61105728 91.01691071 32.55997879 92.38890666 39.73144531 90.50878906 C47.29167902 87.8357474 51.97840424 83.81397124 56.18066406 77.03613281 C58.52664984 70.54068469 58.52087276 62.11930865 55.74316406 55.78613281 C51.3805965 48.57111723 45.49088053 44.68133477 37.44238281 42.57128906 C29.2909257 41.05103507 21.70372823 44.65254371 15.93457031 50.21191406 Z " fill="#ffc107" transform="translate(65.7568359375,213.8388671875)"/>
<path d="M0 0 C2.5856172 1.7237448 2.94222726 2.81430189 3.875 5.8125 C4.0302769 9.77206096 3.1678379 11.71086663 1 15 C-2.14649057 17.38699285 -5.14113846 17.47251366 -9 17 C-11.89282587 15.45715954 -13.5579181 14.29912412 -14.63671875 11.12890625 C-15.25268982 7.62515681 -15.18481546 5.47230618 -13.875 2.125 C-9.52581349 -2.80407805 -5.88103111 -2.28706765 0 0 Z " fill="#ffc107" transform="translate(105,273)"/>
</svg>
