<?xml version="1.0" encoding="UTF-8"?>
<svg version="1.1" xmlns="http://www.w3.org/2000/svg" width="118" height="116">
<path d="M0 0 C14.00249109 -0.63184458 28.81761094 4.9015396 39.37109375 14.06640625 C40.46667478 15.09518356 41.55525934 16.13184145 42.62109375 17.19140625 C40.93769951 21.25135707 38.10965498 24.30418438 35.24609375 27.56640625 C34.1535227 28.82541399 33.06107824 30.08453159 31.96875 31.34375 C31.41074707 31.98425293 30.85274414 32.62475586 30.27783203 33.28466797 C28.22185392 35.65089093 26.18364397 38.03188908 24.14819336 40.41577148 C22.67485822 42.13912416 21.1949384 43.85667059 19.71484375 45.57421875 C17.49943938 48.15076829 15.31998877 50.75426452 13.15234375 53.37109375 C11.99613284 54.74873072 10.83988374 56.12633565 9.68359375 57.50390625 C9.15193604 58.15673584 8.62027832 58.80956543 8.07250977 59.48217773 C5.91522402 62.03312626 4.11320415 63.91739918 1.1796875 65.55078125 C-3.27364276 64.92527532 -5.54212001 61.4051519 -8.37890625 58.12890625 C-8.9821875 57.45923828 -9.58546875 56.78957031 -10.20703125 56.09960938 C-13.6925285 52.20873365 -17.05797288 48.22306968 -20.37890625 44.19140625 C-23.34890625 46.66640625 -23.34890625 46.66640625 -26.37890625 49.19140625 C-24.96152136 52.44347717 -23.25364213 54.50501692 -20.69140625 56.94140625 C-17.99886273 59.56143962 -15.44064246 62.20714808 -13.00390625 65.06640625 C-8.7332127 70.04062472 -4.05413246 74.60084209 0.62109375 79.19140625 C4.38588234 77.93647672 5.31490042 76.36043106 7.74609375 73.25390625 C10.77182917 69.45949695 13.84507101 65.77204163 17.12109375 62.19140625 C20.21664571 58.79541943 23.17260582 55.32969094 26.05859375 51.75390625 C29.96638957 46.91698415 34.10253312 42.34486469 38.328125 37.78515625 C40.90937435 34.86531031 43.13984833 31.81453958 45.26953125 28.5546875 C45.93855469 27.87986328 45.93855469 27.87986328 46.62109375 27.19140625 C47.94109375 27.19140625 49.26109375 27.19140625 50.62109375 27.19140625 C57.54969967 42.87332728 59.28061747 57.37488931 53.93359375 73.87890625 C48.45045536 87.79919855 37.89109745 97.73619155 24.62109375 104.19140625 C11.39157144 109.32890211 -4.23080572 110.25665843 -17.421875 104.5234375 C-32.0221703 97.72762664 -40.95764099 88.70251103 -47.8359375 74.09765625 C-52.68555621 60.79976184 -52.26997209 44.05096001 -46.37890625 31.19140625 C-38.87079916 16.82145951 -27.27937466 6.99749327 -11.86328125 1.90234375 C-7.88630435 0.76427803 -4.10656783 0.3304135 0 0 Z " fill="#ffc107" transform="translate(54.37890625,5.80859375)"/>
<path d="M0 0 C3.66521894 1.9290626 5.3327868 3.22929351 7 7 C6.18208984 7.89138672 6.18208984 7.89138672 5.34765625 8.80078125 C1.29552458 13.25466273 -2.65581504 17.75091186 -6.4375 22.4375 C-10.28954619 27.20063886 -14.35510982 31.7139726 -18.50390625 36.21875 C-21.83741066 39.93307729 -24.97062274 43.7927195 -28.08984375 47.6875 C-31.32315139 51.60185199 -31.32315139 51.60185199 -33 53 C-35.625 52.8125 -35.625 52.8125 -38 52 C-38.33 51.34 -38.66 50.68 -39 50 C-37.64068359 50.14115234 -37.64068359 50.14115234 -36.25390625 50.28515625 C-32.93795003 50.32224671 -32.93795003 50.32224671 -30.90234375 48.12109375 C-30.25394531 47.23550781 -29.60554688 46.34992188 -28.9375 45.4375 C-27.79087891 43.93703125 -27.79087891 43.93703125 -26.62109375 42.40625 C-26.20585449 41.85839844 -25.79061523 41.31054688 -25.36279297 40.74609375 C-22.86171354 37.54155772 -20.17370637 34.49808827 -17.5 31.4375 C-16.94505859 30.7988501 -16.39011719 30.1602002 -15.81835938 29.50219727 C-11.89978614 25.00149205 -7.92853359 20.55329011 -3.90234375 16.1484375 C0.99077588 10.78988882 0.99077588 10.78988882 3 4 C2.34 4 1.68 4 1 4 C0.505 2.02 0.505 2.02 0 0 Z " fill="#ffc107" transform="translate(90,18)"/>
<path d="M0 0 C5.97893837 8.96840756 5.53847896 20.55830832 3.734375 30.7734375 C0.75757106 43.85237394 0.75757106 43.85237394 -4 48 C-3.731875 46.783125 -3.46375 45.56625 -3.1875 44.3125 C-3.00832031 43.48878906 -2.82914062 42.66507813 -2.64453125 41.81640625 C-2.19632924 39.85789926 -1.71176142 37.9075055 -1.19921875 35.96484375 C1.9108692 23.83402679 1.13409619 12.3737995 0 0 Z " fill="#ffc107" transform="translate(107,40)"/>
<path d="M0 0 C1.9375 0.75 1.9375 0.75 4 2 C4.75 4.125 4.75 4.125 5 6 C3.68 5.01 2.36 4.02 1 3 C-0.65 4.65 -2.3 6.3 -4 8 C-2.58261511 11.25207092 -0.87473588 13.31361067 1.6875 15.75 C4.38004352 18.37003337 6.93826379 21.01574183 9.375 23.875 C12.24028682 27.17501999 15.17289996 30.39783202 18.1875 33.5625 C19.00605469 34.43003906 19.82460938 35.29757813 20.66796875 36.19140625 C22.81485721 38.28347792 22.81485721 38.28347792 25.30078125 37.77734375 C25.86152344 37.52082031 26.42226563 37.26429687 27 37 C26.67 37.99 26.34 38.98 26 40 C23.9375 40.6875 23.9375 40.6875 22 41 C21.45472656 40.38253906 20.90945312 39.76507813 20.34765625 39.12890625 C15.7579549 33.97431858 11.05044449 29.01309099 6.13671875 24.16796875 C3.46659066 21.45878943 0.98431273 18.61587948 -1.4921875 15.73046875 C-3.23934072 13.72531622 -5.08170118 11.84156687 -7 10 C-5.33248852 6.05860922 -2.77289351 3.2107188 0 0 Z " fill="#ffc107" transform="translate(32,47)"/>
<path d="M0 0 C0.66 0.33 1.32 0.66 2 1 C0.58474822 2.58459815 -0.8322642 4.16762391 -2.25 5.75 C-3.03890625 6.63171875 -3.8278125 7.5134375 -4.640625 8.421875 C-8.91867853 13.09656925 -8.91867853 13.09656925 -11 15 C-11.66 15 -12.32 15 -13 15 C-13.268125 15.969375 -13.53625 16.93875 -13.8125 17.9375 C-14.4003125 19.4534375 -14.4003125 19.4534375 -15 21 C-15.99 21.33 -16.98 21.66 -18 22 C-14.61140893 12.65272705 -7.48850082 6.23192699 0 0 Z " fill="#ffc107" transform="translate(27,15)"/>
<path d="M0 0 C-1 1 -1 1 -4.6875 1.3125 C-8.98328578 1.76590136 -11.44225031 3.57426157 -15 6 C-17.171875 5.6171875 -17.171875 5.6171875 -19 5 C-4.98741007 -3.32494005 -4.98741007 -3.32494005 0 0 Z " fill="#ffc107" transform="translate(48,9)"/>
<path d="M0 0 C3.57104439 1.87949705 5.54744301 3.17053157 7 7 C5.02 7.99 5.02 7.99 3 9 C3 7.35 3 5.7 3 4 C2.34 4 1.68 4 1 4 C0.67 2.68 0.34 1.36 0 0 Z " fill="#ffc107" transform="translate(90,18)"/>
<path d="M0 0 C-1.36370299 2.99220268 -2.94908083 5.29026529 -5.125 7.75 C-5.93324219 8.67039062 -5.93324219 8.67039062 -6.7578125 9.609375 C-7.16773437 10.06828125 -7.57765625 10.5271875 -8 11 C-8.33 10.01 -8.66 9.02 -9 8 C-7.63671875 5.95703125 -7.63671875 5.95703125 -5.6875 3.8125 C-5.05199219 3.09707031 -4.41648437 2.38164063 -3.76171875 1.64453125 C-2 0 -2 0 0 0 Z " fill="#ffc107" transform="translate(81,42)"/>
<path d="M0 0 C1.32 0 2.64 0 4 0 C4.66 2.31 5.32 4.62 6 7 C5.34 7 4.68 7 4 7 C3.34 6.01 2.68 5.02 2 4 C0.35 4.33 -1.3 4.66 -3 5 C-1.75 2.5 -1.75 2.5 0 0 Z " fill="#ffc107" transform="translate(101,33)"/>
<path d="M0 0 C0.66 0 1.32 0 2 0 C0.4169423 4.2742558 -2.50568404 6.26531794 -6 9 C-4.4722133 5.56247993 -2.49818944 2.81046312 0 0 Z " fill="#ffc107" transform="translate(99,91)"/>
<path d="M0 0 C0.66 0.33 1.32 0.66 2 1 C0.02 3.31 -1.96 5.62 -4 8 C-4 4.09161134 -2.49432124 2.88405893 0 0 Z " fill="#ffc107" transform="translate(92,27)"/>
</svg>
