<?xml version="1.0" encoding="UTF-8"?>
<svg version="1.1" xmlns="http://www.w3.org/2000/svg" width="512" height="512">
<path d="M0 0 C0.97582031 -0.04253906 1.95164062 -0.08507813 2.95703125 -0.12890625 C12.25948647 1.86206663 19.23239863 11.37081338 25.6875 17.9375 C26.71046535 18.97051986 27.73389961 20.00307558 28.7578125 21.03515625 C31.23979814 23.5389488 33.71539935 26.04894255 36.1875 28.5625 C37.81318361 27.7496582 39.43881196 26.93670574 41.06420898 26.12329102 C42.49510513 25.40841879 43.92693003 24.69540295 45.35961914 23.98413086 C49.09531348 22.12626782 52.81164796 20.24291483 56.49609375 18.28515625 C72.02701049 10.10036131 72.02701049 10.10036131 80.9375 12.625 C86.88381 16.16991558 89.8492427 21.38008461 92.95703125 27.421875 C93.28289719 28.05232727 93.60876312 28.68277954 93.94450378 29.33233643 C94.6243755 30.65152377 95.30063815 31.972577 95.97338867 33.29541016 C97.00654082 35.32535142 98.05213877 37.3485099 99.09960938 39.37109375 C104.1875 49.27231118 104.1875 49.27231118 104.1875 51.5625 C105.44856567 51.33530273 105.44856567 51.33530273 106.73510742 51.10351562 C109.91882784 50.53550128 113.10413909 49.97769385 116.29077148 49.42626953 C117.65767615 49.18769767 119.02392233 48.9453149 120.3894043 48.69873047 C142.95535158 44.63204633 142.95535158 44.63204633 150.75 48.1875 C156.08843958 53.38905652 157.87453133 58.09113451 158.890625 65.2421875 C159.01814148 66.05495148 159.14565796 66.86771545 159.27703857 67.70510864 C159.6778605 70.28064818 160.05796003 72.85874746 160.4375 75.4375 C160.70696649 77.1929187 160.97778605 78.94813026 161.25 80.703125 C161.9115109 84.98734566 162.55446643 89.27398298 163.1875 93.5625 C164.27691895 93.72331055 165.36633789 93.88412109 166.48876953 94.04980469 C170.55024168 94.65341521 174.60846071 95.27689025 178.66601562 95.90625 C180.41877791 96.17530871 182.17236467 96.43905461 183.92675781 96.69726562 C186.45616109 97.07050334 188.9819313 97.46308347 191.5078125 97.859375 C192.28617462 97.96997253 193.06453674 98.08057007 193.8664856 98.19451904 C200.05098332 99.19550058 204.13150494 101.45239981 208.5625 106 C213.01451269 115.76018166 209.53444902 128.14736486 207.6875 138.375 C207.44561395 139.76089344 207.20472321 141.14696097 206.96484375 142.53320312 C206.38210273 145.8781366 205.78951588 149.22099164 205.1875 152.5625 C206.04794922 152.8303833 206.90839844 153.0982666 207.79492188 153.37426758 C213.04711148 155.21381902 217.90119951 157.77303678 222.84619141 160.31030273 C224.67576243 161.24400982 226.51514645 162.15606916 228.35546875 163.06835938 C242.36433309 170.24231575 242.36433309 170.24231575 244.89697266 177.6328125 C246.85395831 188.1927163 239.16291308 198.75595001 234.4375 207.6875 C233.83550781 208.83476562 233.23351562 209.98203125 232.61328125 211.1640625 C231.14234173 213.96585205 229.66701492 216.76523216 228.1875 219.5625 C233.83895731 226.40325257 240.11503642 232.52118079 246.46289062 238.7109375 C247.28337891 239.52046875 248.10386719 240.33 248.94921875 241.1640625 C249.69131592 241.88932129 250.43341309 242.61458008 251.19799805 243.36181641 C254.93242264 247.49264267 256.64014117 250.78684744 256.75 256.375 C256.79253906 257.35082031 256.83507812 258.32664062 256.87890625 259.33203125 C254.88793337 268.63448647 245.37918662 275.60739863 238.8125 282.0625 C237.77948014 283.08546535 236.74692442 284.10889961 235.71484375 285.1328125 C233.2110512 287.61479814 230.70105745 290.09039935 228.1875 292.5625 C229.0003418 294.18818361 229.81329426 295.81381196 230.62670898 297.43920898 C231.34158121 298.87010513 232.05459705 300.30193003 232.76586914 301.73461914 C234.62373218 305.47031348 236.50708517 309.18664796 238.46484375 312.87109375 C246.64963869 328.40201049 246.64963869 328.40201049 244.125 337.3125 C240.58008442 343.25881 235.36991539 346.2242427 229.328125 349.33203125 C228.38244659 349.82083015 228.38244659 349.82083015 227.41766357 350.31950378 C226.09847623 350.9993755 224.777423 351.67563815 223.45458984 352.34838867 C221.42464858 353.38154082 219.4014901 354.42713877 217.37890625 355.47460938 C207.47768882 360.5625 207.47768882 360.5625 205.1875 360.5625 C205.33896484 361.40321045 205.49042969 362.2439209 205.64648438 363.11010742 C206.21449872 366.29382784 206.77230615 369.47913909 207.32373047 372.66577148 C207.56230233 374.03267615 207.8046851 375.39892233 208.05126953 376.7644043 C212.11795367 399.33035158 212.11795367 399.33035158 208.5625 407.125 C203.36094348 412.46343958 198.65886549 414.24953133 191.5078125 415.265625 C190.69504852 415.39314148 189.88228455 415.52065796 189.04489136 415.65203857 C186.46935182 416.0528605 183.89125254 416.43296003 181.3125 416.8125 C179.5570813 417.08196649 177.80186974 417.35278605 176.046875 417.625 C171.76265434 418.2865109 167.47601702 418.92946643 163.1875 419.5625 C163.02668945 420.65191895 162.86587891 421.74133789 162.70019531 422.86376953 C162.09658479 426.92524168 161.47310975 430.98346071 160.84375 435.04101562 C160.57469129 436.79377791 160.31094539 438.54736467 160.05273438 440.30175781 C159.67949666 442.83116109 159.28691653 445.3569313 158.890625 447.8828125 C158.78002747 448.66117462 158.66942993 449.43953674 158.55548096 450.2414856 C157.55449942 456.42598332 155.29760019 460.50650494 150.75 464.9375 C140.98981834 469.38951269 128.60263514 465.90944902 118.375 464.0625 C116.98910656 463.82061395 115.60303903 463.57972321 114.21679688 463.33984375 C110.8718634 462.75710273 107.52900836 462.16451588 104.1875 461.5625 C103.9196167 462.42294922 103.6517334 463.28339844 103.37573242 464.16992188 C101.53618098 469.42211148 98.97696322 474.27619951 96.43969727 479.22119141 C95.50599018 481.05076243 94.59393084 482.89014645 93.68164062 484.73046875 C86.50768425 498.73933309 86.50768425 498.73933309 79.1171875 501.27197266 C68.5572837 503.22895831 57.99404999 495.53791308 49.0625 490.8125 C47.34160156 489.90951172 47.34160156 489.90951172 45.5859375 488.98828125 C42.78414795 487.51734173 39.98476784 486.04201492 37.1875 484.5625 C30.34674743 490.21395731 24.22881921 496.49003642 18.0390625 502.83789062 C17.22953125 503.65837891 16.42 504.47886719 15.5859375 505.32421875 C14.49804932 506.4373645 14.49804932 506.4373645 13.38818359 507.57299805 C9.25735733 511.30742264 5.96315256 513.01514117 0.375 513.125 C-0.60082031 513.16753906 -1.57664063 513.21007812 -2.58203125 513.25390625 C-11.88448647 511.26293337 -18.85739863 501.75418662 -25.3125 495.1875 C-26.33546535 494.15448014 -27.35889961 493.12192442 -28.3828125 492.08984375 C-30.86479814 489.5860512 -33.34039935 487.07605745 -35.8125 484.5625 C-37.43818361 485.3753418 -39.06381196 486.18829426 -40.68920898 487.00170898 C-42.12010513 487.71658121 -43.55193003 488.42959705 -44.98461914 489.14086914 C-48.72031348 490.99873218 -52.43664796 492.88208517 -56.12109375 494.83984375 C-71.65201049 503.02463869 -71.65201049 503.02463869 -80.5625 500.5 C-87.86454649 496.1468569 -90.81388302 489.03864299 -94.375 481.625 C-95.31192745 479.69830601 -96.25069128 477.77250381 -97.19140625 475.84765625 C-97.63371582 474.94031738 -98.07602539 474.03297852 -98.53173828 473.09814453 C-99.66915823 470.8462872 -100.87342477 468.6696371 -102.15234375 466.49609375 C-103.8125 463.5625 -103.8125 463.5625 -103.8125 461.5625 C-104.65321045 461.71396484 -105.4939209 461.86542969 -106.36010742 462.02148438 C-109.54382784 462.58949872 -112.72913909 463.14730615 -115.91577148 463.69873047 C-117.28267615 463.93730233 -118.64892233 464.1796851 -120.0144043 464.42626953 C-142.58035158 468.49295367 -142.58035158 468.49295367 -150.375 464.9375 C-155.71343958 459.73594348 -157.49953133 455.03386549 -158.515625 447.8828125 C-158.70689972 446.66366653 -158.70689972 446.66366653 -158.90203857 445.41989136 C-159.3028605 442.84435182 -159.68296003 440.26625254 -160.0625 437.6875 C-160.33196649 435.9320813 -160.60278605 434.17686974 -160.875 432.421875 C-161.5365109 428.13765434 -162.17946643 423.85101702 -162.8125 419.5625 C-163.90191895 419.40168945 -164.99133789 419.24087891 -166.11376953 419.07519531 C-170.17524168 418.47158479 -174.23346071 417.84810975 -178.29101562 417.21875 C-180.04377791 416.94969129 -181.79736467 416.68594539 -183.55175781 416.42773438 C-186.08116109 416.05449666 -188.6069313 415.66191653 -191.1328125 415.265625 C-191.91117462 415.15502747 -192.68953674 415.04442993 -193.4914856 414.93048096 C-199.67598332 413.92949942 -203.75650494 411.67260019 -208.1875 407.125 C-212.63951269 397.36481834 -209.15944902 384.97763514 -207.3125 374.75 C-207.07061395 373.36410656 -206.82972321 371.97803903 -206.58984375 370.59179688 C-206.00710273 367.2468634 -205.41451588 363.90400836 -204.8125 360.5625 C-206.13024414 360.15040283 -206.13024414 360.15040283 -207.47460938 359.72998047 C-210.56621309 358.64864277 -213.31986689 357.39652273 -216.21875 355.8828125 C-217.70568359 355.10744141 -217.70568359 355.10744141 -219.22265625 354.31640625 C-220.24230469 353.77886719 -221.26195312 353.24132812 -222.3125 352.6875 C-223.33214844 352.15769531 -224.35179687 351.62789063 -225.40234375 351.08203125 C-240.42415414 343.2097431 -240.42415414 343.2097431 -243.8125 337.5625 C-247.32423288 326.14370406 -239.21152486 315.16972282 -234.0625 305.4375 C-233.15951172 303.71660156 -233.15951172 303.71660156 -232.23828125 301.9609375 C-230.76734173 299.15914795 -229.29201492 296.35976784 -227.8125 293.5625 C-233.46395731 286.72174743 -239.74003642 280.60381921 -246.08789062 274.4140625 C-246.90837891 273.60453125 -247.72886719 272.795 -248.57421875 271.9609375 C-249.31631592 271.23567871 -250.05841309 270.51041992 -250.82299805 269.76318359 C-254.55742264 265.63235733 -256.26514117 262.33815256 -256.375 256.75 C-256.41753906 255.77417969 -256.46007812 254.79835937 -256.50390625 253.79296875 C-254.51293337 244.49051353 -245.00418662 237.51760137 -238.4375 231.0625 C-237.40448014 230.03953465 -236.37192442 229.01610039 -235.33984375 227.9921875 C-232.8360512 225.51020186 -230.32605745 223.03460065 -227.8125 220.5625 C-228.6253418 218.93681639 -229.43829426 217.31118804 -230.25170898 215.68579102 C-230.96658121 214.25489487 -231.67959705 212.82306997 -232.39086914 211.39038086 C-234.24873218 207.65468652 -236.13208517 203.93835204 -238.08984375 200.25390625 C-246.27463869 184.72298951 -246.27463869 184.72298951 -243.75 175.8125 C-239.3968569 168.51045351 -232.28864299 165.56111698 -224.875 162 C-222.94830601 161.06307255 -221.02250381 160.12430872 -219.09765625 159.18359375 C-218.19031738 158.74128418 -217.28297852 158.29897461 -216.34814453 157.84326172 C-214.0962872 156.70584177 -211.9196371 155.50157523 -209.74609375 154.22265625 C-206.8125 152.5625 -206.8125 152.5625 -204.8125 152.5625 C-204.96396484 151.72178955 -205.11542969 150.8810791 -205.27148438 150.01489258 C-205.83949872 146.83117216 -206.39730615 143.64586091 -206.94873047 140.45922852 C-207.18730233 139.09232385 -207.4296851 137.72607767 -207.67626953 136.3605957 C-211.74295367 113.79464842 -211.74295367 113.79464842 -208.1875 106 C-202.98594348 100.66156042 -198.28386549 98.87546867 -191.1328125 97.859375 C-190.32004852 97.73185852 -189.50728455 97.60434204 -188.66989136 97.47296143 C-186.09435182 97.0721395 -183.51625254 96.69203997 -180.9375 96.3125 C-179.1820813 96.04303351 -177.42686974 95.77221395 -175.671875 95.5 C-171.38765434 94.8384891 -167.10101702 94.19553357 -162.8125 93.5625 C-162.65168945 92.47308105 -162.49087891 91.38366211 -162.32519531 90.26123047 C-161.72158479 86.19975832 -161.09810975 82.14153929 -160.46875 78.08398438 C-160.19969129 76.33122209 -159.93594539 74.57763533 -159.67773438 72.82324219 C-159.30449666 70.29383891 -158.91191653 67.7680687 -158.515625 65.2421875 C-158.3497287 64.07464432 -158.3497287 64.07464432 -158.18048096 62.8835144 C-157.17949942 56.69901668 -154.92260019 52.61849506 -150.375 48.1875 C-140.61481834 43.73548731 -128.22763514 47.21555098 -118 49.0625 C-116.61410656 49.30438605 -115.22803903 49.54527679 -113.84179688 49.78515625 C-110.4968634 50.36789727 -107.15400836 50.96048412 -103.8125 51.5625 C-103.53776855 50.68400391 -103.26303711 49.80550781 -102.97998047 48.90039062 C-101.89864277 45.80878691 -100.64652273 43.05513311 -99.1328125 40.15625 C-98.35744141 38.66931641 -98.35744141 38.66931641 -97.56640625 37.15234375 C-96.76009766 35.62287109 -96.76009766 35.62287109 -95.9375 34.0625 C-95.40769531 33.04285156 -94.87789062 32.02320312 -94.33203125 30.97265625 C-86.4597431 15.95084586 -86.4597431 15.95084586 -80.8125 12.5625 C-69.39370406 9.05076712 -58.41972282 17.16347514 -48.6875 22.3125 C-47.54023438 22.91449219 -46.39296875 23.51648438 -45.2109375 24.13671875 C-42.40914795 25.60765827 -39.60976784 27.08298508 -36.8125 28.5625 C-29.97174743 22.91104269 -23.85381921 16.63496358 -17.6640625 10.28710938 C-16.85453125 9.46662109 -16.045 8.64613281 -15.2109375 7.80078125 C-14.48567871 7.05868408 -13.76041992 6.31658691 -13.01318359 5.55200195 C-8.88235733 1.81757736 -5.58815256 0.10985883 0 0 Z " fill="#ffc107" transform="translate(255.8125,-0.5625)"/>
<path d="M0 0 C9.24124897 0 13.24071433 5.1183551 19.59375 11.3984375 C21.57213959 13.38121138 23.53646967 15.37752737 25.5 17.375 C26.52296535 18.40801986 27.54639961 19.44057558 28.5703125 20.47265625 C31.05229814 22.9764488 33.52789935 25.48644255 36 28 C37.62568361 27.1871582 39.25131196 26.37420574 40.87670898 25.56079102 C42.30760513 24.84591879 43.73943003 24.13290295 45.17211914 23.42163086 C48.90781348 21.56376782 52.62414796 19.68041483 56.30859375 17.72265625 C71.83951049 9.53786131 71.83951049 9.53786131 80.75 12.0625 C86.69631 15.60741558 89.6617427 20.81758461 92.76953125 26.859375 C93.25833015 27.80505341 93.25833015 27.80505341 93.75700378 28.76983643 C94.4368755 30.08902377 95.11313815 31.410077 95.78588867 32.73291016 C96.81904082 34.76285142 97.86463877 36.7860099 98.91210938 38.80859375 C104 48.70981118 104 48.70981118 104 51 C105.26106567 50.77280273 105.26106567 50.77280273 106.54760742 50.54101562 C109.73132784 49.97300128 112.91663909 49.41519385 116.10327148 48.86376953 C117.47017615 48.62519767 118.83642233 48.3828149 120.2019043 48.13623047 C142.76785158 44.06954633 142.76785158 44.06954633 150.5625 47.625 C155.90093958 52.82655652 157.68703133 57.52863451 158.703125 64.6796875 C158.89439972 65.89883347 158.89439972 65.89883347 159.08953857 67.14260864 C159.4903605 69.71814818 159.87046003 72.29624746 160.25 74.875 C160.51946649 76.6304187 160.79028605 78.38563026 161.0625 80.140625 C161.7240109 84.42484566 162.36696643 88.71148298 163 93 C164.08941895 93.16081055 165.17883789 93.32162109 166.30126953 93.48730469 C170.36274168 94.09091521 174.42096071 94.71439025 178.47851562 95.34375 C180.23127791 95.61280871 181.98486467 95.87655461 183.73925781 96.13476562 C186.26866109 96.50800334 188.7944313 96.90058347 191.3203125 97.296875 C192.48785568 97.4627713 192.48785568 97.4627713 193.6789856 97.63201904 C199.86348332 98.63300058 203.94400494 100.88989981 208.375 105.4375 C212.82701269 115.19768166 209.34694902 127.58486486 207.5 137.8125 C207.25811395 139.19839344 207.01722321 140.58446097 206.77734375 141.97070312 C206.19460273 145.3156366 205.60201588 148.65849164 205 152 C205.86044922 152.2678833 206.72089844 152.5357666 207.60742188 152.81176758 C212.85961148 154.65131902 217.71369951 157.21053678 222.65869141 159.74780273 C224.48826243 160.68150982 226.32764645 161.59356916 228.16796875 162.50585938 C242.17683309 169.67981575 242.17683309 169.67981575 244.70947266 177.0703125 C246.66645831 187.6302163 238.97541308 198.19345001 234.25 207.125 C233.64800781 208.27226562 233.04601562 209.41953125 232.42578125 210.6015625 C230.95484173 213.40335205 229.47951492 216.20273216 228 219 C233.65145731 225.84075257 239.92753642 231.95868079 246.27539062 238.1484375 C247.09587891 238.95796875 247.91636719 239.7675 248.76171875 240.6015625 C249.50381592 241.32682129 250.24591309 242.05208008 251.01049805 242.79931641 C254.74492264 246.93014267 256.45264117 250.22434744 256.5625 255.8125 C256.62630859 257.27623047 256.62630859 257.27623047 256.69140625 258.76953125 C254.70043337 268.07198647 245.19168662 275.04489863 238.625 281.5 C237.59198014 282.52296535 236.55942442 283.54639961 235.52734375 284.5703125 C233.0235512 287.05229814 230.51355745 289.52789935 228 292 C228.8128418 293.62568361 229.62579426 295.25131196 230.43920898 296.87670898 C231.15408121 298.30760513 231.86709705 299.73943003 232.57836914 301.17211914 C234.43623218 304.90781348 236.31958517 308.62414796 238.27734375 312.30859375 C246.46213869 327.83951049 246.46213869 327.83951049 243.9375 336.75 C240.39258442 342.69631 235.18241539 345.6617427 229.140625 348.76953125 C228.19494659 349.25833015 228.19494659 349.25833015 227.23016357 349.75700378 C225.91097623 350.4368755 224.589923 351.11313815 223.26708984 351.78588867 C221.23714858 352.81904082 219.2139901 353.86463877 217.19140625 354.91210938 C207.29018882 360 207.29018882 360 205 360 C205.15146484 360.84071045 205.30292969 361.6814209 205.45898438 362.54760742 C206.02699872 365.73132784 206.58480615 368.91663909 207.13623047 372.10327148 C207.37480233 373.47017615 207.6171851 374.83642233 207.86376953 376.2019043 C211.93045367 398.76785158 211.93045367 398.76785158 208.375 406.5625 C203.17344348 411.90093958 198.47136549 413.68703133 191.3203125 414.703125 C190.50754852 414.83064148 189.69478455 414.95815796 188.85739136 415.08953857 C186.28185182 415.4903605 183.70375254 415.87046003 181.125 416.25 C179.3695813 416.51946649 177.61436974 416.79028605 175.859375 417.0625 C171.57515434 417.7240109 167.28851702 418.36696643 163 419 C162.83918945 420.08941895 162.67837891 421.17883789 162.51269531 422.30126953 C161.90908479 426.36274168 161.28560975 430.42096071 160.65625 434.47851562 C160.38719129 436.23127791 160.12344539 437.98486467 159.86523438 439.73925781 C159.49199666 442.26866109 159.09941653 444.7944313 158.703125 447.3203125 C158.59252747 448.09867462 158.48192993 448.87703674 158.36798096 449.6789856 C157.36699942 455.86348332 155.11010019 459.94400494 150.5625 464.375 C140.80231834 468.82701269 128.41513514 465.34694902 118.1875 463.5 C116.80160656 463.25811395 115.41553903 463.01722321 114.02929688 462.77734375 C110.6843634 462.19460273 107.34150836 461.60201588 104 461 C103.7321167 461.86044922 103.4642334 462.72089844 103.18823242 463.60742188 C101.34868098 468.85961148 98.78946322 473.71369951 96.25219727 478.65869141 C95.31849018 480.48826243 94.40643084 482.32764645 93.49414062 484.16796875 C86.32018425 498.17683309 86.32018425 498.17683309 78.9296875 500.70947266 C68.3697837 502.66645831 57.80654999 494.97541308 48.875 490.25 C47.15410156 489.34701172 47.15410156 489.34701172 45.3984375 488.42578125 C42.59664795 486.95484173 39.79726784 485.47951492 37 484 C30.15924743 489.65145731 24.04131921 495.92753642 17.8515625 502.27539062 C16.63726562 503.50612305 16.63726562 503.50612305 15.3984375 504.76171875 C14.67317871 505.50381592 13.94791992 506.24591309 13.20068359 507.01049805 C8.50984086 511.25119889 6.5926262 512 0 512 C0 480.32 0 448.64 0 416 C6.6 415.34 13.2 414.68 20 414 C23.54433193 413.50009757 26.99902432 412.99419829 30.5 412.3125 C31.78535645 412.06258301 31.78535645 412.06258301 33.09667969 411.80761719 C73.7108833 403.38161885 109.84939703 378.31906695 132.75390625 343.91015625 C139.90313163 332.84507972 145.2137144 321.25054856 150 309 C150.64582031 307.38738281 150.64582031 307.38738281 151.3046875 305.7421875 C152.36717558 302.85123156 153.21427526 299.97844493 154 297 C154.26852783 296.03924561 154.26852783 296.03924561 154.54248047 295.05908203 C157.92064629 282.51283074 158.37693508 270.0968794 158.375 257.1875 C158.37681274 256.40698273 158.37862549 255.62646545 158.38049316 254.82229614 C158.37675425 240.5858344 157.51971387 226.47688177 153.4375 212.75 C153.18137939 211.87649902 152.92525879 211.00299805 152.66137695 210.10302734 C144.76108205 184.31190934 130.47591331 162.41912811 112 143 C111.36835938 142.30390625 110.73671875 141.6078125 110.0859375 140.890625 C88.23660374 117.59750266 54.50417655 103.01513067 23.3125 98.8125 C21.59450195 98.5659668 21.59450195 98.5659668 19.84179688 98.31445312 C13.22862881 97.38051801 6.65572042 96.66557204 0 96 C0 64.32 0 32.64 0 0 Z " fill="#ffc107" transform="translate(256,0)"/>
<path d="M0 0 C0 21.12 0 42.24 0 64 C2.31 64.33 4.62 64.66 7 65 C11.63852266 68.16839372 14.56922922 71.81119927 17.56640625 76.55078125 C17.96778305 77.16841843 18.36915985 77.7860556 18.78269958 78.42240906 C20.05177394 80.38004296 21.3072201 82.34599966 22.5625 84.3125 C23.40732848 85.61970631 24.2530251 86.92635198 25.09960938 88.23242188 C25.50968735 88.86765778 25.91976532 89.50289368 26.3422699 90.15737915 C27.15406936 91.41300954 27.96903307 92.66660016 28.7872467 93.9180603 C30.40620615 96.41314981 31.93733291 98.87003947 33.23022461 101.55126953 C34.93665964 105.06708946 36.16683764 106.61321388 39.77514648 108.28833008 C43.30267557 109.45044564 46.82707116 110.38001715 50.4375 111.25 C52.85286458 111.88020833 55.26822917 112.51041667 57.68359375 113.140625 C58.88306641 113.44274902 60.08253906 113.74487305 61.31835938 114.05615234 C84.02640374 119.87772393 84.02640374 119.87772393 89.5 125.625 C91.56841559 130.27893507 91.95866586 133.99192955 91 139 C89.52679035 142.42891154 87.34205967 145.11160091 85 148 C84.53835449 148.57524414 84.07670898 149.15048828 83.60107422 149.74316406 C81.48145866 152.38278661 79.35637195 155.01701034 77.19848633 157.62548828 C76.0952412 158.95941656 75.01218988 160.31020289 73.94555664 161.67358398 C72 164 72 164 69.36499023 166.50024414 C61.62851148 174.61454615 61.0297225 181.5471234 61.17227173 192.56735229 C61.26890822 196.02612178 61.41214064 199.48068271 61.5625 202.9375 C61.67551601 206.42605614 61.7738667 209.91429929 61.85667419 213.40370178 C61.91191495 215.56238876 61.98655653 217.72069297 62.08338928 219.87791443 C62.26653701 225.39229235 62.21460642 229.26505488 59 234 C53.51664167 239.20216047 50.63768234 239 43 239 C28.81 233.72 14.62 228.44 0 223 C0 254.35 0 285.7 0 318 C-35.81075243 318 -68.51170823 308.33100496 -97 286 C-97.87785156 285.32582031 -98.75570312 284.65164063 -99.66015625 283.95703125 C-131.43426727 258.85776945 -153.75000119 221.24639738 -158.52563477 180.80517578 C-159.0093386 176.3537542 -159.16107259 171.95920577 -159.16796875 167.484375 C-159.17129715 166.70668762 -159.17462555 165.92900024 -159.17805481 165.12774658 C-159.18307822 163.49418725 -159.18546457 161.86061783 -159.18530273 160.22705078 C-159.18748254 157.76967868 -159.20566928 155.31276141 -159.22460938 152.85546875 C-159.37687097 111.76636649 -140.92059486 75.29784394 -113 46 C-112.33355469 45.28070313 -111.66710937 44.56140625 -110.98046875 43.8203125 C-82.28749869 13.73799863 -40.50093958 0 0 0 Z " fill="#000000" transform="translate(256,97)"/>
<path d="M0 0 C20.17953651 0 20.17953651 0 26.5625 1 C27.37565674 1.12608643 28.18881348 1.25217285 29.02661133 1.38208008 C68.26078435 8.19657267 105.06781432 31.50753771 128.60546875 63.515625 C154.10609779 100.148239 165.00841317 143.65345736 157.92358398 188.078125 C152.0606461 218.04359759 137.67984791 245.65102391 117 268 C116.2889209 268.76884521 116.2889209 268.76884521 115.56347656 269.55322266 C98.94164671 287.29094689 78.53784833 300.10043938 56 309 C55.37061523 309.24975586 54.74123047 309.49951172 54.09277344 309.75683594 C46.50677029 312.69269652 38.76150259 314.66163819 30.8125 316.3125 C29.64883911 316.57015137 29.64883911 316.57015137 28.46166992 316.83300781 C18.79790826 318.68402924 10.25084196 318 0 318 C0 286.65 0 255.3 0 223 C3.31545173 223.66309035 5.88610783 224.2258774 8.94482422 225.39868164 C10.05154984 225.81900414 10.05154984 225.81900414 11.18063354 226.24781799 C11.96407135 226.54888962 12.74750916 226.84996124 13.5546875 227.16015625 C15.23811142 227.79537213 16.92171071 228.43012342 18.60546875 229.06445312 C21.24269455 230.06243515 23.87845266 231.06382409 26.51123047 232.07348633 C29.06358506 233.05025739 31.62107189 234.0124267 34.1796875 234.97265625 C34.95907684 235.27575211 35.73846619 235.57884796 36.54147339 235.89112854 C42.61843173 238.15379605 47.43710407 238.85429864 53.75 236.75 C58.06301802 234.42760568 59.47355896 232.57932313 61 228 C61.02379769 226.41044047 60.984524 224.81954679 60.90722656 223.23168945 C60.86519104 222.26250076 60.82315552 221.29331207 60.77984619 220.29475403 C60.7109317 218.719925 60.7109317 218.719925 60.640625 217.11328125 C60.5395308 213.69671072 60.45029404 210.27994326 60.36132812 206.86303711 C60.28781405 204.51848623 60.19252952 202.1745047 60.07421875 199.83178711 C58.9724371 177.24686476 58.9724371 177.24686476 67.171875 167.82421875 C68.84063528 166.05673433 70.54622379 164.35529304 72.30867004 162.681427 C75.1552487 159.85151543 77.55982515 156.67963361 80 153.5 C80.6751339 152.63011696 80.6751339 152.63011696 81.36390686 151.74266052 C82.58280395 150.16706148 83.79182033 148.58383217 85 147 C85.59167969 146.24203125 86.18335938 145.4840625 86.79296875 144.703125 C89.90366263 140.34641088 90.73524651 136.69076809 90.40625 131.328125 C89.75628862 127.60334632 88.64315933 125.70762663 86 123 C78.16054633 118.29254005 68.65141214 116.64787632 59.875 114.4375 C57.58125477 113.85716939 55.28824457 113.27440321 52.99685669 112.68482971 C51.58134432 112.32081801 50.1644842 111.96198961 48.74606323 111.60948181 C37.67715231 108.76970825 37.67715231 108.76970825 34.31005859 105.21679688 C33.92672363 104.55744141 33.54338867 103.89808594 33.1484375 103.21875 C32.69597656 102.46787109 32.24351562 101.71699219 31.77734375 100.94335938 C31.08318359 99.73389648 31.08318359 99.73389648 30.375 98.5 C29.34433885 96.78973838 28.31037379 95.08146428 27.2734375 93.375 C26.74202148 92.49328125 26.21060547 91.6115625 25.66308594 90.703125 C22.90228347 86.21580778 19.96529287 81.85393016 17 77.5 C16.46036621 76.69369141 15.92073242 75.88738281 15.36474609 75.05664062 C14.85250488 74.30576172 14.34026367 73.55488281 13.8125 72.78125 C13.36519531 72.12189453 12.91789062 71.46253906 12.45703125 70.78320312 C8.73298172 66.22548567 5.9922371 65.71206774 0 64 C0 42.88 0 21.76 0 0 Z " fill="#00000" transform="translate(256,97)"/>
<path d="M0 0 C7.62366171 5.46914862 12.49691353 14.85089511 17.5 22.625 C18.14195312 23.61435547 18.78390625 24.60371094 19.4453125 25.62304688 C20.074375 26.59435547 20.7034375 27.56566406 21.3515625 28.56640625 C21.96862061 29.50403809 22.58567871 30.44166992 23.22143555 31.40771484 C24.875 34.0625 24.875 34.0625 25.97583008 36.40869141 C27.70378769 39.97045901 29.00889391 41.65763339 32.65820312 43.36352539 C36.18363065 44.51434334 39.70738295 45.4437971 43.3125 46.3125 C46.93554688 47.2578125 46.93554688 47.2578125 50.55859375 48.203125 C51.75806641 48.50524902 52.95753906 48.80737305 54.19335938 49.11865234 C76.90140374 54.94022393 76.90140374 54.94022393 82.375 60.6875 C84.44341559 65.34143507 84.83366586 69.05442955 83.875 74.0625 C82.40179035 77.49141154 80.21705967 80.17410091 77.875 83.0625 C77.18253174 83.92536621 77.18253174 83.92536621 76.47607422 84.80566406 C74.35645866 87.44528661 72.23137195 90.07951034 70.07348633 92.68798828 C68.9702412 94.02191656 67.88718988 95.37270289 66.82055664 96.73608398 C64.875 99.0625 64.875 99.0625 62.23999023 101.56274414 C54.50351148 109.67704615 53.9047225 116.6096234 54.04727173 127.62985229 C54.14390822 131.08862178 54.28714064 134.54318271 54.4375 138 C54.55051601 141.48855614 54.6488667 144.97679929 54.73167419 148.46620178 C54.78691495 150.62488876 54.86155653 152.78319297 54.95838928 154.94041443 C55.14153701 160.45479235 55.08960642 164.32755488 51.875 169.0625 C47.84780571 172.8831715 45.22152172 173.8930571 39.81860352 174.28320312 C34.93080793 174.00965845 31.16210666 172.58574226 26.65234375 170.78125 C25.78863663 170.44830933 24.9249295 170.11536865 24.03504944 169.77233887 C21.28976741 168.71341313 18.55067811 167.63965006 15.8125 166.5625 C13.07054744 165.48594946 10.32745961 164.41311578 7.57923889 163.35266113 C5.87372745 162.6944938 4.17171112 162.02717518 2.47386169 161.3494873 C-5.88506778 158.12200529 -11.05576663 159.08709627 -19.21484375 162.34375 C-20.98631706 163.02737242 -22.75780179 163.71096526 -24.52929688 164.39453125 C-27.29969759 165.47773607 -30.06851909 166.5648678 -32.83666992 167.65380859 C-35.52156344 168.70600627 -38.21163274 169.7440383 -40.90234375 170.78125 C-41.7223436 171.10935669 -42.54234344 171.43746338 -43.38719177 171.7755127 C-49.54421515 174.14321688 -54.36204644 174.95226471 -60.8125 172.875 C-64.88842745 170.64477554 -67.06160972 168.18928055 -69.125 164.0625 C-69.14961429 162.48019524 -69.10741053 160.89662717 -69.03222656 159.31591797 C-68.99019104 158.326633 -68.94815552 157.33734802 -68.90484619 156.31808472 C-68.8589032 155.24116364 -68.81296021 154.16424255 -68.765625 153.0546875 C-68.66444721 149.56120986 -68.57517386 146.06754184 -68.48632812 142.57373047 C-68.41285279 140.17385833 -68.31759358 137.77454164 -68.19921875 135.37646484 C-67.22753084 117.82532736 -67.22753084 117.82532736 -75.296875 102.8515625 C-76.96485283 101.09121614 -78.66987943 99.39897034 -80.43367004 97.73486328 C-83.28681918 94.91370953 -85.68700255 91.74155563 -88.125 88.5625 C-88.8001339 87.69254898 -88.8001339 87.69254898 -89.48890686 86.80502319 C-90.70784347 85.22950066 -91.91684236 83.64630329 -93.125 82.0625 C-94.01251953 80.92554688 -94.01251953 80.92554688 -94.91796875 79.765625 C-98.02995939 75.40709469 -98.85165829 71.7541106 -98.5390625 66.390625 C-97.89379835 62.76253603 -96.62153357 60.75107462 -94.125 58.0625 C-88.49213326 54.31708599 -82.97349969 52.75526224 -76.4375 51.1875 C-74.38779745 50.65711254 -72.33832237 50.12584531 -70.2890625 49.59375 C-66.38167143 48.59945306 -62.47375838 47.71123167 -58.5234375 46.90625 C-47.69058089 44.50989362 -47.69058089 44.50989362 -39.953125 37.04541016 C-38.35514189 34.26740955 -36.90855979 31.42505276 -35.47265625 28.56054688 C-32.78615741 23.58079033 -29.50843184 18.97452958 -26.3125 14.3125 C-25.67723389 13.35988281 -25.04196777 12.40726563 -24.38745117 11.42578125 C-17.88276276 1.82415516 -11.90609972 -3.57182992 0 0 Z " fill="#ffc107" transform="translate(263.125,161.9375)"/>
<path d="M0 0 C8.08831939 1.1554742 10.69817246 2.95557018 15.34594727 9.1027832 C16.09594661 10.24571498 16.83576313 11.39537971 17.56640625 12.55078125 C17.96778305 13.16841843 18.36915985 13.7860556 18.78269958 14.42240906 C20.05177394 16.38004296 21.3072201 18.34599966 22.5625 20.3125 C23.40732848 21.61970631 24.2530251 22.92635198 25.09960938 24.23242188 C25.50968735 24.86765778 25.91976532 25.50289368 26.3422699 26.15737915 C27.15406936 27.41300954 27.96903307 28.66660016 28.7872467 29.9180603 C30.40620615 32.41314981 31.93733291 34.87003947 33.23022461 37.55126953 C34.93665964 41.06708946 36.16683764 42.61321388 39.77514648 44.28833008 C43.30267557 45.45044564 46.82707116 46.38001715 50.4375 47.25 C52.85286458 47.88020833 55.26822917 48.51041667 57.68359375 49.140625 C58.88306641 49.44274902 60.08253906 49.74487305 61.31835938 50.05615234 C84.02640374 55.87772393 84.02640374 55.87772393 89.5 61.625 C91.56841559 66.27893507 91.95866586 69.99192955 91 75 C89.52679035 78.42891154 87.34205967 81.11160091 85 84 C84.53835449 84.57524414 84.07670898 85.15048828 83.60107422 85.74316406 C81.48145866 88.38278661 79.35637195 91.01701034 77.19848633 93.62548828 C76.0952412 94.95941656 75.01218988 96.31020289 73.94555664 97.67358398 C72 100 72 100 69.36499023 102.50024414 C61.62851148 110.61454615 61.0297225 117.5471234 61.17227173 128.56735229 C61.26890822 132.02612178 61.41214064 135.48068271 61.5625 138.9375 C61.67551601 142.42605614 61.7738667 145.91429929 61.85667419 149.40370178 C61.91191495 151.56238876 61.98655653 153.72069297 62.08338928 155.87791443 C62.26653701 161.39229235 62.21460642 165.26505488 59 170 C53.51664167 175.20216047 50.63768234 175 43 175 C28.81 169.72 14.62 164.44 0 159 C0 106.53 0 54.06 0 0 Z " fill="#ffc107" transform="translate(256,161)"/>
</svg>
