<?xml version="1.0" encoding="UTF-8"?>
<svg version="1.1" xmlns="http://www.w3.org/2000/svg" width="512" height="512">
<path d="M0 0 C1.35714203 -0.00417985 2.71428056 -0.00966092 4.07141268 -0.01631981 C7.77684015 -0.03070798 11.48204394 -0.02655062 15.18748331 -0.019153 C19.19304874 -0.0144071 23.19856677 -0.02694372 27.20411682 -0.03717041 C35.04212762 -0.05433608 42.88005818 -0.05520305 50.71808289 -0.04995751 C57.09122434 -0.04591034 63.46434213 -0.04736585 69.83748245 -0.05270576 C71.19989386 -0.0538284 71.19989386 -0.0538284 72.58982874 -0.05497371 C74.43519763 -0.05650524 76.28056651 -0.05804359 78.12593539 -0.05958868 C95.41802206 -0.0733057 112.71006344 -0.06788169 130.00214906 -0.05640347 C145.80734203 -0.04647238 161.6124179 -0.05941103 177.41759281 -0.08333766 C193.66303779 -0.10774469 209.90842827 -0.11733255 226.15389121 -0.11068493 C235.2678039 -0.10719622 244.38162657 -0.10940175 253.49552536 -0.12693596 C261.25409196 -0.14167802 269.01250514 -0.14226725 276.7710688 -0.12486505 C280.72604141 -0.11636905 284.68074019 -0.11417093 288.63569832 -0.1295166 C292.26293485 -0.14341592 295.8896643 -0.13853417 299.51687188 -0.11927737 C301.43618333 -0.11377216 303.35552093 -0.12774507 305.27478254 -0.14263147 C317.30691077 -0.04116165 326.80066684 3.16237411 336.38809204 10.38768005 C337.25434204 10.96518005 338.12059204 11.54268005 339.01309204 12.13768005 C348.79405428 21.40385481 354.28010874 34.23705992 354.65551758 47.6166687 C354.67328524 49.55776986 354.68039683 51.49898863 354.67861938 53.44017029 C354.68533661 54.50806793 354.69205383 55.57596558 354.69897461 56.67622375 C354.71786923 60.18295528 354.72187414 63.68949464 354.72402954 67.1962738 C354.73046207 69.64810259 354.73719077 72.09993061 354.74420166 74.55175781 C354.75615213 79.68173502 354.75988464 84.81164499 354.75869751 89.94163513 C354.75849415 96.4995575 354.78582453 103.05704736 354.82024193 109.61486721 C354.84252636 114.67564864 354.84653461 119.7363261 354.84547806 124.79715157 C354.84783059 127.21435604 354.85663435 129.63156354 354.87214279 132.04871941 C354.89183856 135.43471641 354.88595044 138.81978182 354.87393188 142.20579529 C354.8851709 143.1936351 354.89640991 144.18147491 354.9079895 145.19924927 C354.84269006 152.47500259 353.65793583 159.74704219 348.63803673 165.33618832 C342.77271915 170.72895279 337.23720496 171.85430881 329.39590454 171.70018005 C323.42056477 171.07936553 319.81215304 168.78009525 315.57559204 164.63768005 C307.50920967 152.65334053 310.38809204 144.16608524 310.38809204 128.38768005 C264.84809204 128.38768005 219.30809204 128.38768005 172.38809204 128.38768005 C172.38809204 149.50768005 172.38809204 170.62768005 172.38809204 192.38768005 C179.08090454 192.32967224 185.77371704 192.27166443 192.66934204 192.2118988 C196.91676221 192.18634227 201.16408718 192.16227204 205.41152954 192.14353943 C212.14903523 192.11368372 218.88620022 192.07841582 225.6234436 192.01048279 C231.0569888 191.95603989 236.49016849 191.92623335 241.92396545 191.91329384 C243.99398042 191.90407606 246.06397604 191.8860757 248.13383484 191.85902977 C251.03998585 191.82257662 253.94463875 191.81774154 256.85098267 191.8200531 C258.12629349 191.79308853 258.12629349 191.79308853 259.42736816 191.76557922 C266.75296141 191.82836687 271.56783584 194.56742385 276.70059204 199.70018005 C280.64827081 205.98722401 282.05160278 211.17219372 281.08731079 218.63768005 C279.72392781 223.99981202 276.95694932 228.42709342 272.54043579 231.7978363 C266.86120684 235.16196556 262.03211793 235.52841887 255.60220337 235.50120544 C254.25555351 235.50142448 254.25555351 235.50142448 252.88169861 235.50164795 C249.91114901 235.5009507 246.94066195 235.49316702 243.97012329 235.4853363 C241.9117486 235.48347146 239.85337346 235.48204787 237.79499817 235.48104858 C232.37478411 235.47722864 226.9545968 235.46740279 221.53439331 235.4563446 C216.00451011 235.44611927 210.47462259 235.44154855 204.94473267 235.43650818 C194.09250736 235.42578008 183.24030193 235.4087099 172.38809204 235.38768005 C172.3991951 236.52249817 172.41029816 237.65731628 172.42173767 238.82652283 C172.52323242 249.53729512 172.59811454 260.24796945 172.6471529 270.95911407 C172.67321198 276.46545503 172.70854313 281.97140681 172.76528931 287.4775238 C172.8197399 292.79436044 172.84954032 298.11082347 172.86247826 303.42791748 C172.87169467 305.45327635 172.88969238 307.47861549 172.91674232 309.5038147 C172.95320595 312.34770901 172.95803015 315.1900728 172.95571899 318.03416443 C172.98268356 319.28142303 172.98268356 319.28142303 173.01019287 320.55387878 C172.95082047 327.33564281 170.58264709 332.00154321 165.94524097 336.91706085 C160.66215669 341.67337486 155.36334367 342.6387907 148.44049072 342.62818909 C147.42824702 342.63075236 147.42824702 342.63075236 146.39555395 342.63336742 C144.14767663 342.63664618 141.90010175 342.62568558 139.6522522 342.61473083 C138.03562426 342.61416637 136.41899581 342.61448397 134.80236816 342.61561584 C130.42265275 342.61618898 126.04304718 342.60444092 121.66335726 342.59046793 C117.08295024 342.57795414 112.50254062 342.57678956 107.92211914 342.57441711 C99.25246591 342.56820426 90.5828632 342.55179605 81.91323221 342.53171813 C72.04146211 342.50935311 62.16968957 342.49836418 52.29790044 342.48832726 C31.99460279 342.46742967 11.6913506 342.43225744 -8.61190796 342.38768005 C-8.54491966 350.12928481 -8.45511692 357.8703841 -8.34945679 365.61155701 C-8.31620471 368.24495941 -8.28817372 370.87843314 -8.26547241 373.51194763 C-8.23193267 377.29765717 -8.17961476 381.08271294 -8.12362671 384.8681488 C-8.11723679 386.04540024 -8.11084686 387.22265167 -8.10426331 388.43557739 C-8.08446915 389.53634109 -8.06467499 390.6371048 -8.04428101 391.77122498 C-8.02762642 393.22017403 -8.02762642 393.22017403 -8.01063538 394.69839478 C-7.53071968 397.93526831 -6.58350359 399.78558309 -4.61190796 402.38768005 C-1.85263079 404.24769627 0.32775569 404.63854426 3.61839294 404.64596558 C4.87358986 404.65620758 4.87358986 404.65620758 6.15414429 404.66665649 C7.06383972 404.66410355 7.97353516 404.6615506 8.91079712 404.65892029 C10.35784279 404.66676041 10.35784279 404.66676041 11.8341217 404.67475891 C13.9282805 404.68499739 16.02246473 404.69077905 18.11664772 404.6926403 C21.43329884 404.69630215 24.74965046 404.7130247 28.0662384 404.73339844 C37.49581327 404.78882397 46.92543254 404.81947904 56.35513306 404.84397888 C62.1240309 404.85987103 67.8927168 404.89010947 73.66150475 404.92874336 C75.85786371 404.94038059 78.05426061 404.9463236 80.25065041 404.94642448 C83.32639247 404.94661696 86.40155197 404.9649152 89.47720337 404.98704529 C90.38082611 404.98246811 91.28444885 404.97789093 92.2154541 404.97317505 C99.87101283 405.06055613 105.74816888 406.90018725 111.38809204 412.38768005 C115.51472385 418.33447607 116.86783492 423.19153686 116.38809204 430.38768005 C114.75754811 437.40730985 111.02098812 443.05482154 104.93978882 446.95985413 C100.13005558 448.89342623 95.90457813 448.80733045 90.76797485 448.77586365 C89.71026886 448.78112061 88.65256287 448.78637756 87.56280518 448.79179382 C84.07212477 448.80497837 80.58190197 448.79625833 77.09121704 448.78611755 C74.65752068 448.78813933 72.22382491 448.79105163 69.79013062 448.79481506 C64.68926221 448.79923685 59.58855148 448.79281408 54.48770142 448.77879333 C47.96673587 448.76173816 41.44614177 448.77152061 34.92518997 448.78951073 C29.89784988 448.80038342 24.8705969 448.79688558 19.84325409 448.78912735 C17.44001979 448.78713309 15.03677746 448.78955726 12.63355255 448.79656601 C9.26408652 448.80423363 5.89520982 448.79249994 2.52578735 448.77586365 C1.05098404 448.78497269 1.05098404 448.78497269 -0.45361328 448.79426575 C-14.85512681 448.66335565 -26.98118769 442.65621191 -37.32675171 432.78611755 C-49.10509615 420.42388937 -52.38861625 406.38003042 -52.24009705 389.73187256 C-52.24515601 388.21366882 -52.25239516 386.69547109 -52.26159519 385.1772868 C-52.28035231 381.04976136 -52.2683786 376.92283637 -52.25087225 372.79532707 C-52.23741222 368.32698641 -52.25296592 363.85872868 -52.26469421 359.39039612 C-52.28300981 350.65531447 -52.27459988 341.9204575 -52.25660599 333.185383 C-52.24254533 326.08390167 -52.23869462 318.98248108 -52.24204826 311.88098717 C-52.24252571 310.86792662 -52.24300315 309.85486606 -52.24349506 308.81110671 C-52.24452145 306.75273948 -52.24557681 304.69437227 -52.24666082 302.63600507 C-52.25521524 284.4626091 -52.23859235 266.2893212 -52.20883179 248.11595154 C-52.17998468 230.50001997 -52.17291856 212.884244 -52.18832397 195.26829529 C-52.20509955 176.05943342 -52.20910749 156.85064531 -52.19161361 137.64178151 C-52.18976932 135.5921629 -52.18793459 133.54254427 -52.18610954 131.49292564 C-52.18519745 130.48461054 -52.18428536 129.47629543 -52.18334563 128.43742532 C-52.17774966 121.34655935 -52.18103853 114.2557295 -52.1876545 107.16486549 C-52.19539997 98.52074419 -52.18859097 89.87677581 -52.16347945 81.23268525 C-52.15101409 76.82606326 -52.14480189 72.41967902 -52.15602112 68.01304817 C-52.16611167 63.9733689 -52.15750234 59.9341623 -52.13443994 55.89454021 C-52.12930958 54.43920717 -52.13078981 52.98383126 -52.13983459 51.52851728 C-52.2298567 35.7195266 -48.06891204 24.24537667 -37.29940796 12.63768005 C-26.47167986 2.39000882 -14.47455119 -0.06999689 0 0 Z M-8.61190796 128.38768005 C-8.61190796 149.50768005 -8.61190796 170.62768005 -8.61190796 192.38768005 C36.92809204 192.38768005 82.46809204 192.38768005 129.38809204 192.38768005 C129.38809204 171.26768005 129.38809204 150.14768005 129.38809204 128.38768005 C83.84809204 128.38768005 38.30809204 128.38768005 -8.61190796 128.38768005 Z M-8.61190796 235.38768005 C-8.61190796 256.17768005 -8.61190796 276.96768005 -8.61190796 298.38768005 C36.92809204 298.38768005 82.46809204 298.38768005 129.38809204 298.38768005 C129.38809204 277.59768005 129.38809204 256.80768005 129.38809204 235.38768005 C83.84809204 235.38768005 38.30809204 235.38768005 -8.61190796 235.38768005 Z " fill="#ffc107" transform="translate(51.611907958984375,-0.3876800537109375)"/>
<path d="M0 0 C3.20822172 1.41392648 5.35250059 3.10493631 7.82183838 5.58132935 C8.56778259 6.32452423 9.31372681 7.06771912 10.08227539 7.83343506 C10.89075928 8.6491095 11.69924316 9.46478394 12.53222656 10.30517578 C13.82057404 11.59308517 13.82057404 11.59308517 15.13494873 12.90701294 C17.48539336 15.25861144 19.83131459 17.61455732 22.17533588 19.97254801 C24.627448 22.43716991 27.08523207 24.89612225 29.54241943 27.35568237 C34.1928819 32.01235887 38.83822297 36.67410974 43.48174453 41.33770645 C48.76919919 46.64752248 54.06233984 51.9516548 59.35596514 57.25531793 C70.24364811 68.16390116 81.12417051 79.07959806 92 90 C90.3864131 94.00504422 87.57819299 96.72676281 84.58345032 99.7310791 C84.02471118 100.29928832 83.46597204 100.86749753 82.89030141 101.45292521 C81.01540941 103.35688297 79.13339665 105.25363513 77.2512207 107.15039062 C75.90547094 108.51358405 74.56008178 109.87713355 73.21502686 111.24101257 C68.79309194 115.72052241 64.36016036 120.1890634 59.92578125 124.65625 C59.17072162 125.41725573 58.415662 126.17826145 57.63772178 126.96232796 C50.51172984 134.14425715 43.38209868 141.32255096 36.24287128 148.49132538 C27.1238144 157.64848758 18.02373653 166.82361975 8.94916278 176.0248723 C2.56064234 182.49950519 -3.8489804 188.95276556 -10.27443248 195.39074659 C-14.10785533 199.23275656 -17.93158271 203.08335265 -21.7329464 206.95710754 C-25.31474046 210.60616665 -28.92214244 214.22786621 -32.5501709 217.83094215 C-33.87101652 219.15162181 -35.18262572 220.48162057 -36.48365211 221.82182884 C-45.14967724 230.73438804 -51.62936314 234.93126552 -64 237 C-65.65833678 237.39770065 -67.31356684 237.80888482 -68.9634552 238.24029541 C-70.42413806 238.5921807 -71.88529908 238.94208682 -73.34692383 239.29003906 C-74.1621048 239.48569458 -74.97728577 239.6813501 -75.81716919 239.88293457 C-78.44652318 240.51304222 -81.07664295 241.13984986 -83.70703125 241.765625 C-84.61856146 241.98260796 -85.53009167 242.19959091 -86.469244 242.42314911 C-91.27823187 243.56713142 -96.08794913 244.70799258 -100.89819336 245.84667969 C-104.85152458 246.78318429 -108.80322213 247.7261793 -112.75366211 248.67480469 C-117.56672135 249.83054981 -122.38228605 250.97523295 -127.19983482 252.11211395 C-129.02064611 252.54368287 -130.8405687 252.97902067 -132.65952492 253.41834259 C-155.26124051 258.86937974 -155.26124051 258.86937974 -162 255.5 C-165.07073128 251.66158591 -166.20227165 247.52871894 -165.81323433 242.66513062 C-165.34337388 240.0341009 -164.76311253 237.45329557 -164.13500977 234.85546875 C-163.91246017 233.87228668 -163.68991058 232.88910461 -163.46061707 231.87612915 C-162.72292961 228.64194457 -161.95841065 225.41484766 -161.19140625 222.1875 C-160.66632618 219.93144418 -160.14216516 217.67517428 -159.61888123 215.41870117 C-158.51872788 210.69509142 -157.40476584 205.97499941 -156.28149414 201.25683594 C-154.8469268 195.22447874 -153.45114424 189.18391051 -152.06617832 183.13999939 C-150.99288253 178.47922781 -149.89692792 173.82400566 -148.79438591 169.17007446 C-148.27067051 166.94558526 -147.75442177 164.71932391 -147.24594307 162.49130249 C-146.53037236 159.36967317 -145.78398489 156.25696094 -145.02954102 153.14453125 C-144.82714813 152.23208649 -144.62475525 151.31964172 -144.41622925 150.37954712 C-142.734284 143.65279293 -139.87652325 139.83365298 -135 135 C-134.07909923 134.05783127 -133.15819845 133.11566254 -132.20939159 132.14494324 C-128.77081208 128.63590426 -125.29186864 125.16798127 -121.81274414 121.69921875 C-120.4814643 120.36822138 -119.1504054 119.03700299 -117.81954956 117.70558167 C-114.22520639 114.11095284 -110.62779921 110.51940487 -107.02981496 106.92842102 C-103.26306858 103.16794683 -99.49917399 99.40462044 -95.73497009 95.64160156 C-88.61505761 88.52479103 -81.49260095 81.41053239 -74.36921638 74.29719734 C-66.25598107 66.19515852 -58.14560182 58.09026326 -50.03545582 49.98513222 C-33.36013636 33.32025139 -16.68125096 16.65894335 0 0 Z " fill="#ffc107" transform="translate(344,255)"/>
<path d="M0 0 C3.14034437 2.63408698 6.01936211 5.47973977 8.89453125 8.3984375 C9.68977707 9.19222809 10.48502289 9.98601868 11.30436707 10.80386353 C12.97036893 12.47151389 14.63147821 14.14406529 16.2878418 15.82128906 C18.8109655 18.37344784 21.35231949 20.90633432 23.89648438 23.4375 C25.5219494 25.06920146 27.14633592 26.70197816 28.76953125 28.3359375 C29.52168411 29.08515472 30.27383698 29.83437195 31.04878235 30.60629272 C39.62763802 39.3388183 45.28303103 48.48439376 45.46826172 60.98876953 C45.45811035 61.77622559 45.44795898 62.56368164 45.4375 63.375 C45.42614014 64.61999268 45.42614014 64.61999268 45.41455078 65.89013672 C44.9837809 81.99212619 36.06912856 92.41213276 25.0078125 103.28515625 C24.0516578 104.2357008 23.0961743 105.18692093 22.1413269 106.13877869 C19.6524537 108.61631471 17.15470097 111.08469898 14.65484619 113.55114746 C12.09509167 116.07995821 9.54403606 118.61751277 6.9921875 121.15429688 C2.0031672 126.11135003 -2.99530711 131.05876633 -8 136 C-11.20822172 134.58607352 -13.35250059 132.89506369 -15.82183838 130.41867065 C-16.56778259 129.67547577 -17.31372681 128.93228088 -18.08227539 128.16656494 C-18.89075928 127.3508905 -19.69924316 126.53521606 -20.53222656 125.69482422 C-21.39112488 124.83621796 -22.25002319 123.97761169 -23.13494873 123.09298706 C-25.48539336 120.74138856 -27.83131459 118.38544268 -30.17533588 116.02745199 C-32.627448 113.56283009 -35.08523207 111.10387775 -37.54241943 108.64431763 C-42.1928819 103.98764113 -46.83822297 99.32589026 -51.48174453 94.66229355 C-56.76919919 89.35247752 -62.06233984 84.0483452 -67.35596514 78.74468207 C-78.24364811 67.83609884 -89.12417051 56.92040194 -100 46 C-98.41562889 42.66424388 -96.68464615 40.42206728 -94.07617188 37.78564453 C-92.86350647 36.55383957 -92.86350647 36.55383957 -91.62634277 35.29714966 C-90.74933716 34.4179184 -89.87233154 33.53868713 -88.96875 32.6328125 C-87.61021912 31.26429642 -87.61021912 31.26429642 -86.22424316 29.86813354 C-84.30441759 27.936342 -82.38051184 26.00872021 -80.45410156 24.08349609 C-78.00760462 21.63720119 -75.57509555 19.17750677 -73.1460495 16.71389961 C-70.80440729 14.3444065 -68.44817692 11.98960185 -66.09375 9.6328125 C-65.23293823 8.7576297 -64.37212646 7.8824469 -63.48522949 6.98074341 C-45.32693436 -11.04352517 -21.5323814 -14.7364003 0 0 Z " fill="#ffc107" transform="translate(467,188)"/>
</svg>
