<?xml version="1.0" encoding="UTF-8"?>
<svg version="1.1" xmlns="http://www.w3.org/2000/svg" width="512" height="512">
<path d="M0 0 C2.43515082 0.581812 4.87297082 1.10779582 7.32519531 1.61132812 C8.56011719 1.89492187 9.79503906 2.17851563 11.06738281 2.47070312 C12.54658203 2.78974609 12.54658203 2.78974609 14.05566406 3.11523438 C31.59215354 13.13971099 40.34818883 52.3854364 45.30786133 70.5246582 C52.11583384 96.9315384 53.35585376 122.57752751 52.75488281 149.65820312 C48.30171623 147.95276544 44.37660275 145.69732902 40.31738281 143.22070312 C3.6555132 121.37916274 -37.71728975 107.72649363 -80.24511719 103.65820312 C-81.29054688 103.54734375 -82.33597656 103.43648438 -83.41308594 103.32226562 C-118.8722167 100.12619294 -153.98857789 104.76640304 -188.20605469 113.97460938 C-189.22626709 114.24756836 -190.24647949 114.52052734 -191.29760742 114.80175781 C-193.23721646 115.36534172 -195.15894643 115.99529928 -197.05395508 116.69433594 C-199.48258323 117.57533769 -201.68390232 118.31945991 -204.24511719 118.65820312 C-207.31933594 117.07226562 -207.31933594 117.07226562 -209.93261719 114.28320312 C-210.41899658 113.78369141 -210.90537598 113.28417969 -211.40649414 112.76953125 C-212.46973617 111.67478699 -213.51965162 110.56698081 -214.55761719 109.44824219 C-216.33265176 107.56534962 -218.16634498 105.7617279 -220.02636719 103.96289062 C-227.28846877 96.91815188 -234.11199575 89.72459111 -240.24511719 81.65820312 C-240.65117187 81.13387695 -241.05722656 80.60955078 -241.47558594 80.06933594 C-253.24800673 64.82352072 -263.11316103 48.54970431 -271.49511719 31.22070312 C-272.05634277 30.06538086 -272.61756836 28.91005859 -273.19580078 27.71972656 C-275.60177326 22.63452919 -277.51162956 18.27624043 -278.24511719 12.65820312 C-193.53360325 -17.86846856 -97.24055484 -21.73172842 0 0 Z " fill="#ffc107" transform="translate(459.2451171875,119.341796875)"/>
<path d="M0 0 C38.04935277 -1.09455168 38.04935277 -1.09455168 53.56738281 4.078125 C46.43859508 47.41697717 29.01402348 89.01471828 9.56738281 128.078125 C9.12458984 128.97305664 8.68179688 129.86798828 8.22558594 130.79003906 C-8.70693631 164.79512698 -30.5451324 196.41737639 -55.43261719 225.078125 C-56.38394531 226.18027344 -56.38394531 226.18027344 -57.35449219 227.3046875 C-59.0353247 229.23995796 -60.73307369 231.15928557 -62.43261719 233.078125 C-63.01269531 233.75101563 -63.59277344 234.42390625 -64.19042969 235.1171875 C-66.03729704 237.22478907 -67.93323022 239.27778396 -69.84570312 241.32568359 C-71.05033615 242.65596911 -72.22566608 244.01286054 -73.38671875 245.38134766 C-87.48448978 261.94670255 -87.48448978 261.94670255 -94.90527344 263.44140625 C-98.90001577 263.72130667 -102.71861469 263.22802213 -106.65332031 262.54736328 C-109.76489112 262.02202604 -112.87421556 261.66966905 -116.01074219 261.32421875 C-154.09019073 256.84770746 -192.34366219 244.47076166 -224.43261719 223.078125 C-224.43261719 222.418125 -224.43261719 221.758125 -224.43261719 221.078125 C-223.46324219 220.55605469 -222.49386719 220.03398437 -221.49511719 219.49609375 C-211.35105212 213.95646326 -201.81093375 207.82749981 -192.43261719 201.078125 C-191.37171875 200.315 -190.31082031 199.551875 -189.21777344 198.765625 C-181.66446808 193.20734511 -174.48541316 187.25200764 -167.43261719 181.078125 C-166.91666992 180.62679199 -166.40072266 180.17545898 -165.86914062 179.71044922 C-153.6560886 168.95133196 -143.25924069 157.02791186 -133.43261719 144.078125 C-132.75199219 143.19084717 -132.75199219 143.19084717 -132.05761719 142.28564453 C-105.51530039 107.59023682 -85.35326541 65.46810614 -78.32983398 22.19702148 C-77.12057305 15.62984083 -77.12057305 15.62984083 -74.04589844 13.1640625 C-72.25732422 12.62652344 -72.25732422 12.62652344 -70.43261719 12.078125 C-69.58054687 11.81410889 -68.72847656 11.55009277 -67.85058594 11.27807617 C-64.66445837 10.32733444 -61.46413729 9.47315785 -58.24511719 8.640625 C-56.47261597 8.18212158 -56.47261597 8.18212158 -54.66430664 7.71435547 C-36.7923517 3.25493345 -18.41046408 0.5912634 0 0 Z " fill="#ffc107" transform="translate(342.4326171875,249.921875)"/>
<path d="M0 0 C0.05945801 1.42372925 0.05945801 1.42372925 0.12011719 2.8762207 C3.30012142 76.76793406 24.28608323 145.16522797 74.8828125 200.6640625 C76.79080203 202.76918748 78.65047069 204.90613634 80.5 207.0625 C87.47527173 215.0526496 95.14104842 223.09403228 104 229 C97.20344656 269.12328267 81.70153496 305.9694254 58 339 C57.05846469 340.31891829 56.1170542 341.63792571 55.17578125 342.95703125 C54.45777344 343.96121094 53.73976562 344.96539062 53 346 C49.04120261 345.45133938 47.24103729 343.6025644 44.48046875 340.80859375 C43.19366211 339.51405273 43.19366211 339.51405273 41.88085938 338.19335938 C40.99205078 337.28392578 40.10324219 336.37449219 39.1875 335.4375 C38.31029297 334.55513672 37.43308594 333.67277344 36.52929688 332.76367188 C31.48983607 327.66390338 26.67317363 322.43465921 22 317 C20.52465464 315.37152983 19.0460657 313.74598483 17.5625 312.125 C13.99926283 308.16717617 10.59210786 304.13380731 7.30859375 299.94140625 C5.61373058 297.7819613 3.89915371 295.65049166 2.16015625 293.52734375 C-15.72947321 271.41274586 -31.35771218 246.93231574 -45 222 C-45.57121582 220.95779297 -46.14243164 219.91558594 -46.73095703 218.84179688 C-67.02671055 181.48106525 -81.84095469 142.2477427 -92 101 C-92.35747314 99.55488037 -92.35747314 99.55488037 -92.72216797 98.08056641 C-94.20250164 91.5367767 -94.55392705 86.65154218 -91.03125 80.640625 C-90.20212589 79.49964378 -89.35762891 78.36971317 -88.5 77.25 C-88.05148682 76.64510742 -87.60297363 76.04021484 -87.14086914 75.41699219 C-82.93906415 69.79880689 -78.55758829 64.33352178 -74 59 C-73.36320312 58.25105469 -72.72640625 57.50210938 -72.0703125 56.73046875 C-60.25297532 43.23479379 -47.51448412 30.56441975 -33 20 C-31.85005169 19.14350934 -30.70031411 18.28673567 -29.55078125 17.4296875 C-5.90069815 0 -5.90069815 0 0 0 Z " fill="#ffc107" transform="translate(134,31)"/>
<path d="M0 0 C1.99500931 2.99251396 2.7819791 5.22548794 3.77734375 8.65234375 C4.11999268 9.80694092 4.4626416 10.96153809 4.81567383 12.15112305 C5.18587646 13.40062744 5.5560791 14.65013184 5.9375 15.9375 C13.25890352 40.14604566 23.061581 63.21572316 34 86 C34.42104004 86.8859082 34.84208008 87.77181641 35.27587891 88.68457031 C55.59373305 131.2841469 83.07786505 172.04821121 115.0234375 206.83984375 C116.89125498 208.88115416 118.69947391 210.96188623 120.5 213.0625 C123.78230434 216.83981543 127.31096899 220.32999564 130.875 223.83984375 C132.71141797 225.70664364 134.39968619 227.60522345 136.0625 229.625 C139.31144036 233.53288037 143.10795842 236.7500465 147 240 C146.42401631 243.20110698 145.58335712 244.7790896 143.21875 246.99609375 C142.63287109 247.54813477 142.04699219 248.10017578 141.44335938 248.66894531 C140.80205078 249.25256836 140.16074219 249.83619141 139.5 250.4375 C138.83291016 251.05077148 138.16582031 251.66404297 137.47851562 252.29589844 C118.24897185 269.69533243 95.94685622 284.90376189 72 295 C57.48924446 282.05495219 43.49634001 268.73898302 32 253 C31.14193848 251.84894983 30.28386549 250.69790823 29.42578125 249.546875 C23.38822604 241.35724019 18.00542698 232.85461724 13 224 C12.5978125 223.29278809 12.195625 222.58557617 11.78125 221.85693359 C-1.2441741 198.72154164 -9.99301461 173.55037591 -15.3125 147.5625 C-15.45985596 146.84360596 -15.60721191 146.12471191 -15.7590332 145.3840332 C-18.73289088 129.73774391 -19.37300362 114.26431954 -19.3125 98.375 C-19.31034485 97.35709381 -19.3081897 96.33918762 -19.30596924 95.29043579 C-19.25629854 80.68136477 -19.00540191 66.34924147 -16 52 C-15.80132324 51.02514648 -15.60264648 50.05029297 -15.39794922 49.04589844 C-7.48794097 11.23191146 -7.48794097 11.23191146 0 0 Z " fill="#ffc107" transform="translate(19,158)"/>
<path d="M0 0 C26.54657127 3.41002115 53.17138931 19.25879937 75 34 C76.6739293 35.1167101 78.34840551 36.23260084 80.0234375 37.34765625 C81.34900729 38.23169744 82.67454648 39.11578451 84 40 C83.55592882 47.95033807 82.14822805 55.23563256 79.9375 62.875 C79.62659424 63.96071289 79.31568848 65.04642578 78.99536133 66.16503906 C68.71400011 101.24413148 51.75570528 133.19986461 28 161 C27.36320313 161.74894531 26.72640625 162.49789062 26.0703125 163.26953125 C14.25297532 176.76520621 1.51448412 189.43558025 -13 200 C-14.14994831 200.85649066 -15.29968589 201.71326433 -16.44921875 202.5703125 C-24.63934258 208.61034209 -33.14379618 213.99367614 -42 219 C-43.06081787 219.60328125 -43.06081787 219.60328125 -44.14306641 220.21875 C-68.26004808 233.79681753 -100.71562687 248.72197349 -129 248 C-126.00557296 244.49147957 -123.00168776 240.99242932 -119.95703125 237.52734375 C-103.55029466 218.82858477 -88.39948574 198.96987272 -75 178 C-74.26015869 176.84491943 -74.26015869 176.84491943 -73.50537109 175.66650391 C-62.28367887 158.05904404 -52.12713142 139.87542018 -43.01708984 121.08740234 C-41.91661283 118.82886214 -40.79586661 116.58090611 -39.67578125 114.33203125 C-21.7819945 78.03280062 -9.76623067 39.16993593 0 0 Z " fill="#ffc107" transform="translate(424,261)"/>
<path d="M0 0 C0.90054108 -0.00701431 1.80108215 -0.01402863 2.72891235 -0.02125549 C5.61750351 -0.03865402 8.50588962 -0.0451074 11.39453125 -0.046875 C12.38190277 -0.04754974 13.36927429 -0.04822449 14.38656616 -0.04891968 C28.87791389 -0.03317157 42.94723376 0.41971425 57.20703125 3.203125 C58.5525708 3.44458252 58.5525708 3.44458252 59.92529297 3.69091797 C113.85986995 13.45032952 159.41571614 40.67898692 197.95703125 78.765625 C198.67358887 79.46905029 199.39014648 80.17247559 200.12841797 80.8972168 C200.7885791 81.55633057 201.44874023 82.21544434 202.12890625 82.89453125 C202.7228418 83.48435791 203.31677734 84.07418457 203.92871094 84.68188477 C205.20703125 86.203125 205.20703125 86.203125 205.20703125 88.203125 C204.23805908 88.03707764 203.26908691 87.87103027 202.27075195 87.69995117 C181.30683054 84.12513797 160.42226677 80.88736438 139.20703125 79.203125 C138.03253418 79.1088623 136.85803711 79.01459961 135.64794922 78.91748047 C123.75764381 78.06610597 111.87446686 77.95991392 99.95703125 77.953125 C98.34631744 77.95211288 98.34631744 77.95211288 96.70306396 77.95108032 C77.06438387 77.97052888 57.7085211 78.90916152 38.20703125 81.203125 C37.49536804 81.285625 36.78370483 81.368125 36.05047607 81.453125 C1.94776351 85.43961682 -32.81500015 91.87499544 -65.234375 103.4296875 C-67.90405366 104.23670486 -70.02361452 104.26033232 -72.79296875 104.203125 C-77.85393039 82.01297717 -80.98638154 60.6551929 -80.91796875 37.828125 C-80.92183594 36.51457031 -80.92570313 35.20101562 -80.9296875 33.84765625 C-80.92839844 32.57535156 -80.92710937 31.30304687 -80.92578125 29.9921875 C-80.92465332 28.85475098 -80.92352539 27.71731445 -80.92236328 26.54541016 C-80.78666279 23.04024081 -80.34639406 19.66491849 -79.79296875 16.203125 C-54.11131343 7.13137813 -27.40204922 0.14376714 0 0 Z " fill="#ffc107" transform="translate(243.79296875,-0.203125)"/>
</svg>
