<?xml version="1.0" encoding="UTF-8"?>
<svg version="1.1" xmlns="http://www.w3.org/2000/svg" width="512" height="512">
<path d="M0 0 C7.97813249 5.52041395 13.68599481 13.32605849 19.46679688 20.97998047 C22.27570546 24.68076225 25.14327682 28.33609364 28 32 C29.19804414 33.54156761 30.39596232 35.08323311 31.59375 36.625 C34.55032738 40.42631377 37.52088755 44.21633392 40.5 48 C47.64596467 57.07784108 54.72424735 66.20835724 61.81152344 75.33203125 C65.32230748 79.85105019 68.83580796 84.3679317 72.35253906 88.88232422 C73.95431112 90.94127069 75.55160832 93.00362533 77.1484375 95.06640625 C78.11962468 96.31523405 79.09096978 97.56393905 80.0625 98.8125 C80.49135498 99.36905273 80.92020996 99.92560547 81.36206055 100.49902344 C84.04036668 103.93038818 86.87433239 106.98576439 90 110 C97.24406306 107.95010778 104.24726029 105.48107763 111.26171875 102.75390625 C112.31917801 102.34617981 113.37663727 101.93845337 114.46614075 101.51837158 C117.87460687 100.20320359 121.28104272 98.88286127 124.6875 97.5625 C127.03111423 96.65744457 129.37486487 95.75274229 131.71875 94.84838867 C141.87603698 90.92728282 152.027581 86.99143174 162.17578125 83.046875 C162.91028 82.7616246 163.64477875 82.47637421 164.40153503 82.18247986 C167.6905297 80.90515429 170.97862459 79.62566244 174.2644043 78.34008789 C175.38371338 77.9043042 176.50302246 77.46852051 177.65625 77.01953125 C178.60306641 76.64932861 179.54988281 76.27912598 180.52539062 75.89770508 C188.17135146 73.12400757 197.17182245 72.44765932 204.8125 75.5625 C213.81889526 80.28092399 218.82525073 86.47575219 222 96 C222.79184251 106.1672535 221.15302546 115.22326921 218.51171875 124.98828125 C218.13662521 126.42577925 217.76306918 127.86367917 217.39091492 129.30194092 C216.38568215 133.16988557 215.35983987 137.03208427 214.33013153 140.89357376 C213.23887065 145.00118358 212.1675062 149.11397789 211.09423828 153.22631836 C209.30225906 160.08372984 207.49969437 166.93827472 205.68994141 173.79101562 C203.13644616 183.4635142 200.61536271 193.14423262 198.10546875 202.828125 C197.31316845 205.88430296 196.52077484 208.94045671 195.72827148 211.99658203 C195.43639938 213.12221778 195.43639938 213.12221778 195.13863087 214.27059364 C193.77073972 219.5435382 192.39699812 224.81493472 191.01977539 230.08544922 C190.82571326 230.82815001 190.63165113 231.57085079 190.43170834 232.33605766 C190.04029542 233.83392145 189.64887031 235.33178204 189.25743294 236.82963943 C189.06419882 237.56906155 188.8709647 238.30848366 188.671875 239.0703125 C188.47942137 239.8067033 188.28696774 240.5430941 188.08868217 241.30179977 C185.50098084 251.20662071 182.93722756 261.11730403 180.39498901 271.03388977 C179.03504491 276.33809723 177.66765451 281.64037623 176.29834175 286.94217205 C175.20086832 291.19395788 174.11286262 295.44801123 173.03218079 299.70409393 C172.2102091 302.92878111 171.37346331 306.14960104 170.5390625 309.37109375 C170.25339417 310.50928558 169.96772583 311.64747742 169.67340088 312.82015991 C166.86204172 323.56515315 163.43315269 332.54952035 154 339 C148.43559454 342.10918326 142.85191178 343.123062 136.54007435 343.13142776 C135.44946667 343.13526891 134.358859 343.13911005 133.23520261 343.1430676 C131.44631691 343.14176787 131.44631691 343.14176787 129.62129211 343.14044189 C128.35000731 343.14341302 127.07872251 343.14638414 125.76891392 343.1494453 C122.24222172 343.15750302 118.71554989 343.15930418 115.18884957 343.16004276 C111.38434246 343.16189546 107.57984587 343.1694439 103.77534485 343.17617798 C95.45705442 343.18975319 87.13876881 343.19578478 78.82046914 343.20018864 C73.62504935 343.20295248 68.42963141 343.2071901 63.23421288 343.21169281 C48.8455495 343.22388451 34.45688761 343.23418396 20.06821918 343.2375679 C19.1475157 343.23778747 18.22681222 343.23800703 17.27820862 343.23823325 C16.35531995 343.23845153 15.43243127 343.23866981 14.48157626 343.2388947 C12.61149681 343.23933816 10.74141735 343.23978473 8.87133789 343.24023438 C7.94371669 343.2404558 7.0160955 343.24067723 6.06036457 343.24090537 C-8.96725833 343.2448526 -23.99483272 343.26230477 -39.02243688 343.2855939 C-54.45635476 343.30931936 -69.89024831 343.3217703 -85.32418472 343.32293582 C-93.98761596 343.32385192 -102.650984 343.32958781 -111.31439781 343.34775543 C-118.6921308 343.36317255 -126.06978104 343.36826739 -133.44752707 343.36001733 C-137.20978309 343.3561165 -140.97187255 343.35701256 -144.73410797 343.37107468 C-148.81831629 343.38620023 -152.90215097 343.37793035 -156.9863739 343.36749268 C-158.75852918 343.37957728 -158.75852918 343.37957728 -160.56648558 343.39190602 C-171.15502469 343.32868213 -180.21128792 341.57734515 -188 334 C-195.25457398 326.13462732 -196.91953236 315.54468712 -199.4375 305.5 C-199.97933834 303.3941141 -200.52286822 301.28866289 -201.06787109 299.18359375 C-202.32620186 294.31094216 -203.57375539 289.43563495 -204.81494141 284.55859375 C-207.28068673 274.87584749 -209.78731531 265.20373061 -212.29296875 255.53125 C-213.25136915 251.83036069 -214.20958965 248.12942483 -215.16772461 244.4284668 C-215.53113307 243.02481511 -215.53113307 243.02481511 -215.90188313 241.59280682 C-217.63636712 234.89186025 -219.36718158 228.18997278 -221.09594727 221.48754883 C-221.34180541 220.53436547 -221.58766356 219.58118212 -221.84097195 218.59911442 C-222.33807472 216.67182185 -222.8351765 214.74452903 -223.3322773 212.81723595 C-229.95813396 187.13053835 -236.63482911 161.45719539 -243.32470703 135.78710938 C-243.51631409 135.0518292 -243.70792114 134.31654902 -243.90533447 133.55898762 C-244.79556921 130.14284605 -245.6860266 126.72676299 -246.5770874 123.31083679 C-246.88406555 122.13342422 -247.1910437 120.95601166 -247.50732422 119.74291992 C-247.77326385 118.72340744 -248.03920349 117.70389496 -248.3132019 116.65348816 C-248.53984528 115.77783707 -248.76648865 114.90218597 -249 114 C-249.19014679 113.29003372 -249.38029358 112.58006744 -249.57620239 111.84858704 C-251.47463307 103.56771364 -250.89115767 94.46676512 -246.5390625 87.1484375 C-241.53299042 80.16026582 -236.41180066 76.14785737 -228 74 C-214.58993391 71.83347778 -203.04788231 77.5603565 -190.875 82.4375 C-188.67844787 83.29566808 -186.48092199 84.15134761 -184.2824707 85.00463867 C-177.5099744 87.64054732 -170.75344669 90.31571897 -164 93 C-156.69692003 95.90241428 -149.39150567 98.79825476 -142.07647705 101.67044067 C-139.22759236 102.79665084 -136.38794594 103.94413852 -133.54833984 105.09350586 C-131.81771956 105.77803295 -130.08678048 106.46175483 -128.35546875 107.14453125 C-127.57754471 107.46642426 -126.79962067 107.78831726 -125.99812317 108.1199646 C-122.73055058 109.38825441 -120.58702824 110.13504686 -117.12084961 109.33764648 C-114.11910775 107.4444102 -112.46261721 105.11261892 -110.375 102.25 C-109.49311229 101.06051172 -108.61026764 99.87173243 -107.7265625 98.68359375 C-107.27571289 98.07112793 -106.82486328 97.45866211 -106.36035156 96.82763672 C-104.21399744 93.94400302 -101.98193377 91.13006642 -99.75 88.3125 C-95.54253495 82.9737861 -91.35909686 77.61678101 -87.1875 72.25 C-86.600896 71.49533447 -86.01429199 70.74066895 -85.40991211 69.96313477 C-83.60634319 67.6422955 -81.8031078 65.32119753 -80 63 C-65.72394657 44.62198621 -65.72394657 44.62198621 -59.18725586 36.3359375 C-56.61216508 33.06753495 -54.05929171 29.78333989 -51.5234375 26.484375 C-22.84863091 -10.78093696 -22.84863091 -10.78093696 0 0 Z " fill="#ffc107" transform="translate(270,86)"/>
</svg>
