<?xml version="1.0" encoding="UTF-8"?>
<svg version="1.1" xmlns="http://www.w3.org/2000/svg" width="512" height="512">
<path d="M0 0 C3.81194827 0.00912986 7.6238258 -0.00495815 11.43575954 -0.01591969 C18.88442706 -0.03362566 26.33293256 -0.02990049 33.7816062 -0.01826912 C39.83996208 -0.00920368 45.89827284 -0.00802419 51.95663357 -0.01236439 C52.8217338 -0.01297732 53.68683404 -0.01359025 54.57814944 -0.01422176 C56.33605847 -0.01550077 58.09396749 -0.01679763 59.8518765 -0.01811212 C76.30237926 -0.02949471 92.75279259 -0.01644076 109.20328069 0.00508934 C123.2920692 0.02295821 137.38072585 0.01985345 151.46951199 0.0014143 C167.86462413 -0.02003355 184.25965807 -0.02839629 200.6547823 -0.01613665 C202.40591207 -0.01486257 204.15704186 -0.01360508 205.90817165 -0.01236439 C207.20026434 -0.01143873 207.20026434 -0.01143873 208.51845992 -0.01049438 C214.56346282 -0.0070532 220.60841575 -0.01284312 226.65341091 -0.0222826 C234.02896851 -0.03354759 241.40435602 -0.0303686 248.77989435 -0.00915962 C252.53679631 0.00129069 256.29341558 0.00557676 260.0503149 -0.00775623 C277.54885723 -0.06472382 293.502301 -0.08764142 309.30740261 8.33539867 C309.97239773 8.67869213 310.63739285 9.02198559 311.32253933 9.37568188 C316.66564204 12.21025199 321.37394661 15.54542236 325.93240261 19.52289867 C326.90048855 20.29504711 327.86857449 21.06719555 328.86599636 21.86274242 C338.25468336 29.69988419 344.9152978 41.0826385 348.93240261 52.52289867 C349.26885799 53.47202129 349.60531338 54.42114391 349.95196438 55.39902782 C353.61863997 67.22079584 353.38884116 78.67633118 353.18240261 90.96039867 C353.16229064 93.05999086 353.14404825 95.15960182 353.12771511 97.2592268 C353.0841295 102.34759039 353.01536565 107.43503105 352.93240261 112.52289867 C352.1174004 112.52620882 351.30239819 112.52951897 350.46269894 112.53292942 C330.57041236 112.61438726 310.67820004 112.70655296 290.78601742 112.81042576 C281.16604586 112.86040489 271.54608221 112.90684864 261.92605495 112.94477367 C253.53469971 112.9778641 245.14340854 113.01778749 236.75212431 113.06568873 C232.31496181 113.09078546 227.87784088 113.11261495 223.4406271 113.12624264 C219.25126268 113.13921759 215.06204212 113.16143236 210.87275791 113.19028187 C209.3475651 113.19923868 207.82234921 113.20501944 206.29713154 113.20711231 C179.97109675 113.24964835 155.84743354 118.29306803 136.36209011 137.06537914 C121.42267597 152.29562204 114.62599548 171.63507113 114.43240261 192.58539867 C114.62052593 211.36564711 120.63326106 229.10557163 132.93240261 243.52289867 C133.35521511 244.08750805 133.77802761 244.65211742 134.21365261 245.23383617 C144.99478821 259.0863418 163.80600545 268.08490567 180.93240261 270.52289867 C189.93236595 271.59312607 198.91060896 271.69320756 207.96047878 271.72822094 C209.5482905 271.73781981 211.13609977 271.747831 212.72390652 271.75821972 C217.00202851 271.78505747 221.2801613 271.80618026 225.55831981 271.8262217 C230.04129476 271.84821293 234.52423725 271.87553684 239.00718594 271.90227795 C247.48184275 271.95202837 255.95651775 271.99703206 264.43120986 272.04030031 C274.08547443 272.08982433 283.7397064 272.14468582 293.39393938 272.1999799 C313.24006337 272.3135287 333.08621854 272.42042588 352.93240261 272.52289867 C353.03242372 278.65688532 353.10440753 284.7903814 353.15212917 290.92499828 C353.17205502 293.00516069 353.19920581 295.08526851 353.23416042 297.16523266 C353.49105231 312.86208221 352.65562373 326.7561145 345.11990261 340.89789867 C344.77733425 341.56216869 344.43476589 342.22643871 344.08181667 342.91083813 C341.24860893 348.25541689 337.89219696 352.95027901 333.93240261 357.52289867 C333.33556667 358.31567211 332.73873074 359.10844555 332.12380886 359.92524242 C324.06854676 369.47381514 312.63609794 376.42369686 300.93240261 380.52289867 C300.06390179 380.85511677 299.19540096 381.18733486 298.30058193 381.52962017 C285.15999295 385.8147374 271.53244355 385.09430292 257.86480522 385.04579735 C254.05285695 385.03666749 250.24097942 385.0507555 246.42904568 385.06171703 C238.98037816 385.079423 231.53187266 385.07569784 224.08319902 385.06406647 C218.02484314 385.05500103 211.96653239 385.05382154 205.90817165 385.05816174 C205.04307142 385.05877467 204.17797118 385.0593876 203.28665578 385.06001911 C201.52874675 385.06129812 199.77083773 385.06259497 198.01292872 385.06390947 C181.56242596 385.07529206 165.11201263 385.06223811 148.66152453 385.04070801 C134.57273602 385.02283914 120.48407937 385.0259439 106.39529324 385.04438305 C90.00018109 385.0658309 73.60514715 385.07419364 57.21002293 385.06193399 C55.45889315 385.06065991 53.70776337 385.05940243 51.95663357 385.05816174 C51.09523844 385.05754463 50.23384331 385.05692753 49.34634531 385.05629173 C43.3013424 385.05285055 37.25638947 385.05864047 31.21139431 385.06807995 C23.83583671 385.07934494 16.4604492 385.07616595 9.08491087 385.05495697 C5.32800891 385.04450666 1.57138964 385.04022059 -2.18550968 385.05355358 C-19.68405201 385.11052117 -35.63749578 385.13343877 -51.44259739 376.71039867 C-52.10759251 376.36710522 -52.77258762 376.02381176 -53.45773411 375.67011547 C-58.80083682 372.83554536 -63.50914139 369.50037499 -68.06759739 365.52289867 C-69.03568333 364.75075024 -70.00376926 363.9786018 -71.00119114 363.18305492 C-80.39068498 355.34523965 -87.04897812 343.96335041 -91.06759739 332.52289867 C-91.40094845 331.58510571 -91.73429951 330.64731274 -92.07775211 329.6811018 C-95.83740758 317.57064467 -95.63242423 305.69714644 -95.58517551 293.10883617 C-95.59060461 290.66793432 -95.59773167 288.22703575 -95.60641575 285.7861433 C-95.62268 279.87752549 -95.62041279 273.96909486 -95.60876518 268.0604825 C-95.59968543 263.25307681 -95.59852634 258.44572798 -95.60286045 253.63831615 C-95.60347338 252.95083904 -95.60408632 252.26336192 -95.60471782 251.55505216 C-95.60599688 250.15791113 -95.60729374 248.76077011 -95.60860819 247.3636291 C-95.61998032 234.30096518 -95.60695341 221.23841403 -95.58540672 208.17576861 C-95.56753878 196.99780243 -95.57064384 185.82000249 -95.58908176 174.6420393 C-95.61054828 161.62213505 -95.618882 148.60232934 -95.60663271 135.58240986 C-95.60535868 134.19076699 -95.60410119 132.7991241 -95.60286045 131.40748119 C-95.60224335 130.72298912 -95.60162625 130.03849705 -95.60099044 129.3332628 C-95.59755482 124.53860132 -95.603327 119.744003 -95.61277866 114.94935131 C-95.62525034 108.48130354 -95.61621321 102.01349429 -95.59320164 95.54547405 C-95.58794321 93.18130795 -95.58937872 90.81711531 -95.5982523 88.45296001 C-95.65220184 72.61057875 -94.86254182 58.422606 -87.25509739 44.14789867 C-86.91180393 43.48290356 -86.56851048 42.81790844 -86.21481419 42.13276196 C-83.38024407 36.78965924 -80.04507371 32.08135468 -76.06759739 27.52289867 C-74.90937473 26.07076977 -74.90937473 26.07076977 -73.72775364 24.58930492 C-65.87114372 15.17729559 -54.51356468 8.58351602 -43.06759739 4.52289867 C-42.1979636 4.18954762 -41.32832981 3.85619656 -40.43234348 3.51274395 C-27.29273032 -0.76867696 -13.66582299 -0.04849913 0 0 Z " fill="#ffc107" transform="translate(127.06759738922119,63.47710132598877)"/>
<path d="M0 0 C1.67633041 0.00084752 3.35266193 0.0003687 5.0289917 -0.00132751 C9.55314765 -0.00218403 14.07706228 0.01538569 18.60116243 0.03639436 C23.33902527 0.05521882 28.07689436 0.05691613 32.81478882 0.06047058 C41.77474855 0.06977415 50.73459773 0.09436499 59.69450891 0.12451905 C71.81044428 0.16440459 83.92641012 0.18053158 96.04239464 0.1980257 C115.11477158 0.22618736 134.18691532 0.28596814 153.25927734 0.34057617 C153.25927734 32.02057617 153.25927734 63.70057617 153.25927734 96.34057617 C111.11125978 96.50178831 111.11125978 96.50178831 93.41552734 96.53588867 C81.20907856 96.55960022 69.00274042 96.58743778 56.79638672 96.64233398 C47.90557082 96.68229988 39.0148449 96.70803222 30.12394166 96.71693015 C25.41962937 96.72212842 20.71557443 96.7342791 16.01134491 96.7634964 C11.57573988 96.79081987 7.14049611 96.79898725 2.70481491 96.7930069 C1.08437761 96.79409961 -0.53607286 96.80195213 -2.15643692 96.81739807 C-18.40793663 96.96460276 -30.39646536 93.24900636 -42.49072266 82.02807617 C-52.48363303 71.46952936 -55.25512047 59.92229694 -55.16040039 45.81030273 C-54.74962009 31.68791378 -48.90360366 20.61191891 -38.67822266 10.93432617 C-26.81678147 1.17733423 -14.78866203 -0.10522695 0 0 Z M-31.11572266 27.65307617 C-32.03012031 28.85322309 -32.90620014 30.08357663 -33.74072266 31.34057617 C-34.15322266 31.9619043 -34.56572266 32.58323242 -34.99072266 33.22338867 C-38.82475855 40.22582924 -38.97902077 48.58674686 -37.74072266 56.34057617 C-34.67188662 66.24149243 -28.6846488 72.88548754 -19.67822266 77.77807617 C-11.82530447 80.91652617 -2.20609211 80.59530278 5.69677734 77.77807617 C14.0865564 73.7922343 19.59735139 67.8431596 23.25927734 59.34057617 C25.93292165 51.19967203 25.20593122 41.26171411 21.56787109 33.58276367 C16.32292932 24.59590822 8.92363782 19.42973249 -1.16259766 16.68041992 C-12.45567061 14.93840335 -23.41687027 19.33522058 -31.11572266 27.65307617 Z " fill="#ffc107" transform="translate(326.74072265625,207.659423828125)"/>
<path d="M0 0 C1.87863739 0.0199855 1.87863739 0.0199855 3.79522705 0.04037476 C4.83485847 0.03906052 4.83485847 0.03906052 5.89549255 0.03771973 C8.17996069 0.04189074 10.46146934 0.08850914 12.74542236 0.1355896 C14.33152665 0.14678373 15.91765171 0.1553229 17.50378418 0.16131592 C21.67347749 0.18419792 25.84191173 0.24311351 30.0111084 0.30953979 C34.2674252 0.37097723 38.52394598 0.39833391 42.78057861 0.42855835 C51.12881193 0.49285933 59.47602292 0.59522881 67.82354736 0.7215271 C67.92356847 6.85551375 67.99555229 12.98900983 68.04327393 19.12362671 C68.06319978 21.20378912 68.09035057 23.28389693 68.12530518 25.36386108 C68.38292936 41.10545646 67.56796604 54.91496288 60.01104736 69.0965271 C59.668479 69.76079712 59.32591064 70.42506714 58.97296143 71.10946655 C56.13975368 76.45404531 52.78334171 81.14890744 48.82354736 85.7215271 C47.92829346 86.91068726 47.92829346 86.91068726 47.01495361 88.12387085 C38.9624002 97.66923274 27.52657884 104.62883945 15.82354736 108.7215271 C14.94040863 109.05521805 14.0572699 109.388909 13.14736938 109.73271179 C0.31682281 113.88625323 -12.79177188 113.24041033 -26.14042735 113.12710285 C-29.63169734 113.10180582 -33.1229866 113.09972523 -36.61433411 113.09500122 C-43.20133428 113.0826534 -49.78806346 113.04994513 -56.37494522 113.00960326 C-63.88418062 112.96462754 -71.39343013 112.94283421 -78.90276706 112.92282152 C-94.32748492 112.8812033 -109.7519336 112.81101407 -125.17645264 112.7215271 C-123.03300588 110.57808034 -121.05116402 109.75025109 -118.27825928 108.61727905 C-83.9456424 94.58911894 -51.80988225 68.96739442 -29.17645264 39.7215271 C-28.75251221 39.1739978 -28.32857178 38.62646851 -27.89178467 38.06234741 C-20.71527367 28.72265718 -14.44648195 18.95855132 -8.46575928 8.81698608 C-8.04028809 8.12548462 -7.61481689 7.43398315 -7.17645264 6.7215271 C-6.63365158 5.70235703 -6.09085052 4.68318695 -5.53160095 3.63313293 C-3.17645264 0.7215271 -3.17645264 0.7215271 0 0 Z " fill="#ffc107" transform="translate(412.17645263671875,335.2784729003906)"/>
<path d="M0 0 C4.071006 -0.05009283 8.14188832 -0.08604089 12.21313477 -0.10986328 C13.59304944 -0.11981266 14.97294365 -0.13337705 16.3527832 -0.15087891 C33.75227524 -0.36576548 48.48141381 2.90625322 63.67578125 11.66796875 C66.09862148 13.10622763 66.09862148 13.10622763 69.1875 14.4375 C82.58808714 21.88227063 92.01631151 36.83280261 97 51 C97.53173828 52.48173706 97.53173828 52.48173706 98.07421875 53.9934082 C101.7672992 65.74715871 101.45119154 77.21244315 101.25 89.4375 C101.1675 96.553125 101.085 103.66875 101 111 C85.16 111 69.32 111 53 111 C48 93 48 93 45.8125 84.875 C37.57958451 56.25223792 22.7109281 28.79137396 3.55859375 6.015625 C2.05841884 4.07554917 1.05988063 2.20060689 0 0 Z " fill="#ffc107" transform="translate(379,65)"/>
<path d="M0 0 C14.19 0 28.38 0 43 0 C43 31.68 43 63.36 43 96 C24.19 96 5.38 96 -14 96 C-12.33928358 89.35713434 -10.66971162 82.81524894 -8.80541992 76.24438477 C-1.82313734 51.0388724 -0.45800265 25.99165026 0 0 Z " fill="#ffc107" transform="translate(437,208)"/>
</svg>
